<?xml version="1.0" encoding="utf-8"?>
<!-- Generator: Adobe Illustrator 19.2.1, SVG Export Plug-In . SVG Version: 6.00 Build 0)  -->
<svg version="1.1" id="Layer_1" xmlns="http://www.w3.org/2000/svg" xmlns:xlink="http://www.w3.org/1999/xlink" x="0px" y="0px"
	 viewBox="0 0 100 100" style="enable-background:new 0 0 100 100;" xml:space="preserve">
<style type="text/css">
	.st0{display:none;}
	.st1{display:inline;}
	.st2{fill:none;stroke:#000000;stroke-width:3;stroke-linecap:round;stroke-miterlimit:10;}
	.st3{fill:none;stroke:#000000;stroke-width:3;stroke-linecap:round;stroke-linejoin:round;stroke-miterlimit:10;}
	.st4{fill:none;stroke:#000000;stroke-width:3;stroke-linejoin:round;stroke-miterlimit:10;}
	.st5{fill:none;stroke:#000000;stroke-width:3;stroke-miterlimit:10;}
	.st6{fill:none;stroke:#000000;stroke-width:3;stroke-linejoin:bevel;stroke-miterlimit:10;}
	.st7{display:inline;fill:none;stroke:#000000;stroke-width:3;stroke-linecap:round;stroke-linejoin:round;stroke-miterlimit:10;}
</style>
<g id="embroidery" class="st0">
	<g class="st1">
		<line class="st2" x1="18.6" y1="55.5" x2="18.6" y2="69.4"/>
		<path class="st3" d="M7.1,22.9v16.2v0.1v16.2h25.3V39.3h36.8v24.3H58.6v22.7H1C1,86.3,0.4,98,18.3,98S97,98,97,98V87.9v-1.6v-47
			v-6.5v-9.9C97,22.9,7.1,22.9,7.1,22.9z"/>
		<rect x="75.6" y="38.9" class="st4" width="15" height="12"/>
		<line class="st2" x1="11.6" y1="31.2" x2="34.9" y2="31.2"/>
		<ellipse class="st4" cx="83.2" cy="62.3" rx="6.1" ry="6.2"/>
	</g>
</g>
<g id="_x33_d" class="st0">
	<g class="st1">
		<path class="st5" d="M12.9,4.9c-5.4,0-9.8,4.4-9.8,9.8v74.4c0,5.4,4.4,9.8,9.8,9.8h74.3c5.4,0,9.8-4.4,9.8-9.8V14.8
			C97,9.4,92.6,5,87.2,5L12.9,4.9z"/>
		<line class="st5" x1="3" y1="31.2" x2="44.1" y2="31.2"/>
		<line class="st5" x1="75.3" y1="31.2" x2="96.9" y2="31.2"/>
		<path class="st5" d="M67.5,54.9H52.1c-4.3,0-7.8-3.6-7.8-7.8V19.3c0-4.3,3.6-7.8,7.8-7.8h15.5c4.3,0,7.8,3.6,7.8,7.8v27.8
			C75.3,51.4,71.9,54.9,67.5,54.9z"/>
		<line class="st3" x1="59.2" y1="54.9" x2="59.2" y2="61.9"/>
		<polyline class="st3" points="36.7,75 43,68.7 60.1,68.7 60.1,84.5 53.8,90.9 53.8,90.9 36.7,90.9 36.7,75 53.8,75 60.1,68.7 		
			"/>
		<line class="st6" x1="53.8" y1="75" x2="53.8" y2="90.9"/>
	</g>
</g>
<g id="vinyl" class="st0">
	<polygon class="st7" points="75.2,98 4.9,98 11.4,55.5 68.7,55.5 	"/>
	<line class="st7" x1="7.7" y1="55.5" x2="72.4" y2="55.5"/>
	<rect x="78.6" y="47.3" class="st7" width="11.5" height="15.7"/>
	<rect x="14.8" y="35.3" class="st7" width="71" height="5"/>
	<polyline class="st7" points="58.5,69.3 38.9,67.7 20.5,55.7 	"/>
	<polygon class="st7" points="3.6,40.3 3.6,70.7 9.1,70.7 11.4,55.5 68.7,55.5 71,70.7 96.9,70.7 96.9,40.3 	"/>
</g>
<g id="shopbot" class="st0">
	<rect x="5.4" y="56.4" class="st7" width="90.4" height="7.8"/>
	<g class="st1">
		<line class="st3" x1="12.1" y1="64.2" x2="12.1" y2="99"/>
		<line class="st3" x1="89.1" y1="64.2" x2="89.1" y2="99"/>
	</g>
	<rect x="53.3" y="9.3" class="st7" width="18" height="19.7"/>
	<polyline class="st7" points="53.3,17.5 12.1,17.5 12.1,56.4 	"/>
	<polyline class="st7" points="71.3,17.5 89.1,17.5 89.1,56.4 	"/>
	<rect x="40.3" y="48.3" class="st7" width="44.3" height="8"/>
	<line class="st7" x1="62.3" y1="29" x2="62.3" y2="37.4"/>
</g>
<g id="laser" class="st0">
	<rect x="2" y="31.7" class="st7" width="95.9" height="55.1"/>
	<g class="st1">
		<line class="st3" x1="11.4" y1="86.7" x2="11.4" y2="98"/>
		<line class="st3" x1="88.4" y1="86.7" x2="88.4" y2="98"/>
	</g>
	<rect x="11" y="31.7" class="st7" width="66.3" height="31.5"/>
	<rect x="82.8" y="37.5" class="st7" width="10.2" height="19.7"/>
	<line class="st7" x1="77.3" y1="40.5" x2="11" y2="40.5"/>
</g>
<g id="_x33_d_1_">
	<g>
		<path class="st4" d="M2.9,3v94h93.9L96.7,3.1L2.9,3z"/>
		<line class="st5" x1="2.8" y1="29.3" x2="43.9" y2="29.3"/>
		<line class="st5" x1="75.1" y1="29.3" x2="96.7" y2="29.3"/>
		<path class="st4" d="M75.1,53H43.9l0.2-43.4h31.1L75.1,53z"/>
		<line class="st3" x1="59" y1="53" x2="59" y2="60"/>
		<polyline class="st3" points="36.5,73.1 42.8,66.8 59.9,66.8 59.9,82.6 53.6,89 53.6,89 36.5,89 36.5,73.1 53.6,73.1 59.9,66.8 		
			"/>
		<line class="st6" x1="53.6" y1="73.1" x2="53.6" y2="89"/>
	</g>
</g>
</svg>
