<?xml version="1.0" encoding="utf-8"?>
<!-- Generator: Adobe Illustrator 19.2.0, SVG Export Plug-In . SVG Version: 6.00 Build 0)  -->
<svg version="1.1" id="Layer_1" xmlns="http://www.w3.org/2000/svg" xmlns:xlink="http://www.w3.org/1999/xlink" x="0px" y="0px"
	 viewBox="0 0 100 100" style="enable-background:new 0 0 100 100;" xml:space="preserve">
<style type="text/css">
	.st0{fill:#FFFFFF;}
</style>
<g>
	<g>
		<path class="st0" d="M86.5,100H13.5C6,100,0,94,0,86.5V13.5C0,6,6,0,13.5,0h73.1C94,0,100,6,100,13.5v73.1C100,94,94,100,86.5,100
			z M13.5,3.8c-5.3,0-9.6,4.3-9.6,9.6v73.1c0,5.3,4.3,9.6,9.6,9.6h73.1c5.3,0,9.6-4.3,9.6-9.6V13.5c0-5.3-4.3-9.6-9.6-9.6H13.5z"/>
	</g>
	<g>
		<rect x="1.9" y="29.6" class="st0" width="44.3" height="3.8"/>
	</g>
	<g>
		<rect x="73" y="29.6" class="st0" width="25.1" height="3.8"/>
	</g>
	<g>
		<path class="st0" d="M67.2,52.9H52c-4.2,0-7.7-3.5-7.7-7.7V17.9c0-4.2,3.5-7.7,7.7-7.7h15.2c4.2,0,7.7,3.5,7.7,7.7v27.3
			C74.9,49.4,71.5,52.9,67.2,52.9z M52,14c-2.1,0-3.8,1.7-3.8,3.8v27.3c0,2.1,1.7,3.8,3.8,3.8h15.2c2.1,0,3.8-1.7,3.8-3.8V17.9
			c0-2.1-1.7-3.8-3.8-3.8H52z"/>
	</g>
	<g>
		<path class="st0" d="M59.6,64c-1.1,0-1.9-0.9-1.9-1.9V51c0-1.1,0.9-1.9,1.9-1.9s1.9,0.9,1.9,1.9v11.1C61.5,63.2,60.7,64,59.6,64z"
			/>
	</g>
	<g>
		<g>
			<path class="st0" d="M53.9,93.1H36.1c-1.1,0-1.9-0.9-1.9-1.9V73.4c0-1.1,0.9-1.9,1.9-1.9h17.8c1.1,0,1.9,0.9,1.9,1.9v17.8
				C55.9,92.2,55,93.1,53.9,93.1z M38,89.2h14v-14H38V89.2z"/>
		</g>
		<g>
			<path class="st0" d="M36.1,75.3c-0.6,0-1.1-0.3-1.5-0.7c-0.6-0.8-0.5-2,0.3-2.7l7.5-5.8c0.8-0.6,2-0.5,2.7,0.3
				c0.6,0.8,0.5,2-0.3,2.7l-7.5,5.8C37,75.1,36.5,75.3,36.1,75.3z"/>
		</g>
		<g>
			<path class="st0" d="M53.9,75.3c-0.6,0-1.1-0.3-1.5-0.7c-0.6-0.8-0.5-2,0.3-2.7l7.5-5.8c0.8-0.6,2-0.5,2.7,0.3
				c0.6,0.8,0.5,2-0.3,2.7l-7.5,5.8C54.8,75.1,54.4,75.3,53.9,75.3z"/>
		</g>
		<g>
			<path class="st0" d="M53.9,93.1c-0.6,0-1.1-0.3-1.5-0.7c-0.6-0.8-0.5-2,0.3-2.7l7.5-5.8c0.8-0.6,2-0.5,2.7,0.3
				c0.6,0.8,0.5,2-0.3,2.7l-7.5,5.8C54.8,93,54.4,93.1,53.9,93.1z"/>
		</g>
		<g>
			<path class="st0" d="M61.4,69.5H43.6c-1.1,0-1.9-0.9-1.9-1.9s0.9-1.9,1.9-1.9h17.8c1.1,0,1.9,0.9,1.9,1.9S62.5,69.5,61.4,69.5z"
				/>
		</g>
		<g>
			<path class="st0" d="M61.4,87.3c-1.1,0-1.9-0.9-1.9-1.9V67.6c0-1.1,0.9-1.9,1.9-1.9s1.9,0.9,1.9,1.9v17.8
				C63.3,86.5,62.5,87.3,61.4,87.3z"/>
		</g>
	</g>
</g>
</svg>
