<?xml version="1.0" encoding="utf-8"?>
<!-- Generator: Adobe Illustrator 19.2.0, SVG Export Plug-In . SVG Version: 6.00 Build 0)  -->
<svg version="1.1" id="Layer_1" xmlns="http://www.w3.org/2000/svg" xmlns:xlink="http://www.w3.org/1999/xlink" x="0px" y="0px"
	 viewBox="0 0 100 100" style="enable-background:new 0 0 100 100;" xml:space="preserve">
<style type="text/css">
	.st0{fill:#FFFFFF;}
</style>
<g>
	<g>
		<path class="st0" d="M52.2,19.4H12.7c-1.1,0-1.9-0.9-1.9-1.9s0.9-1.9,1.9-1.9h39.5c1.1,0,1.9,0.9,1.9,1.9S53.3,19.4,52.2,19.4z"/>
	</g>
	<g>
		<path class="st0" d="M87.3,19.4H72.6c-1.1,0-1.9-0.9-1.9-1.9s0.9-1.9,1.9-1.9h14.7c1.1,0,1.9,0.9,1.9,1.9S88.4,19.4,87.3,19.4z"/>
	</g>
	<g>
		<path class="st0" d="M12.7,97.1c-1.1,0-1.9-0.9-1.9-1.9V58.6c0-1.1,0.9-1.9,1.9-1.9s1.9,0.9,1.9,1.9v36.6
			C14.6,96.3,13.8,97.1,12.7,97.1z"/>
	</g>
	<g>
		<path class="st0" d="M12.7,52.7c-1.1,0-1.9-0.9-1.9-1.9V17.4c0-1.1,0.9-1.9,1.9-1.9s1.9,0.9,1.9,1.9v33.4
			C14.6,51.9,13.8,52.7,12.7,52.7z"/>
	</g>
	<g>
		<path class="st0" d="M87.3,52.7c-1.1,0-1.9-0.9-1.9-1.9V17.4c0-1.1,0.9-1.9,1.9-1.9s1.9,0.9,1.9,1.9v33.4
			C89.2,51.9,88.4,52.7,87.3,52.7z"/>
	</g>
	<g>
		<path class="st0" d="M87.3,97.1c-1.1,0-1.9-0.9-1.9-1.9V58.6c0-1.1,0.9-1.9,1.9-1.9s1.9,0.9,1.9,1.9v36.6
			C89.2,96.3,88.4,97.1,87.3,97.1z"/>
	</g>
	<g>
		<path class="st0" d="M68.8,25.6H56c-3.2,0-5.8-2.6-5.8-5.8V8.6c0-3.2,2.6-5.8,5.8-5.8h12.8c3.2,0,5.8,2.6,5.8,5.8v11.2
			C74.6,23,72,25.6,68.8,25.6z M56,6.7c-1.1,0-1.9,0.9-1.9,1.9v11.2c0,1.1,0.9,1.9,1.9,1.9h12.8c1.1,0,1.9-0.9,1.9-1.9V8.6
			c0-1.1-0.9-1.9-1.9-1.9H56z"/>
	</g>
	<g>
		<path class="st0" d="M62.4,34.8c-1.1,0-1.9-0.9-1.9-1.9v-9.2c0-1.1,0.9-1.9,1.9-1.9s1.9,0.9,1.9,1.9v9.2
			C64.3,33.9,63.5,34.8,62.4,34.8z"/>
	</g>
	<g>
		<path class="st0" d="M79.6,52.7H35.6c-1.1,0-1.9-0.9-1.9-1.9V38.6c0-1.1,0.9-1.9,1.9-1.9h44.1c1.1,0,1.9,0.9,1.9,1.9v12.2
			C81.6,51.9,80.7,52.7,79.6,52.7z M37.5,48.9h40.2v-8.3H37.5V48.9z"/>
	</g>
	<g>
		<path class="st0" d="M98.1,60.4H1.9c-1.1,0-1.9-0.9-1.9-1.9v-7.7c0-1.1,0.9-1.9,1.9-1.9h96.2c1.1,0,1.9,0.9,1.9,1.9v7.7
			C100,59.5,99.1,60.4,98.1,60.4z M3.8,56.6h92.3v-3.8H3.8V56.6z"/>
	</g>
</g>
</svg>
