<?xml version="1.0" encoding="utf-8"?>
<!-- Generator: Adobe Illustrator 19.2.0, SVG Export Plug-In . SVG Version: 6.00 Build 0)  -->
<svg version="1.1" id="Layer_1" xmlns="http://www.w3.org/2000/svg" xmlns:xlink="http://www.w3.org/1999/xlink" x="0px" y="0px"
	 viewBox="0 0 100 88" style="enable-background:new 0 0 100 88;" xml:space="preserve">
<style type="text/css">
	.st0{fill:#FFFFFF;}
</style>
<g>
	<g>
		<path class="st0" d="M62.6,48.7c-0.1,0-0.2,0-0.3-0.1c-0.6-0.2-1.1-0.4-1.5-0.6c-2.3-1.2-3-3.2-1.9-5.5c0.5-1.1,0.9-2.1,1-3
			c0-0.3,0.1-0.6,0.1-0.9H37.7c-1.9,0-3.5-1.6-3.5-3.5V3.9c0-1.9,1.6-3.5,3.5-3.5h47.1c8.1,0,14.7,6.5,14.7,14.5v9.2
			c0,8-6.6,14.5-14.7,14.5h-0.1v27.9H62.6V48.7z M81.8,35.7h3c6.5,0,11.8-5.2,11.8-11.6v-9.2c0-6.4-5.3-11.6-11.8-11.6H37.7
			c-0.3,0-0.6,0.3-0.6,0.6v31.2c0,0.3,0.3,0.6,0.6,0.6h24.7l0.3,1.1c0.1,0.5,0.2,1,0.2,1.6c0,0.5,0,1-0.1,1.5
			c-0.2,1.2-0.6,2.5-1.3,3.8c-0.4,0.8-0.4,1.2,0.6,1.7c0.3,0.2,0.6,0.3,1,0.4c0.3,0.1,0.7,0.2,1.1,0.3l1.2,0.2v17.3h16.3V35.7H81.8z
			 M65.8,24.8l-7.7-7.6c-0.8-0.8-1.2-1.8-1.2-2.8c0-1.1,0.4-2.1,1.2-2.8c1.6-1.5,4.1-1.5,5.7,0l7.7,7.6c0.8,0.8,1.2,1.8,1.2,2.8
			c0,1.1-0.4,2.1-1.2,2.8c-0.8,0.8-1.8,1.2-2.8,1.2C67.5,26,66.5,25.5,65.8,24.8z M61.7,13.6c-0.4-0.4-1.2-0.4-1.6,0
			c-0.2,0.2-0.3,0.5-0.3,0.8s0.1,0.6,0.3,0.8l7.7,7.6c0.4,0.4,1.2,0.4,1.6,0c0.2-0.2,0.3-0.5,0.3-0.8s-0.1-0.6-0.3-0.8L61.7,13.6
			L61.7,13.6z M81.9,24.8l-7.7-7.6c-0.8-0.8-1.2-1.8-1.2-2.8c0-1.1,0.4-2.1,1.2-2.8c1.6-1.5,4.1-1.5,5.7,0l7.7,7.6
			c0.8,0.8,1.2,1.8,1.2,2.8c0,1.1-0.4,2.1-1.2,2.8c-0.8,0.8-1.8,1.2-2.8,1.2C83.6,26,82.6,25.5,81.9,24.8z M76.2,13.6
			c-0.2,0.2-0.3,0.5-0.3,0.8s0.1,0.6,0.3,0.8l7.7,7.6c0.4,0.4,1.2,0.4,1.6,0c0.2-0.2,0.3-0.5,0.3-0.8s-0.1-0.6-0.3-0.8l-7.7-7.6
			c-0.2-0.2-0.5-0.3-0.8-0.3C76.7,13.3,76.4,13.4,76.2,13.6z"/>
	</g>
	<g>
		<path class="st0" d="M43.8,83.1v-15c0-2.5,2-4.5,4.5-4.5H87c2.5,0,4.5,2,4.5,4.5V83c0,2.5-2,4.5-4.5,4.5H48.3
			C45.8,87.6,43.8,85.5,43.8,83.1z M48.3,66.5c-0.9,0-1.7,0.7-1.7,1.6V83c0,0.9,0.7,1.6,1.7,1.6H87c0.9,0,1.7-0.7,1.7-1.6V68.1
			c0-0.9-0.7-1.6-1.7-1.6H48.3z"/>
	</g>
	<g>
		<path class="st0" d="M35.5,36.7c-6.7-1.1-12.1-6.1-13.7-12.5H4.6c-2.2,0-4.1-1.8-4.1-4s1.8-4,4.1-4h17.2c1.6-6.5,7-11.4,13.7-12.5
			l1.7-0.3V37L35.5,36.7z M24.4,17.8L24.2,19H4.6c-0.7,0-1.2,0.5-1.2,1.2c0,0.6,0.5,1.2,1.2,1.2h19.6l0.2,1.2
			c0.9,5.3,4.8,9.5,9.9,11V6.8C29.2,8.3,25.3,12.5,24.4,17.8z"/>
	</g>
</g>
</svg>
