  0
SECTION
  2
HEADER
  9
$ACADVER
  1
AC1009
  9
$EXTMIN
 10
0.0
 20
0.0
 30
0.0
  9
$EXTMAX
 10
100.0
 20
100.0
 30
0.0
  9
$INSBASE
 10
0.0
 20
0.0
 30
0.0
  9
$INSUNITS
 70
4
0
ENDSEC
  0
SECTION
  2
TABLES
  0
TABLE
  2
LTYPE
 70
19
  0
ENDTAB
  0
TABLE
  2
LAYER
 70
6
  0
LAYER
  2
DIMENSIONS
 70
0
 62
1
  6
CONTINUOUS
  0
LAYER
  2
TABLECONTENT
 70
0
 62
1
  6
CONTINUOUS
  0
LAYER
  2
jeroen
 70
0
 62
5
  6
CONTINUOUS
  0
LAYER
  2
up
 70
0
 62
6 
  6
CONTINUOUS
  0
LAYER
  2
down
 70
0
 62
6 
  6
CONTINUOUS
  0
LAYER
  2
seat
 70
0
 62
6 
  6
CONTINUOUS
  0
LAYER
  2
footbar
 70
0
 62
4 
  6
CONTINUOUS
  0
LAYER
  2
TABLEBACKGROUND
 70
0
 62
1
  6
CONTINUOUS
  0
LAYER
  2
TABLEGRID
 70
0
 62
1
  6
CONTINUOUS
  0
LAYER
  2
VIEWPORTS
 70
0
 62
7
  6
CONTINUOUS
  0
ENDTAB
  0
TABLE
  2
STYLE
 70
12
  0
ENDTAB
  0
TABLE
  2
VIEW
 70
0
  0
ENDTAB
  0
TABLE
  2
APPID
 70
1
  0
APPID
  2
DXFWRITE
 70
0
  0
ENDTAB
  0
TABLE
  2
VPORT
 70
0
  0
ENDTAB
  0
TABLE
  2
UCS
 70
0
  0
ENDTAB
  0
ENDSEC
  0
SECTION
  2
BLOCKS
  0
ENDSEC
  0
SECTION
  2
ENTITIES
  0
VIEWPORT
  8
VIEWPORTS
 67
1
 10
0.0
 20
0.0
 30
0.0
 40
1.0
 41
1.0
 68
1
 69
1
1001
ACAD
1000
MVIEW
1002
{
1070
16
1010
0.0
1020
0.0
1030
0.0
1010
0.0
1020
0.0
1030
0.0
1040
0.0
1040
1.0
1040
0.0
1040
0.0
1040
50.0
1040
0.0
1040
0.0
1070
0
1070
100
1070
1
1070
3
1070
0
1070
0
1070
0
1070
0
1040
0.0
1040
0.0
1040
0.0
1040
0.1
1040
0.1
1040
0.1
1040
0.1
1070
0
1002
{
1002
}
1002
}
  0
POLYLINE
  6
SOLID
 62
256
  8
up
 66
1
 10
0.0
 20
0.0
 30
0.0
 70
0
  0
VERTEX
  8
up
 10
0
 20
150
 30
0
  0
VERTEX
  8
up
 10
-3.453
 20
150
 30
0
  0
SEQEND
  0
POLYLINE
  6
SOLID
 62
256
  8
up
 66
1
 10
0.0
 20
0.0
 30
0.0
 70
0
  0
VERTEX
  8
up
 10
-5.15
 20
148.303
 30
0
  0
VERTEX
  8
up
 10
-5.15
 20
-12.5
 30
0
  0
VERTEX
  8
up
 10
-14.17
 20
-12.5
 30
0
  0
SEQEND
  0
POLYLINE
  6
SOLID
 62
256
  8
up
 66
1
 10
0.0
 20
0.0
 30
0.0
 70
0
  0
VERTEX
  8
up
 10
-28.398
 20
-24.207
 30
0
  0
VERTEX
  8
up
 10
-57.77
 20
-173.829
 30
0
  0
SEQEND
  0
POLYLINE
  6
SOLID
 62
256
  8
up
 66
1
 10
0.0
 20
0.0
 30
0.0
 70
0
  0
VERTEX
  8
up
 10
-59.193
 20
-175
 30
0
  0
VERTEX
  8
up
 10
-85.303
 20
-175
 30
0
  0
SEQEND
  0
POLYLINE
  6
SOLID
 62
256
  8
up
 66
1
 10
0.0
 20
0.0
 30
0.0
 70
0
  0
VERTEX
  8
up
 10
-87
 20
-176.697
 30
0
  0
VERTEX
  8
up
 10
-87
 20
-185.3
 30
0
  0
VERTEX
  8
up
 10
-116
 20
-185.3
 30
0
  0
VERTEX
  8
up
 10
-116
 20
-176.697
 30
0
  0
SEQEND
  0
POLYLINE
  6
SOLID
 62
256
  8
up
 66
1
 10
0.0
 20
0.0
 30
0.0
 70
0
  0
VERTEX
  8
up
 10
-117.697
 20
-175
 30
0
  0
VERTEX
  8
up
 10
-145
 20
-175
 30
0
  0
VERTEX
  8
up
 10
-91.718
 20
123.563
 30
0
  0
SEQEND
  0
POLYLINE
  6
SOLID
 62
256
  8
up
 66
1
 10
0.0
 20
0.0
 30
0.0
 70
0
  0
VERTEX
  8
up
 10
-94.38
 20
175.82
 30
0
  0
VERTEX
  8
up
 10
-130.5
 20
302.2
 30
0
  0
VERTEX
  8
up
 10
-88.697
 20
302.2
 30
0
  0
SEQEND
  0
POLYLINE
  6
SOLID
 62
256
  8
up
 66
1
 10
0.0
 20
0.0
 30
0.0
 70
0
  0
VERTEX
  8
up
 10
-87
 20
303.897
 30
0
  0
VERTEX
  8
up
 10
-87
 20
310.803
 30
0
  0
SEQEND
  0
POLYLINE
  6
SOLID
 62
256
  8
up
 66
1
 10
0.0
 20
0.0
 30
0.0
 70
0
  0
VERTEX
  8
up
 10
-88.697
 20
312.5
 30
0
  0
VERTEX
  8
up
 10
-130.5
 20
312.5
 30
0
  0
VERTEX
  8
up
 10
-164.229
 20
438.501
 30
0
  0
SEQEND
  0
POLYLINE
  6
SOLID
 62
256
  8
up
 66
1
 10
0.0
 20
0.0
 30
0.0
 70
0
  0
VERTEX
  8
up
 10
-136.216
 20
475
 30
0
  0
VERTEX
  8
up
 10
-133.369
 20
475
 30
0
  0
SEQEND
  0
POLYLINE
  6
SOLID
 62
256
  8
up
 66
1
 10
0.0
 20
0.0
 30
0.0
 70
0
  0
VERTEX
  8
up
 10
-107.802
 20
459.688
 30
0
  0
VERTEX
  8
up
 10
-33.099
 20
320.156
 30
0
  0
SEQEND
  0
POLYLINE
  6
SOLID
 62
256
  8
up
 66
1
 10
0.0
 20
0.0
 30
0.0
 70
0
  0
VERTEX
  8
up
 10
-20.316
 20
312.5
 30
0
  0
VERTEX
  8
up
 10
-5.15
 20
312.5
 30
0
  0
VERTEX
  8
up
 10
0
 20
312.5
 30
0
  0
VERTEX
  8
up
 10
5.15
 20
312.5
 30
0
  0
VERTEX
  8
up
 10
20.316
 20
312.5
 30
0
  0
SEQEND
  0
POLYLINE
  6
SOLID
 62
256
  8
up
 66
1
 10
0.0
 20
0.0
 30
0.0
 70
0
  0
VERTEX
  8
up
 10
33.099
 20
320.156
 30
0
  0
VERTEX
  8
up
 10
107.802
 20
459.688
 30
0
  0
SEQEND
  0
POLYLINE
  6
SOLID
 62
256
  8
up
 66
1
 10
0.0
 20
0.0
 30
0.0
 70
0
  0
VERTEX
  8
up
 10
133.369
 20
475
 30
0
  0
VERTEX
  8
up
 10
136.216
 20
475
 30
0
  0
SEQEND
  0
POLYLINE
  6
SOLID
 62
256
  8
up
 66
1
 10
0.0
 20
0.0
 30
0.0
 70
0
  0
VERTEX
  8
up
 10
164.229
 20
438.501
 30
0
  0
VERTEX
  8
up
 10
130.5
 20
312.5
 30
0
  0
VERTEX
  8
up
 10
88.697
 20
312.5
 30
0
  0
SEQEND
  0
POLYLINE
  6
SOLID
 62
256
  8
up
 66
1
 10
0.0
 20
0.0
 30
0.0
 70
0
  0
VERTEX
  8
up
 10
87
 20
310.803
 30
0
  0
VERTEX
  8
up
 10
87
 20
303.897
 30
0
  0
SEQEND
  0
POLYLINE
  6
SOLID
 62
256
  8
up
 66
1
 10
0.0
 20
0.0
 30
0.0
 70
0
  0
VERTEX
  8
up
 10
88.697
 20
302.2
 30
0
  0
VERTEX
  8
up
 10
130.5
 20
302.2
 30
0
  0
VERTEX
  8
up
 10
94.38
 20
175.82
 30
0
  0
SEQEND
  0
POLYLINE
  6
SOLID
 62
256
  8
up
 66
1
 10
0.0
 20
0.0
 30
0.0
 70
0
  0
VERTEX
  8
up
 10
91.718
 20
123.563
 30
0
  0
VERTEX
  8
up
 10
145
 20
-175
 30
0
  0
VERTEX
  8
up
 10
117.697
 20
-175
 30
0
  0
SEQEND
  0
POLYLINE
  6
SOLID
 62
256
  8
up
 66
1
 10
0.0
 20
0.0
 30
0.0
 70
0
  0
VERTEX
  8
up
 10
116
 20
-176.697
 30
0
  0
VERTEX
  8
up
 10
116
 20
-185.3
 30
0
  0
VERTEX
  8
up
 10
87
 20
-185.3
 30
0
  0
VERTEX
  8
up
 10
87
 20
-176.697
 30
0
  0
SEQEND
  0
POLYLINE
  6
SOLID
 62
256
  8
up
 66
1
 10
0.0
 20
0.0
 30
0.0
 70
0
  0
VERTEX
  8
up
 10
85.303
 20
-175
 30
0
  0
VERTEX
  8
up
 10
59.193
 20
-175
 30
0
  0
SEQEND
  0
POLYLINE
  6
SOLID
 62
256
  8
up
 66
1
 10
0.0
 20
0.0
 30
0.0
 70
0
  0
VERTEX
  8
up
 10
57.77
 20
-173.829
 30
0
  0
VERTEX
  8
up
 10
28.398
 20
-24.207
 30
0
  0
SEQEND
  0
POLYLINE
  6
SOLID
 62
256
  8
up
 66
1
 10
0.0
 20
0.0
 30
0.0
 70
0
  0
VERTEX
  8
up
 10
14.17
 20
-12.5
 30
0
  0
VERTEX
  8
up
 10
5.15
 20
-12.5
 30
0
  0
VERTEX
  8
up
 10
5.15
 20
148.303
 30
0
  0
SEQEND
  0
POLYLINE
  6
SOLID
 62
256
  8
up
 66
1
 10
0.0
 20
0.0
 30
0.0
 70
0
  0
VERTEX
  8
up
 10
3.453
 20
150
 30
0
  0
VERTEX
  8
up
 10
0
 20
150
 30
0
  0
SEQEND
  0
ARC
  8
up
 10
-4.301
 20
149.151
 30
0.0
 40
1.2
 50
45
 51
225
  0
ARC
  8
up
 10
-14.17
 20
-27
 30
0.0
 40
14.5
 50
90
 51
168.894
  0
ARC
  8
up
 10
-59.193
 20
-173.55
 30
0.0
 40
1.45
 50
270
 51
348.894
  0
ARC
  8
up
 10
-86.151
 20
-175.849
 30
0.0
 40
1.2
 50
45
 51
225
  0
ARC
  8
up
 10
-116.849
 20
-175.849
 30
0.0
 40
1.2
 50
315
 51
135
  0
ARC
  8
up
 10
-205.914
 20
143.943
 30
0.0
 40
116
 50
349.881
 51
15.95
  0
ARC
  8
up
 10
-87.849
 20
303.049
 30
0.0
 40
1.2
 50
225
 51
45
  0
ARC
  8
up
 10
-87.849
 20
311.651
 30
0.0
 40
1.2
 50
315
 51
135
  0
ARC
  8
up
 10
-136.216
 20
446
 30
0.0
 40
29
 50
90
 51
194.986
  0
ARC
  8
up
 10
-133.369
 20
446
 30
0.0
 40
29
 50
28.164
 51
90
  0
ARC
  8
up
 10
-20.316
 20
327
 30
0.0
 40
14.5
 50
208.164
 51
270
  0
ARC
  8
up
 10
20.316
 20
327
 30
0.0
 40
14.5
 50
270
 51
331.836
  0
ARC
  8
up
 10
133.369
 20
446
 30
0.0
 40
29
 50
90
 51
151.836
  0
ARC
  8
up
 10
136.216
 20
446
 30
0.0
 40
29
 50
345.014
 51
90
  0
ARC
  8
up
 10
87.849
 20
311.651
 30
0.0
 40
1.2
 50
45
 51
225
  0
ARC
  8
up
 10
87.849
 20
303.049
 30
0.0
 40
1.2
 50
135
 51
315
  0
ARC
  8
up
 10
205.914
 20
143.943
 30
0.0
 40
116
 50
164.05
 51
190.119
  0
ARC
  8
up
 10
116.849
 20
-175.849
 30
0.0
 40
1.2
 50
45
 51
225
  0
ARC
  8
up
 10
86.151
 20
-175.849
 30
0.0
 40
1.2
 50
315
 51
135
  0
ARC
  8
up
 10
59.193
 20
-173.55
 30
0.0
 40
1.45
 50
191.106
 51
270
  0
ARC
  8
up
 10
14.17
 20
-27
 30
0.0
 40
14.5
 50
11.106
 51
90
  0
ARC
  8
up
 10
4.301
 20
149.151
 30
0.0
 40
1.2
 50
315
 51
135
  0
POLYLINE
  6
SOLID
 62
256
  8
down
 66
1
 10
0.0
 20
0.0
 30
0.0
 70
0
  0
VERTEX
  8
down
 10
580
 20
-12.5
 30
0
  0
VERTEX
  8
down
 10
574.85
 20
-12.5
 30
0
  0
VERTEX
  8
down
 10
565.83
 20
-12.5
 30
0
  0
SEQEND
  0
POLYLINE
  6
SOLID
 62
256
  8
down
 66
1
 10
0.0
 20
0.0
 30
0.0
 70
0
  0
VERTEX
  8
down
 10
551.602
 20
-24.207
 30
0
  0
VERTEX
  8
down
 10
522.23
 20
-173.829
 30
0
  0
SEQEND
  0
POLYLINE
  6
SOLID
 62
256
  8
down
 66
1
 10
0.0
 20
0.0
 30
0.0
 70
0
  0
VERTEX
  8
down
 10
520.807
 20
-175
 30
0
  0
VERTEX
  8
down
 10
494.697
 20
-175
 30
0
  0
SEQEND
  0
POLYLINE
  6
SOLID
 62
256
  8
down
 66
1
 10
0.0
 20
0.0
 30
0.0
 70
0
  0
VERTEX
  8
down
 10
493
 20
-176.697
 30
0
  0
VERTEX
  8
down
 10
493
 20
-185.3
 30
0
  0
VERTEX
  8
down
 10
464
 20
-185.3
 30
0
  0
VERTEX
  8
down
 10
464
 20
-176.697
 30
0
  0
SEQEND
  0
POLYLINE
  6
SOLID
 62
256
  8
down
 66
1
 10
0.0
 20
0.0
 30
0.0
 70
0
  0
VERTEX
  8
down
 10
462.303
 20
-175
 30
0
  0
VERTEX
  8
down
 10
435
 20
-175
 30
0
  0
VERTEX
  8
down
 10
488.462
 20
124.574
 30
0
  0
SEQEND
  0
POLYLINE
  6
SOLID
 62
256
  8
down
 66
1
 10
0.0
 20
0.0
 30
0.0
 70
0
  0
VERTEX
  8
down
 10
486.321
 20
174.949
 30
0
  0
VERTEX
  8
down
 10
449.5
 20
312.5
 30
0
  0
VERTEX
  8
down
 10
415.771
 20
438.501
 30
0
  0
SEQEND
  0
POLYLINE
  6
SOLID
 62
256
  8
down
 66
1
 10
0.0
 20
0.0
 30
0.0
 70
0
  0
VERTEX
  8
down
 10
443.784
 20
475
 30
0
  0
VERTEX
  8
down
 10
446.631
 20
475
 30
0
  0
SEQEND
  0
POLYLINE
  6
SOLID
 62
256
  8
down
 66
1
 10
0.0
 20
0.0
 30
0.0
 70
0
  0
VERTEX
  8
down
 10
472.198
 20
459.688
 30
0
  0
VERTEX
  8
down
 10
546.901
 20
320.156
 30
0
  0
SEQEND
  0
POLYLINE
  6
SOLID
 62
256
  8
down
 66
1
 10
0.0
 20
0.0
 30
0.0
 70
0
  0
VERTEX
  8
down
 10
559.684
 20
312.5
 30
0
  0
VERTEX
  8
down
 10
574.85
 20
312.5
 30
0
  0
VERTEX
  8
down
 10
574.85
 20
151.697
 30
0
  0
SEQEND
  0
POLYLINE
  6
SOLID
 62
256
  8
down
 66
1
 10
0.0
 20
0.0
 30
0.0
 70
0
  0
VERTEX
  8
down
 10
576.547
 20
150
 30
0
  0
VERTEX
  8
down
 10
580
 20
150
 30
0
  0
VERTEX
  8
down
 10
583.453
 20
150
 30
0
  0
SEQEND
  0
POLYLINE
  6
SOLID
 62
256
  8
down
 66
1
 10
0.0
 20
0.0
 30
0.0
 70
0
  0
VERTEX
  8
down
 10
585.15
 20
151.697
 30
0
  0
VERTEX
  8
down
 10
585.15
 20
312.5
 30
0
  0
VERTEX
  8
down
 10
600.316
 20
312.5
 30
0
  0
SEQEND
  0
POLYLINE
  6
SOLID
 62
256
  8
down
 66
1
 10
0.0
 20
0.0
 30
0.0
 70
0
  0
VERTEX
  8
down
 10
613.099
 20
320.156
 30
0
  0
VERTEX
  8
down
 10
687.802
 20
459.688
 30
0
  0
SEQEND
  0
POLYLINE
  6
SOLID
 62
256
  8
down
 66
1
 10
0.0
 20
0.0
 30
0.0
 70
0
  0
VERTEX
  8
down
 10
713.369
 20
475
 30
0
  0
VERTEX
  8
down
 10
716.216
 20
475
 30
0
  0
SEQEND
  0
POLYLINE
  6
SOLID
 62
256
  8
down
 66
1
 10
0.0
 20
0.0
 30
0.0
 70
0
  0
VERTEX
  8
down
 10
744.229
 20
438.501
 30
0
  0
VERTEX
  8
down
 10
710.5
 20
312.5
 30
0
  0
VERTEX
  8
down
 10
673.679
 20
174.949
 30
0
  0
SEQEND
  0
POLYLINE
  6
SOLID
 62
256
  8
down
 66
1
 10
0.0
 20
0.0
 30
0.0
 70
0
  0
VERTEX
  8
down
 10
671.538
 20
124.574
 30
0
  0
VERTEX
  8
down
 10
725
 20
-175
 30
0
  0
VERTEX
  8
down
 10
697.697
 20
-175
 30
0
  0
SEQEND
  0
POLYLINE
  6
SOLID
 62
256
  8
down
 66
1
 10
0.0
 20
0.0
 30
0.0
 70
0
  0
VERTEX
  8
down
 10
696
 20
-176.697
 30
0
  0
VERTEX
  8
down
 10
696
 20
-185.3
 30
0
  0
VERTEX
  8
down
 10
667
 20
-185.3
 30
0
  0
VERTEX
  8
down
 10
667
 20
-176.697
 30
0
  0
SEQEND
  0
POLYLINE
  6
SOLID
 62
256
  8
down
 66
1
 10
0.0
 20
0.0
 30
0.0
 70
0
  0
VERTEX
  8
down
 10
665.303
 20
-175
 30
0
  0
VERTEX
  8
down
 10
639.193
 20
-175
 30
0
  0
SEQEND
  0
POLYLINE
  6
SOLID
 62
256
  8
down
 66
1
 10
0.0
 20
0.0
 30
0.0
 70
0
  0
VERTEX
  8
down
 10
637.77
 20
-173.829
 30
0
  0
VERTEX
  8
down
 10
608.398
 20
-24.207
 30
0
  0
SEQEND
  0
POLYLINE
  6
SOLID
 62
256
  8
down
 66
1
 10
0.0
 20
0.0
 30
0.0
 70
0
  0
VERTEX
  8
down
 10
594.17
 20
-12.5
 30
0
  0
VERTEX
  8
down
 10
585.15
 20
-12.5
 30
0
  0
VERTEX
  8
down
 10
580
 20
-12.5
 30
0
  0
SEQEND
  0
POLYLINE
  6
SOLID
 62
256
  8
down
 66
1
 10
0.0
 20
0.0
 30
0.0
 70
0
  0
VERTEX
  8
down
 10
658.3
 20
312.5
 30
0
  0
VERTEX
  8
down
 10
678.353
 20
312.5
 30
0
  0
SEQEND
  0
POLYLINE
  6
SOLID
 62
256
  8
down
 66
1
 10
0.0
 20
0.0
 30
0.0
 70
0
  0
VERTEX
  8
down
 10
680.05
 20
310.803
 30
0
  0
VERTEX
  8
down
 10
680.05
 20
303.897
 30
0
  0
SEQEND
  0
POLYLINE
  6
SOLID
 62
256
  8
down
 66
1
 10
0.0
 20
0.0
 30
0.0
 70
0
  0
VERTEX
  8
down
 10
678.353
 20
302.2
 30
0
  0
VERTEX
  8
down
 10
638.247
 20
302.2
 30
0
  0
SEQEND
  0
POLYLINE
  6
SOLID
 62
256
  8
down
 66
1
 10
0.0
 20
0.0
 30
0.0
 70
0
  0
VERTEX
  8
down
 10
636.55
 20
303.897
 30
0
  0
VERTEX
  8
down
 10
636.55
 20
310.803
 30
0
  0
SEQEND
  0
POLYLINE
  6
SOLID
 62
256
  8
down
 66
1
 10
0.0
 20
0.0
 30
0.0
 70
0
  0
VERTEX
  8
down
 10
638.247
 20
312.5
 30
0
  0
VERTEX
  8
down
 10
658.3
 20
312.5
 30
0
  0
SEQEND
  0
POLYLINE
  6
SOLID
 62
256
  8
down
 66
1
 10
0.0
 20
0.0
 30
0.0
 70
0
  0
VERTEX
  8
down
 10
501.7
 20
312.5
 30
0
  0
VERTEX
  8
down
 10
521.753
 20
312.5
 30
0
  0
SEQEND
  0
POLYLINE
  6
SOLID
 62
256
  8
down
 66
1
 10
0.0
 20
0.0
 30
0.0
 70
0
  0
VERTEX
  8
down
 10
523.45
 20
310.803
 30
0
  0
VERTEX
  8
down
 10
523.45
 20
303.897
 30
0
  0
SEQEND
  0
POLYLINE
  6
SOLID
 62
256
  8
down
 66
1
 10
0.0
 20
0.0
 30
0.0
 70
0
  0
VERTEX
  8
down
 10
521.753
 20
302.2
 30
0
  0
VERTEX
  8
down
 10
481.647
 20
302.2
 30
0
  0
SEQEND
  0
POLYLINE
  6
SOLID
 62
256
  8
down
 66
1
 10
0.0
 20
0.0
 30
0.0
 70
0
  0
VERTEX
  8
down
 10
479.95
 20
303.897
 30
0
  0
VERTEX
  8
down
 10
479.95
 20
310.803
 30
0
  0
SEQEND
  0
POLYLINE
  6
SOLID
 62
256
  8
down
 66
1
 10
0.0
 20
0.0
 30
0.0
 70
0
  0
VERTEX
  8
down
 10
481.647
 20
312.5
 30
0
  0
VERTEX
  8
down
 10
501.7
 20
312.5
 30
0
  0
SEQEND
  0
ARC
  8
down
 10
565.83
 20
-27
 30
0.0
 40
14.5
 50
90
 51
168.894
  0
ARC
  8
down
 10
520.807
 20
-173.55
 30
0.0
 40
1.45
 50
270
 51
348.894
  0
ARC
  8
down
 10
493.849
 20
-175.849
 30
0.0
 40
1.2
 50
45
 51
225
  0
ARC
  8
down
 10
463.151
 20
-175.849
 30
0.0
 40
1.2
 50
315
 51
135
  0
ARC
  8
down
 10
374.267
 20
144.953
 30
0.0
 40
116
 50
349.881
 51
14.986
  0
ARC
  8
down
 10
443.784
 20
446
 30
0.0
 40
29
 50
90
 51
194.986
  0
ARC
  8
down
 10
446.631
 20
446
 30
0.0
 40
29
 50
28.164
 51
90
  0
ARC
  8
down
 10
559.684
 20
327
 30
0.0
 40
14.5
 50
208.164
 51
270
  0
ARC
  8
down
 10
575.699
 20
150.849
 30
0.0
 40
1.2
 50
135
 51
315
  0
ARC
  8
down
 10
584.301
 20
150.849
 30
0.0
 40
1.2
 50
225
 51
45
  0
ARC
  8
down
 10
600.316
 20
327
 30
0.0
 40
14.5
 50
270
 51
331.836
  0
ARC
  8
down
 10
713.369
 20
446
 30
0.0
 40
29
 50
90
 51
151.836
  0
ARC
  8
down
 10
716.216
 20
446
 30
0.0
 40
29
 50
345.014
 51
90
  0
ARC
  8
down
 10
785.733
 20
144.953
 30
0.0
 40
116
 50
165.014
 51
190.119
  0
ARC
  8
down
 10
696.849
 20
-175.849
 30
0.0
 40
1.2
 50
45
 51
225
  0
ARC
  8
down
 10
666.151
 20
-175.849
 30
0.0
 40
1.2
 50
315
 51
135
  0
ARC
  8
down
 10
639.193
 20
-173.55
 30
0.0
 40
1.45
 50
191.106
 51
270
  0
ARC
  8
down
 10
594.17
 20
-27
 30
0.0
 40
14.5
 50
11.106
 51
90
  0
ARC
  8
down
 10
679.201
 20
311.651
 30
0.0
 40
1.2
 50
315
 51
135
  0
ARC
  8
down
 10
679.201
 20
303.049
 30
0.0
 40
1.2
 50
225
 51
45
  0
ARC
  8
down
 10
637.399
 20
303.049
 30
0.0
 40
1.2
 50
135
 51
315
  0
ARC
  8
down
 10
637.399
 20
311.651
 30
0.0
 40
1.2
 50
45
 51
225
  0
ARC
  8
down
 10
522.601
 20
311.651
 30
0.0
 40
1.2
 50
315
 51
135
  0
ARC
  8
down
 10
522.601
 20
303.049
 30
0.0
 40
1.2
 50
225
 51
45
  0
ARC
  8
down
 10
480.799
 20
303.049
 30
0.0
 40
1.2
 50
135
 51
315
  0
ARC
  8
down
 10
480.799
 20
311.651
 30
0.0
 40
1.2
 50
45
 51
225
  0
POLYLINE
  6
SOLID
 62
256
  8
seat
 66
1
 10
0.0
 20
0.0
 30
0.0
 70
0
  0
VERTEX
  8
seat
 10
377
 20
150
 30
0
  0
VERTEX
  8
seat
 10
377
 20
153.453
 30
0
  0
SEQEND
  0
POLYLINE
  6
SOLID
 62
256
  8
seat
 66
1
 10
0.0
 20
0.0
 30
0.0
 70
0
  0
VERTEX
  8
seat
 10
378.697
 20
155.15
 30
0
  0
VERTEX
  8
seat
 10
404.303
 20
155.15
 30
0
  0
SEQEND
  0
POLYLINE
  6
SOLID
 62
256
  8
seat
 66
1
 10
0.0
 20
0.0
 30
0.0
 70
0
  0
VERTEX
  8
seat
 10
406
 20
153.453
 30
0
  0
VERTEX
  8
seat
 10
406
 20
146.547
 30
0
  0
SEQEND
  0
POLYLINE
  6
SOLID
 62
256
  8
seat
 66
1
 10
0.0
 20
0.0
 30
0.0
 70
0
  0
VERTEX
  8
seat
 10
404.303
 20
144.85
 30
0
  0
VERTEX
  8
seat
 10
378.697
 20
144.85
 30
0
  0
SEQEND
  0
POLYLINE
  6
SOLID
 62
256
  8
seat
 66
1
 10
0.0
 20
0.0
 30
0.0
 70
0
  0
VERTEX
  8
seat
 10
377
 20
146.547
 30
0
  0
VERTEX
  8
seat
 10
377
 20
150
 30
0
  0
SEQEND
  0
POLYLINE
  6
SOLID
 62
256
  8
seat
 66
1
 10
0.0
 20
0.0
 30
0.0
 70
0
  0
VERTEX
  8
seat
 10
290
 20
237
 30
0
  0
VERTEX
  8
seat
 10
286.547
 20
237
 30
0
  0
SEQEND
  0
POLYLINE
  6
SOLID
 62
256
  8
seat
 66
1
 10
0.0
 20
0.0
 30
0.0
 70
0
  0
VERTEX
  8
seat
 10
284.85
 20
238.697
 30
0
  0
VERTEX
  8
seat
 10
284.85
 20
264.303
 30
0
  0
SEQEND
  0
POLYLINE
  6
SOLID
 62
256
  8
seat
 66
1
 10
0.0
 20
0.0
 30
0.0
 70
0
  0
VERTEX
  8
seat
 10
286.547
 20
266
 30
0
  0
VERTEX
  8
seat
 10
293.453
 20
266
 30
0
  0
SEQEND
  0
POLYLINE
  6
SOLID
 62
256
  8
seat
 66
1
 10
0.0
 20
0.0
 30
0.0
 70
0
  0
VERTEX
  8
seat
 10
295.15
 20
264.303
 30
0
  0
VERTEX
  8
seat
 10
295.15
 20
238.697
 30
0
  0
SEQEND
  0
POLYLINE
  6
SOLID
 62
256
  8
seat
 66
1
 10
0.0
 20
0.0
 30
0.0
 70
0
  0
VERTEX
  8
seat
 10
293.453
 20
237
 30
0
  0
VERTEX
  8
seat
 10
290
 20
237
 30
0
  0
SEQEND
  0
POLYLINE
  6
SOLID
 62
256
  8
seat
 66
1
 10
0.0
 20
0.0
 30
0.0
 70
0
  0
VERTEX
  8
seat
 10
203
 20
150
 30
0
  0
VERTEX
  8
seat
 10
203
 20
146.547
 30
0
  0
SEQEND
  0
POLYLINE
  6
SOLID
 62
256
  8
seat
 66
1
 10
0.0
 20
0.0
 30
0.0
 70
0
  0
VERTEX
  8
seat
 10
201.303
 20
144.85
 30
0
  0
VERTEX
  8
seat
 10
175.697
 20
144.85
 30
0
  0
SEQEND
  0
POLYLINE
  6
SOLID
 62
256
  8
seat
 66
1
 10
0.0
 20
0.0
 30
0.0
 70
0
  0
VERTEX
  8
seat
 10
174
 20
146.547
 30
0
  0
VERTEX
  8
seat
 10
174
 20
153.453
 30
0
  0
SEQEND
  0
POLYLINE
  6
SOLID
 62
256
  8
seat
 66
1
 10
0.0
 20
0.0
 30
0.0
 70
0
  0
VERTEX
  8
seat
 10
175.697
 20
155.15
 30
0
  0
VERTEX
  8
seat
 10
201.303
 20
155.15
 30
0
  0
SEQEND
  0
POLYLINE
  6
SOLID
 62
256
  8
seat
 66
1
 10
0.0
 20
0.0
 30
0.0
 70
0
  0
VERTEX
  8
seat
 10
203
 20
153.453
 30
0
  0
VERTEX
  8
seat
 10
203
 20
150
 30
0
  0
SEQEND
  0
POLYLINE
  6
SOLID
 62
256
  8
seat
 66
1
 10
0.0
 20
0.0
 30
0.0
 70
0
  0
VERTEX
  8
seat
 10
290
 20
63
 30
0
  0
VERTEX
  8
seat
 10
293.453
 20
63
 30
0
  0
SEQEND
  0
POLYLINE
  6
SOLID
 62
256
  8
seat
 66
1
 10
0.0
 20
0.0
 30
0.0
 70
0
  0
VERTEX
  8
seat
 10
295.15
 20
61.303
 30
0
  0
VERTEX
  8
seat
 10
295.15
 20
35.697
 30
0
  0
SEQEND
  0
POLYLINE
  6
SOLID
 62
256
  8
seat
 66
1
 10
0.0
 20
0.0
 30
0.0
 70
0
  0
VERTEX
  8
seat
 10
293.453
 20
34
 30
0
  0
VERTEX
  8
seat
 10
286.547
 20
34
 30
0
  0
SEQEND
  0
POLYLINE
  6
SOLID
 62
256
  8
seat
 66
1
 10
0.0
 20
0.0
 30
0.0
 70
0
  0
VERTEX
  8
seat
 10
284.85
 20
35.697
 30
0
  0
VERTEX
  8
seat
 10
284.85
 20
61.303
 30
0
  0
SEQEND
  0
POLYLINE
  6
SOLID
 62
256
  8
seat
 66
1
 10
0.0
 20
0.0
 30
0.0
 70
0
  0
VERTEX
  8
seat
 10
286.547
 20
63
 30
0
  0
VERTEX
  8
seat
 10
290
 20
63
 30
0
  0
SEQEND
  0
POLYLINE
  6
SOLID
 62
256
  8
seat
 66
1
 10
0.0
 20
0.0
 30
0.0
 70
0
  0
VERTEX
  8
seat
 10
290
 20
150
 30
0
  0
SEQEND
  0
ARC
  8
seat
 10
377.849
 20
154.301
 30
0.0
 40
1.2
 50
45
 51
225
  0
ARC
  8
seat
 10
405.151
 20
154.301
 30
0.0
 40
1.2
 50
315
 51
135
  0
ARC
  8
seat
 10
405.151
 20
145.699
 30
0.0
 40
1.2
 50
225
 51
45
  0
ARC
  8
seat
 10
377.849
 20
145.699
 30
0.0
 40
1.2
 50
135
 51
315
  0
ARC
  8
seat
 10
285.699
 20
237.849
 30
0.0
 40
1.2
 50
135
 51
315
  0
ARC
  8
seat
 10
285.699
 20
265.151
 30
0.0
 40
1.2
 50
45
 51
225
  0
ARC
  8
seat
 10
294.301
 20
265.151
 30
0.0
 40
1.2
 50
315
 51
135
  0
ARC
  8
seat
 10
294.301
 20
237.849
 30
0.0
 40
1.2
 50
225
 51
45
  0
ARC
  8
seat
 10
202.151
 20
145.699
 30
0.0
 40
1.2
 50
225
 51
45
  0
ARC
  8
seat
 10
174.849
 20
145.699
 30
0.0
 40
1.2
 50
135
 51
315
  0
ARC
  8
seat
 10
174.849
 20
154.301
 30
0.0
 40
1.2
 50
45
 51
225
  0
ARC
  8
seat
 10
202.151
 20
154.301
 30
0.0
 40
1.2
 50
315
 51
135
  0
ARC
  8
seat
 10
294.301
 20
62.151
 30
0.0
 40
1.2
 50
315
 51
135
  0
ARC
  8
seat
 10
294.301
 20
34.849
 30
0.0
 40
1.2
 50
225
 51
45
  0
ARC
  8
seat
 10
285.699
 20
34.849
 30
0.0
 40
1.2
 50
135
 51
315
  0
ARC
  8
seat
 10
285.699
 20
62.151
 30
0.0
 40
1.2
 50
45
 51
225
  0
CIRCLE
  8
seat
 10
290
 20
150
 30
0.0
 40
145
  0
POLYLINE
  6
SOLID
 62
256
  8
footbar
 66
1
 10
0.0
 20
0.0
 30
0.0
 70
0
  0
VERTEX
  8
footbar
 10
-124.4
 20
130
 30
0
  0
VERTEX
  8
footbar
 10
-124.4
 20
112.315
 30
0
  0
SEQEND
  0
POLYLINE
  6
SOLID
 62
256
  8
footbar
 66
1
 10
0.0
 20
0.0
 30
0.0
 70
0
  0
VERTEX
  8
footbar
 10
-237.215
 20
-0.5
 30
0
  0
VERTEX
  8
footbar
 10
-249.75
 20
-0.5
 30
0
  0
VERTEX
  8
footbar
 10
-249.75
 20
28.253
 30
0
  0
SEQEND
  0
POLYLINE
  6
SOLID
 62
256
  8
footbar
 66
1
 10
0.0
 20
0.0
 30
0.0
 70
0
  0
VERTEX
  8
footbar
 10
-251.447
 20
29.95
 30
0
  0
VERTEX
  8
footbar
 10
-270.925
 20
29.95
 30
0
  0
SEQEND
  0
POLYLINE
  6
SOLID
 62
256
  8
footbar
 66
1
 10
0.0
 20
0.0
 30
0.0
 70
0
  0
VERTEX
  8
footbar
 10
-281.8
 20
40.825
 30
0
  0
VERTEX
  8
footbar
 10
-281.8
 20
40.825
 30
0
  0
VERTEX
  8
footbar
 10
-281.8
 20
40.825
 30
0
  0
SEQEND
  0
POLYLINE
  6
SOLID
 62
256
  8
footbar
 66
1
 10
0.0
 20
0.0
 30
0.0
 70
0
  0
VERTEX
  8
footbar
 10
-270.925
 20
51.7
 30
0
  0
VERTEX
  8
footbar
 10
-238.875
 20
51.7
 30
0
  0
SEQEND
  0
POLYLINE
  6
SOLID
 62
256
  8
footbar
 66
1
 10
0.0
 20
0.0
 30
0.0
 70
0
  0
VERTEX
  8
footbar
 10
-228
 20
62.575
 30
0
  0
VERTEX
  8
footbar
 10
-228
 20
62.575
 30
0
  0
VERTEX
  8
footbar
 10
-228
 20
62.575
 30
0
  0
SEQEND
  0
POLYLINE
  6
SOLID
 62
256
  8
footbar
 66
1
 10
0.0
 20
0.0
 30
0.0
 70
0
  0
VERTEX
  8
footbar
 10
-238.875
 20
73.45
 30
0
  0
VERTEX
  8
footbar
 10
-249.75
 20
73.45
 30
0
  0
VERTEX
  8
footbar
 10
-249.75
 20
124.85
 30
0
  0
VERTEX
  8
footbar
 10
-169.597
 20
124.85
 30
0
  0
SEQEND
  0
POLYLINE
  6
SOLID
 62
256
  8
footbar
 66
1
 10
0.0
 20
0.0
 30
0.0
 70
0
  0
VERTEX
  8
footbar
 10
-167.9
 20
126.547
 30
0
  0
VERTEX
  8
footbar
 10
-167.9
 20
133.453
 30
0
  0
SEQEND
  0
POLYLINE
  6
SOLID
 62
256
  8
footbar
 66
1
 10
0.0
 20
0.0
 30
0.0
 70
0
  0
VERTEX
  8
footbar
 10
-169.597
 20
135.15
 30
0
  0
VERTEX
  8
footbar
 10
-249.75
 20
135.15
 30
0
  0
VERTEX
  8
footbar
 10
-249.75
 20
184.853
 30
0
  0
SEQEND
  0
POLYLINE
  6
SOLID
 62
256
  8
footbar
 66
1
 10
0.0
 20
0.0
 30
0.0
 70
0
  0
VERTEX
  8
footbar
 10
-251.447
 20
186.55
 30
0
  0
VERTEX
  8
footbar
 10
-270.925
 20
186.55
 30
0
  0
SEQEND
  0
POLYLINE
  6
SOLID
 62
256
  8
footbar
 66
1
 10
0.0
 20
0.0
 30
0.0
 70
0
  0
VERTEX
  8
footbar
 10
-281.8
 20
197.425
 30
0
  0
VERTEX
  8
footbar
 10
-281.8
 20
197.425
 30
0
  0
VERTEX
  8
footbar
 10
-281.8
 20
197.425
 30
0
  0
SEQEND
  0
POLYLINE
  6
SOLID
 62
256
  8
footbar
 66
1
 10
0.0
 20
0.0
 30
0.0
 70
0
  0
VERTEX
  8
footbar
 10
-270.925
 20
208.3
 30
0
  0
VERTEX
  8
footbar
 10
-238.875
 20
208.3
 30
0
  0
SEQEND
  0
POLYLINE
  6
SOLID
 62
256
  8
footbar
 66
1
 10
0.0
 20
0.0
 30
0.0
 70
0
  0
VERTEX
  8
footbar
 10
-228
 20
219.175
 30
0
  0
VERTEX
  8
footbar
 10
-228
 20
219.175
 30
0
  0
VERTEX
  8
footbar
 10
-228
 20
219.175
 30
0
  0
SEQEND
  0
POLYLINE
  6
SOLID
 62
256
  8
footbar
 66
1
 10
0.0
 20
0.0
 30
0.0
 70
0
  0
VERTEX
  8
footbar
 10
-238.875
 20
230.05
 30
0
  0
VERTEX
  8
footbar
 10
-249.75
 20
230.05
 30
0
  0
VERTEX
  8
footbar
 10
-249.75
 20
260.5
 30
0
  0
VERTEX
  8
footbar
 10
-237.215
 20
260.5
 30
0
  0
SEQEND
  0
POLYLINE
  6
SOLID
 62
256
  8
footbar
 66
1
 10
0.0
 20
0.0
 30
0.0
 70
0
  0
VERTEX
  8
footbar
 10
-124.4
 20
147.685
 30
0
  0
VERTEX
  8
footbar
 10
-124.4
 20
130
 30
0
  0
SEQEND
  0
ARC
  8
footbar
 10
-237.215
 20
112.315
 30
0.0
 40
112.815
 50
270
 51
0
  0
ARC
  8
footbar
 10
-250.599
 20
29.101
 30
0.0
 40
1.2
 50
315
 51
135
  0
ARC
  8
footbar
 10
-270.925
 20
40.825
 30
0.0
 40
10.875
 50
180
 51
270
  0
ARC
  8
footbar
 10
-270.925
 20
40.825
 30
0.0
 40
10.875
 50
90
 51
180
  0
ARC
  8
footbar
 10
-238.875
 20
62.575
 30
0.0
 40
10.875
 50
270
 51
0
  0
ARC
  8
footbar
 10
-238.875
 20
62.575
 30
0.0
 40
10.875
 50
0
 51
90
  0
ARC
  8
footbar
 10
-168.749
 20
125.699
 30
0.0
 40
1.2
 50
225
 51
45
  0
ARC
  8
footbar
 10
-168.749
 20
134.301
 30
0.0
 40
1.2
 50
315
 51
135
  0
ARC
  8
footbar
 10
-250.599
 20
185.701
 30
0.0
 40
1.2
 50
315
 51
135
  0
ARC
  8
footbar
 10
-270.925
 20
197.425
 30
0.0
 40
10.875
 50
180
 51
270
  0
ARC
  8
footbar
 10
-270.925
 20
197.425
 30
0.0
 40
10.875
 50
90
 51
180
  0
ARC
  8
footbar
 10
-238.875
 20
219.175
 30
0.0
 40
10.875
 50
270
 51
0
  0
ARC
  8
footbar
 10
-238.875
 20
219.175
 30
0.0
 40
10.875
 50
0
 51
90
  0
ARC
  8
footbar
 10
-237.215
 20
147.685
 30
0.0
 40
112.815
 50
0
 51
90
  0
POLYLINE
  6
SOLID
 62
256
  8
footbar
 66
1
 10
0.0
 20
0.0
 30
0.0
 70
0
  0
VERTEX
  8
footbar
 10
673.1
 20
130
 30
0
  0
VERTEX
  8
footbar
 10
673.1
 20
147.685
 30
0
  0
SEQEND
  0
POLYLINE
  6
SOLID
 62
256
  8
footbar
 66
1
 10
0.0
 20
0.0
 30
0.0
 70
0
  0
VERTEX
  8
footbar
 10
785.915
 20
260.5
 30
0
  0
VERTEX
  8
footbar
 10
798.45
 20
260.5
 30
0
  0
VERTEX
  8
footbar
 10
798.45
 20
231.747
 30
0
  0
SEQEND
  0
POLYLINE
  6
SOLID
 62
256
  8
footbar
 66
1
 10
0.0
 20
0.0
 30
0.0
 70
0
  0
VERTEX
  8
footbar
 10
800.147
 20
230.05
 30
0
  0
VERTEX
  8
footbar
 10
819.625
 20
230.05
 30
0
  0
SEQEND
  0
POLYLINE
  6
SOLID
 62
256
  8
footbar
 66
1
 10
0.0
 20
0.0
 30
0.0
 70
0
  0
VERTEX
  8
footbar
 10
830.5
 20
219.175
 30
0
  0
VERTEX
  8
footbar
 10
830.5
 20
219.175
 30
0
  0
VERTEX
  8
footbar
 10
830.5
 20
219.175
 30
0
  0
SEQEND
  0
POLYLINE
  6
SOLID
 62
256
  8
footbar
 66
1
 10
0.0
 20
0.0
 30
0.0
 70
0
  0
VERTEX
  8
footbar
 10
819.625
 20
208.3
 30
0
  0
VERTEX
  8
footbar
 10
787.575
 20
208.3
 30
0
  0
SEQEND
  0
POLYLINE
  6
SOLID
 62
256
  8
footbar
 66
1
 10
0.0
 20
0.0
 30
0.0
 70
0
  0
VERTEX
  8
footbar
 10
776.7
 20
197.425
 30
0
  0
VERTEX
  8
footbar
 10
776.7
 20
197.425
 30
0
  0
VERTEX
  8
footbar
 10
776.7
 20
197.425
 30
0
  0
SEQEND
  0
POLYLINE
  6
SOLID
 62
256
  8
footbar
 66
1
 10
0.0
 20
0.0
 30
0.0
 70
0
  0
VERTEX
  8
footbar
 10
787.575
 20
186.55
 30
0
  0
VERTEX
  8
footbar
 10
798.45
 20
186.55
 30
0
  0
VERTEX
  8
footbar
 10
798.45
 20
135.15
 30
0
  0
VERTEX
  8
footbar
 10
718.297
 20
135.15
 30
0
  0
SEQEND
  0
POLYLINE
  6
SOLID
 62
256
  8
footbar
 66
1
 10
0.0
 20
0.0
 30
0.0
 70
0
  0
VERTEX
  8
footbar
 10
716.6
 20
133.453
 30
0
  0
VERTEX
  8
footbar
 10
716.6
 20
126.547
 30
0
  0
SEQEND
  0
POLYLINE
  6
SOLID
 62
256
  8
footbar
 66
1
 10
0.0
 20
0.0
 30
0.0
 70
0
  0
VERTEX
  8
footbar
 10
718.297
 20
124.85
 30
0
  0
VERTEX
  8
footbar
 10
798.45
 20
124.85
 30
0
  0
VERTEX
  8
footbar
 10
798.45
 20
75.147
 30
0
  0
SEQEND
  0
POLYLINE
  6
SOLID
 62
256
  8
footbar
 66
1
 10
0.0
 20
0.0
 30
0.0
 70
0
  0
VERTEX
  8
footbar
 10
800.147
 20
73.45
 30
0
  0
VERTEX
  8
footbar
 10
819.625
 20
73.45
 30
0
  0
SEQEND
  0
POLYLINE
  6
SOLID
 62
256
  8
footbar
 66
1
 10
0.0
 20
0.0
 30
0.0
 70
0
  0
VERTEX
  8
footbar
 10
830.5
 20
62.575
 30
0
  0
VERTEX
  8
footbar
 10
830.5
 20
62.575
 30
0
  0
VERTEX
  8
footbar
 10
830.5
 20
62.575
 30
0
  0
SEQEND
  0
POLYLINE
  6
SOLID
 62
256
  8
footbar
 66
1
 10
0.0
 20
0.0
 30
0.0
 70
0
  0
VERTEX
  8
footbar
 10
819.625
 20
51.7
 30
0
  0
VERTEX
  8
footbar
 10
787.575
 20
51.7
 30
0
  0
SEQEND
  0
POLYLINE
  6
SOLID
 62
256
  8
footbar
 66
1
 10
0.0
 20
0.0
 30
0.0
 70
0
  0
VERTEX
  8
footbar
 10
776.7
 20
40.825
 30
0
  0
VERTEX
  8
footbar
 10
776.7
 20
40.825
 30
0
  0
VERTEX
  8
footbar
 10
776.7
 20
40.825
 30
0
  0
SEQEND
  0
POLYLINE
  6
SOLID
 62
256
  8
footbar
 66
1
 10
0.0
 20
0.0
 30
0.0
 70
0
  0
VERTEX
  8
footbar
 10
787.575
 20
29.95
 30
0
  0
VERTEX
  8
footbar
 10
798.45
 20
29.95
 30
0
  0
VERTEX
  8
footbar
 10
798.45
 20
-0.5
 30
0
  0
VERTEX
  8
footbar
 10
785.915
 20
-0.5
 30
0
  0
SEQEND
  0
POLYLINE
  6
SOLID
 62
256
  8
footbar
 66
1
 10
0.0
 20
0.0
 30
0.0
 70
0
  0
VERTEX
  8
footbar
 10
673.1
 20
112.315
 30
0
  0
VERTEX
  8
footbar
 10
673.1
 20
130
 30
0
  0
SEQEND
  0
ARC
  8
footbar
 10
785.915
 20
147.685
 30
0.0
 40
112.815
 50
90
 51
180
  0
ARC
  8
footbar
 10
799.299
 20
230.899
 30
0.0
 40
1.2
 50
135
 51
315
  0
ARC
  8
footbar
 10
819.625
 20
219.175
 30
0.0
 40
10.875
 50
0
 51
90
  0
ARC
  8
footbar
 10
819.625
 20
219.175
 30
0.0
 40
10.875
 50
270
 51
0
  0
ARC
  8
footbar
 10
787.575
 20
197.425
 30
0.0
 40
10.875
 50
90
 51
180
  0
ARC
  8
footbar
 10
787.575
 20
197.425
 30
0.0
 40
10.875
 50
180
 51
270
  0
ARC
  8
footbar
 10
717.449
 20
134.301
 30
0.0
 40
1.2
 50
45
 51
225
  0
ARC
  8
footbar
 10
717.449
 20
125.699
 30
0.0
 40
1.2
 50
135
 51
315
  0
ARC
  8
footbar
 10
799.299
 20
74.299
 30
0.0
 40
1.2
 50
135
 51
315
  0
ARC
  8
footbar
 10
819.625
 20
62.575
 30
0.0
 40
10.875
 50
0
 51
90
  0
ARC
  8
footbar
 10
819.625
 20
62.575
 30
0.0
 40
10.875
 50
270
 51
0
  0
ARC
  8
footbar
 10
787.575
 20
40.825
 30
0.0
 40
10.875
 50
90
 51
180
  0
ARC
  8
footbar
 10
787.575
 20
40.825
 30
0.0
 40
10.875
 50
180
 51
270
  0
ARC
  8
footbar
 10
785.915
 20
112.315
 30
0.0
 40
112.815
 50
180
 51
270
  0
ENDSEC
  0
EOF