  0
SECTION
  2
HEADER
  9
$ACADVER
  1
AC1018
  9
$ACADMAINTVER
 70
     0
  9
$DWGCODEPAGE
  3
ANSI_932
  9
$INSBASE
 10
0.0
 20
0.0
 30
0.0
  9
$EXTMIN
 10
1.000000000000000E+20
 20
1.000000000000000E+20
 30
1.000000000000000E+20
  9
$EXTMAX
 10
-1.000000000000000E+20
 20
-1.000000000000000E+20
 30
-1.000000000000000E+20
  9
$LIMMIN
 10
0.0
 20
0.0
  9
$LIMMAX
 10
12.0
 20
9.0
  9
$ORTHOMODE
 70
     0
  9
$REGENMODE
 70
     1
  9
$FILLMODE
 70
     1
  9
$QTEXTMODE
 70
     0
  9
$MIRRTEXT
 70
     1
  9
$LTSCALE
 40
1.0
  9
$ATTMODE
 70
     1
  9
$TEXTSIZE
 40
0.2
  9
$TRACEWID
 40
0.05
  9
$TEXTSTYLE
  7
Standard
  9
$CLAYER
  8
0
  9
$CELTYPE
  6
ByLayer
  9
$CECOLOR
 62
   256
  9
$CELTSCALE
 40
1.0
  9
$DISPSILH
 70
     0
  9
$DIMSCALE
 40
1.0
  9
$DIMASZ
 40
0.18
  9
$DIMEXO
 40
0.0625
  9
$DIMDLI
 40
0.38
  9
$DIMRND
 40
0.0
  9
$DIMDLE
 40
0.0
  9
$DIMEXE
 40
0.18
  9
$DIMTP
 40
0.0
  9
$DIMTM
 40
0.0
  9
$DIMTXT
 40
0.18
  9
$DIMCEN
 40
0.09
  9
$DIMTSZ
 40
0.0
  9
$DIMTOL
 70
     0
  9
$DIMLIM
 70
     0
  9
$DIMTIH
 70
     1
  9
$DIMTOH
 70
     1
  9
$DIMSE1
 70
     0
  9
$DIMSE2
 70
     0
  9
$DIMTAD
 70
     0
  9
$DIMZIN
 70
     0
  9
$DIMBLK
  1

  9
$DIMASO
 70
     1
  9
$DIMSHO
 70
     1
  9
$DIMPOST
  1

  9
$DIMAPOST
  1

  9
$DIMALT
 70
     0
  9
$DIMALTD
 70
     2
  9
$DIMALTF
 40
25.4
  9
$DIMLFAC
 40
1.0
  9
$DIMTOFL
 70
     0
  9
$DIMTVP
 40
0.0
  9
$DIMTIX
 70
     0
  9
$DIMSOXD
 70
     0
  9
$DIMSAH
 70
     0
  9
$DIMBLK1
  1

  9
$DIMBLK2
  1

  9
$DIMSTYLE
  2
Standard
  9
$DIMCLRD
 70
     0
  9
$DIMCLRE
 70
     0
  9
$DIMCLRT
 70
     0
  9
$DIMTFAC
 40
1.0
  9
$DIMGAP
 40
0.09
  9
$DIMJUST
 70
     0
  9
$DIMSD1
 70
     0
  9
$DIMSD2
 70
     0
  9
$DIMTOLJ
 70
     1
  9
$DIMTZIN
 70
     0
  9
$DIMALTZ
 70
     0
  9
$DIMALTTZ
 70
     0
  9
$DIMUPT
 70
     0
  9
$DIMDEC
 70
     4
  9
$DIMTDEC
 70
     4
  9
$DIMALTU
 70
     2
  9
$DIMALTTD
 70
     2
  9
$DIMTXSTY
  7
Standard
  9
$DIMAUNIT
 70
     0
  9
$DIMADEC
 70
     0
  9
$DIMALTRND
 40
0.0
  9
$DIMAZIN
 70
     0
  9
$DIMDSEP
 70
    46
  9
$DIMATFIT
 70
     3
  9
$DIMFRAC
 70
     0
  9
$DIMLDRBLK
  1

  9
$DIMLUNIT
 70
     2
  9
$DIMLWD
 70
    -2
  9
$DIMLWE
 70
    -2
  9
$DIMTMOVE
 70
     0
  9
$LUNITS
 70
     2
  9
$LUPREC
 70
     4
  9
$SKETCHINC
 40
0.1
  9
$FILLETRAD
 40
0.5
  9
$AUNITS
 70
     0
  9
$AUPREC
 70
     0
  9
$MENU
  1
.
  9
$ELEVATION
 40
0.0
  9
$PELEVATION
 40
0.0
  9
$THICKNESS
 40
0.0
  9
$LIMCHECK
 70
     0
  9
$CHAMFERA
 40
0.5
  9
$CHAMFERB
 40
0.5
  9
$CHAMFERC
 40
1.0
  9
$CHAMFERD
 40
0.0
  9
$SKPOLY
 70
     0
  9
$TDCREATE
 40
2457092.447685185
  9
$TDUCREATE
 40
2457092.406018518
  9
$TDUPDATE
 40
2457092.447685197
  9
$TDUUPDATE
 40
2457092.40601853
  9
$TDINDWG
 40
0.0000000116
  9
$TDUSRTIMER
 40
0.0000000116
  9
$USRTIMER
 70
     1
  9
$ANGBASE
 50
0.0
  9
$ANGDIR
 70
     0
  9
$PDMODE
 70
     0
  9
$PDSIZE
 40
0.0
  9
$PLINEWID
 40
0.0
  9
$SPLFRAME
 70
     0
  9
$SPLINETYPE
 70
     6
  9
$SPLINESEGS
 70
     8
  9
$HANDSEED
  5
56
  9
$SURFTAB1
 70
     6
  9
$SURFTAB2
 70
     6
  9
$SURFTYPE
 70
     6
  9
$SURFU
 70
     6
  9
$SURFV
 70
     6
  9
$UCSBASE
  2

  9
$UCSNAME
  2

  9
$UCSORG
 10
0.0
 20
0.0
 30
0.0
  9
$UCSXDIR
 10
1.0
 20
0.0
 30
0.0
  9
$UCSYDIR
 10
0.0
 20
1.0
 30
0.0
  9
$UCSORTHOREF
  2

  9
$UCSORTHOVIEW
 70
     0
  9
$UCSORGTOP
 10
0.0
 20
0.0
 30
0.0
  9
$UCSORGBOTTOM
 10
0.0
 20
0.0
 30
0.0
  9
$UCSORGLEFT
 10
0.0
 20
0.0
 30
0.0
  9
$UCSORGRIGHT
 10
0.0
 20
0.0
 30
0.0
  9
$UCSORGFRONT
 10
0.0
 20
0.0
 30
0.0
  9
$UCSORGBACK
 10
0.0
 20
0.0
 30
0.0
  9
$PUCSBASE
  2

  9
$PUCSNAME
  2

  9
$PUCSORG
 10
0.0
 20
0.0
 30
0.0
  9
$PUCSXDIR
 10
1.0
 20
0.0
 30
0.0
  9
$PUCSYDIR
 10
0.0
 20
1.0
 30
0.0
  9
$PUCSORTHOREF
  2

  9
$PUCSORTHOVIEW
 70
     0
  9
$PUCSORGTOP
 10
0.0
 20
0.0
 30
0.0
  9
$PUCSORGBOTTOM
 10
0.0
 20
0.0
 30
0.0
  9
$PUCSORGLEFT
 10
0.0
 20
0.0
 30
0.0
  9
$PUCSORGRIGHT
 10
0.0
 20
0.0
 30
0.0
  9
$PUCSORGFRONT
 10
0.0
 20
0.0
 30
0.0
  9
$PUCSORGBACK
 10
0.0
 20
0.0
 30
0.0
  9
$USERI1
 70
     0
  9
$USERI2
 70
     0
  9
$USERI3
 70
     0
  9
$USERI4
 70
     0
  9
$USERI5
 70
     0
  9
$USERR1
 40
0.0
  9
$USERR2
 40
0.0
  9
$USERR3
 40
0.0
  9
$USERR4
 40
0.0
  9
$USERR5
 40
0.0
  9
$WORLDVIEW
 70
     1
  9
$SHADEDGE
 70
     3
  9
$SHADEDIF
 70
    70
  9
$TILEMODE
 70
     1
  9
$MAXACTVP
 70
    64
  9
$PINSBASE
 10
0.0
 20
0.0
 30
0.0
  9
$PLIMCHECK
 70
     0
  9
$PEXTMIN
 10
1.000000000000000E+20
 20
1.000000000000000E+20
 30
1.000000000000000E+20
  9
$PEXTMAX
 10
-1.000000000000000E+20
 20
-1.000000000000000E+20
 30
-1.000000000000000E+20
  9
$PLIMMIN
 10
0.0
 20
0.0
  9
$PLIMMAX
 10
12.0
 20
9.0
  9
$UNITMODE
 70
     0
  9
$VISRETAIN
 70
     1
  9
$PLINEGEN
 70
     0
  9
$PSLTSCALE
 70
     1
  9
$TREEDEPTH
 70
  3020
  9
$CMLSTYLE
  2
Standard
  9
$CMLJUST
 70
     0
  9
$CMLSCALE
 40
1.0
  9
$PROXYGRAPHICS
 70
     1
  9
$MEASUREMENT
 70
     0
  9
$CELWEIGHT
370
    -1
  9
$ENDCAPS
280
     0
  9
$JOINSTYLE
280
     0
  9
$LWDISPLAY
290
     1
  9
$INSUNITS
 70
     1
  9
$HYPERLINKBASE
  1

  9
$STYLESHEET
  1

  9
$XEDIT
290
     1
  9
$CEPSNTYPE
380
     0
  9
$PSTYLEMODE
290
     1
  9
$FINGERPRINTGUID
  2
{128FFFD4-B981-7DFD-F2EF-369E76467C4B}
  9
$VERSIONGUID
  2
{FAEB1C32-E019-11D5-929B-00C0DF256EC4}
  9
$EXTNAMES
290
     1
  9
$PSVPSCALE
 40
0.0
  9
$OLESTARTUP
290
     0
  9
$SORTENTS
280
   127
  9
$INDEXCTL
280
     0
  9
$HIDETEXT
280
     1
  9
$XCLIPFRAME
290
     0
  9
$HALOGAP
280
     0
  9
$OBSCOLOR
 70
   257
  9
$OBSLTYPE
280
     0
  9
$INTERSECTIONDISPLAY
280
     0
  9
$INTERSECTIONCOLOR
 70
   257
  9
$DIMASSOC
280
     2
  9
$PROJECTNAME
  1

  0
ENDSEC
  0
SECTION
  2
CLASSES
  0
CLASS
  1
ACDBDICTIONARYWDFLT
  2
AcDbDictionaryWithDefault
  3
ObjectDBX Classes
 90
        0
 91
        3
280
     0
281
     0
  0
CLASS
  1
VISUALSTYLE
  2
AcDbVisualStyle
  3
ObjectDBX Classes
 90
     4095
 91
        3
280
     0
281
     0
  0
CLASS
  1
IMAGEDEF
  2
AcDbRasterImageDef
  3
ISM
 90
        0
 91
        3
280
     0
281
     0
  0
CLASS
  1
RASTERVARIABLES
  2
AcDbRasterVariables
  3
ISM
 90
        0
 91
        3
280
     0
281
     0
  0
CLASS
  1
IMAGE
  2
AcDbRasterImage
  3
ISM
 90
      127
 91
        4
280
     0
281
     1
  0
CLASS
  1
IMAGEDEF_REACTOR
  2
AcDbRasterImageDefReactor
  3
ISM
 90
        1
 91
        3
280
     0
281
     0
  0
ENDSEC
  0
SECTION
  2
TABLES
  0
TABLE
  2
VPORT
  5
8
330
0
100
AcDbSymbolTable
 70
     1
  0
VPORT
  5
29
330
8
100
AcDbSymbolTableRecord
100
AcDbViewportTableRecord
  2
*Active
 70
     0
 10
0.0
 20
0.0
 11
1.0
 21
1.0
 12
0.0
 22
0.0
 13
0.0
 23
0.0
 14
0.5
 24
0.5
 15
0.5
 25
0.5
 16
0.0
 26
0.0
 36
1.0
 17
148.4999796178229
 27
-105.0008259828644
 37
0.0
 40
210.0016519657288
 41
1.414274394775308
 42
50.0
 43
0.0
 44
0.0
 50
0.0
 51
0.0
 71
     0
 72
   100
 73
     1
 74
     3
 75
     0
 76
     0
 77
     0
 78
     0
281
     0
 65
     1
110
0.0
120
0.0
130
0.0
111
1.0
121
0.0
131
0.0
112
0.0
122
1.0
132
0.0
 79
     0
146
0.0
  0
ENDTAB
  0
TABLE
  2
LTYPE
  5
5
330
0
100
AcDbSymbolTable
 70
     1
  0
LTYPE
  5
14
330
5
100
AcDbSymbolTableRecord
100
AcDbLinetypeTableRecord
  2
ByBlock
 70
     0
  3

 72
    65
 73
     0
 40
0.0
  0
LTYPE
  5
15
330
5
100
AcDbSymbolTableRecord
100
AcDbLinetypeTableRecord
  2
ByLayer
 70
     0
  3

 72
    65
 73
     0
 40
0.0
  0
LTYPE
  5
16
330
5
100
AcDbSymbolTableRecord
100
AcDbLinetypeTableRecord
  2
Continuous
 70
     0
  3
Solid line
 72
    65
 73
     0
 40
0.0
  0
ENDTAB
  0
TABLE
  2
LAYER
  5
2
330
0
100
AcDbSymbolTable
 70
     5
  0
LAYER
  5
10
330
2
100
AcDbSymbolTableRecord
100
AcDbLayerTableRecord
  2
0
 70
     0
 62
     7
  6
Continuous
370
    -3
390
F
  0
LAYER
  5
3B
330
2
100
AcDbSymbolTableRecord
100
AcDbLayerTableRecord
  2
Image 1
 70
     5
 62
     7
  6
Continuous
370
    -3
390
F
  0
LAYER
  5
41
330
2
100
AcDbSymbolTableRecord
100
AcDbLayerTableRecord
  2
Image 2
 70
     1
 62
     7
  6
Continuous
370
    -3
390
F
  0
LAYER
  5
45
330
2
100
AcDbSymbolTableRecord
100
AcDbLayerTableRecord
  2
Laser
 70
     1
 62
     7
  6
Continuous
370
    -3
390
F
  0
LAYER
  5
51
330
2
100
AcDbSymbolTableRecord
100
AcDbLayerTableRecord
  2
Shopbot
 70
     0
 62
     7
  6
Continuous
370
    -3
390
F
  0
ENDTAB
  0
TABLE
  2
STYLE
  5
3
330
0
100
AcDbSymbolTable
 70
     1
  0
STYLE
  5
11
330
3
100
AcDbSymbolTableRecord
100
AcDbTextStyleTableRecord
  2
Standard
 70
     0
 40
0.0
 41
1.0
 50
0.0
 71
     0
 42
0.2
  3
txt
  4

  0
ENDTAB
  0
TABLE
  2
VIEW
  5
6
330
0
100
AcDbSymbolTable
 70
     0
  0
ENDTAB
  0
TABLE
  2
UCS
  5
7
330
0
100
AcDbSymbolTable
 70
     0
  0
ENDTAB
  0
TABLE
  2
APPID
  5
9
330
0
100
AcDbSymbolTable
 70
     1
  0
APPID
  5
12
330
9
100
AcDbSymbolTableRecord
100
AcDbRegAppTableRecord
  2
ACAD
 70
     0
  0
ENDTAB
  0
TABLE
  2
DIMSTYLE
  5
A
330
0
100
AcDbSymbolTable
 70
     1
100
AcDbDimStyleTable
  0
DIMSTYLE
105
27
330
A
100
AcDbSymbolTableRecord
100
AcDbDimStyleTableRecord
  2
Standard
 70
     0
340
11
  0
ENDTAB
  0
TABLE
  2
BLOCK_RECORD
  5
1
330
0
100
AcDbSymbolTable
 70
     2
  0
BLOCK_RECORD
  5
1F
330
1
100
AcDbSymbolTableRecord
100
AcDbBlockTableRecord
  2
*Model_Space
340
22
  0
BLOCK_RECORD
  5
1B
330
1
100
AcDbSymbolTableRecord
100
AcDbBlockTableRecord
  2
*Paper_Space
340
1E
  0
BLOCK_RECORD
  5
23
330
1
100
AcDbSymbolTableRecord
100
AcDbBlockTableRecord
  2
*Paper_Space0
340
26
  0
BLOCK_RECORD
  5
46
330
1
100
AcDbSymbolTableRecord
100
AcDbBlockTableRecord
  2
block 2
340
0
102
{BLKREFS
331
47
102
}
  0
ENDTAB
  0
ENDSEC
  0
SECTION
  2
BLOCKS
  0
BLOCK
  5
20
330
1F
100
AcDbEntity
  8
0
100
AcDbBlockBegin
  2
*Model_Space
 70
     0
 71
     0
 10
0.0
 20
0.0
 30
0.0
  3
*Model_Space
  1

  0
ENDBLK
  5
21
330
1F
100
AcDbEntity
  8
0
100
AcDbBlockEnd
  0
BLOCK
  5
1C
330
1B
100
AcDbEntity
 67
     1
  8
0
100
AcDbBlockBegin
  2
*Paper_Space
 70
     0
 71
     0
 10
0.0
 20
0.0
 30
0.0
  3
*Paper_Space
  1

  0
ENDBLK
  5
1D
330
1B
100
AcDbEntity
 67
     1
  8
0
100
AcDbBlockEnd
  0
BLOCK
  5
24
330
23
100
AcDbEntity
  8
0
100
AcDbBlockBegin
  2
*Paper_Space0
 70
     0
 71
     0
 10
0.0
 20
0.0
 30
0.0
  3
*Paper_Space0
  1

  0
ENDBLK
  5
25
330
23
100
AcDbEntity
  8
0
100
AcDbBlockEnd
  0
BLOCK
  5
48
330
46
100
AcDbEntity
  8
0
100
AcDbBlockBegin
  2
block 2
 70
     0
 71
     0
 10
0.0
 20
0.0
 30
0.0
  3
block 2
  1

  0
SPLINE
  5
4A
330
46
100
AcDbEntity
  8
Laser
 62
   179
420
  2301728
370
    53
100
AcDbSpline
210
0.0
220
0.0
230
1.0
 70
     8
 71
     3
 72
    29
 73
    25
 74
     0
 42
0.0000000001
 43
0.0000000001
 40
0.0
 40
0.0
 40
0.0
 40
0.0
 40
1.0
 40
1.0
 40
1.0
 40
2.0
 40
2.0
 40
2.0
 40
3.0
 40
3.0
 40
3.0
 40
4.0
 40
4.0
 40
4.0
 40
5.0
 40
5.0
 40
5.0
 40
6.0
 40
6.0
 40
6.0
 40
7.0
 40
7.0
 40
7.0
 40
8.0
 40
8.0
 40
8.0
 40
8.0
 10
243.1445040624778
 20
-83.82571883755053
 30
0.0
 10
245.6821613969128
 20
-82.44905868164469
 30
0.0
 10
247.6689479632564
 20
-81.47599146183586
 30
0.0
 10
249.8875894557573
 20
-80.74098034005782
 30
0.0
 10
249.8875894557573
 20
-80.74098034005782
 30
0.0
 10
249.8875894557573
 20
-80.74339190689749
 30
0.0
 10
249.8875894557573
 20
-80.74339190689749
 30
0.0
 10
251.3362521073048
 20
-80.26383461535072
 30
0.0
 10
252.8799993942453
 20
-79.88384058332765
 30
0.0
 10
254.7424180135714
 20
-79.56103513635975
 30
0.0
 10
260.2066839627261
 20
-78.61466740656161
 30
0.0
 10
263.8047416875211
 20
-79.81511092839692
 30
0.0
 10
265.7949733493499
 20
-81.16007620583845
 30
0.0
 10
266.3107041434918
 20
-81.50923663326853
 30
0.0
 10
267.0121255842886
 20
-82.2542385319538
 30
0.0
 10
266.6007811833498
 20
-82.61821286997045
 30
0.0
 10
266.2779757363819
 20
-82.90329452137487
 30
0.0
 10
265.4046440308711
 20
-82.78306068893966
 30
0.0
 10
265.4046440308711
 20
-82.78306068893966
 30
0.0
 10
262.6578694004814
 20
-82.52450627277166
 30
0.0
 10
260.1174559896581
 20
-82.58737926537746
 30
0.0
 10
257.7999402567306
 20
-82.98804387031203
 30
0.0
 10
253.2493136302641
 20
-83.77214760275488
 30
0.0
 10
249.6784721598026
 20
-85.51071503938621
 30
0.0
 10
246.6523002855592
 20
-87.81927352405214
 30
0.0
  0
SPLINE
  5
4B
330
46
100
AcDbEntity
  8
Laser
 62
   179
420
  2301728
370
    50
100
AcDbSpline
210
0.0
220
0.0
230
1.0
 70
    11
 71
     3
 72
    17
 73
    13
 74
     0
 42
0.0000000001
 43
0.0000000001
 40
0.0
 40
0.0
 40
0.0
 40
0.0
 40
1.0
 40
1.0
 40
1.0
 40
2.0
 40
2.0
 40
2.0
 40
3.0
 40
3.0
 40
3.0
 40
4.0
 40
4.0
 40
4.0
 40
4.0
 10
248.5660508276154
 20
-102.05544159775
 30
0.0
 10
248.5660508276154
 20
-100.2138658061097
 30
0.0
 10
249.9919758489604
 20
-98.7200724037054
 30
0.0
 10
251.7500080750833
 20
-98.7200724037054
 30
0.0
 10
253.5090738298519
 20
-98.7200724037054
 30
0.0
 10
254.9346543416483
 20
-100.2138658061097
 30
0.0
 10
254.9346543416483
 20
-102.05544159775
 30
0.0
 10
254.9346543416483
 20
-103.8970173893903
 30
0.0
 10
253.5090738298519
 20
-105.3909830465689
 30
0.0
 10
251.7500080750833
 20
-105.3909830465689
 30
0.0
 10
249.9919758489604
 20
-105.3909830465689
 30
0.0
 10
248.5660508276154
 20
-103.8970173893903
 30
0.0
 10
248.5660508276154
 20
-102.05544159775
 30
0.0
  0
SPLINE
  5
4C
330
46
100
AcDbEntity
  8
Laser
 62
   179
420
  2301728
370
    50
100
AcDbSpline
210
0.0
220
0.0
230
1.0
 70
    11
 71
     3
 72
    17
 73
    13
 74
     0
 42
0.0000000001
 43
0.0000000001
 40
0.0
 40
0.0
 40
0.0
 40
0.0
 40
1.0
 40
1.0
 40
1.0
 40
2.0
 40
2.0
 40
2.0
 40
3.0
 40
3.0
 40
3.0
 40
4.0
 40
4.0
 40
4.0
 40
4.0
 10
249.9905978107662
 20
-103.8353501802044
 30
0.0
 10
249.9905978107662
 20
-102.9757988566345
 30
0.0
 10
250.7781466386944
 20
-102.2798895686141
 30
0.0
 10
251.7500080750833
 20
-102.2798895686141
 30
0.0
 10
252.7225585305694
 20
-102.2798895686141
 30
0.0
 10
253.510451868046
 20
-102.9757988566345
 30
0.0
 10
253.510451868046
 20
-103.8353501802044
 30
0.0
 10
253.510451868046
 20
-104.6938679751286
 30
0.0
 10
252.7225585305694
 20
-105.3909830465689
 30
0.0
 10
251.7500080750833
 20
-105.3909830465689
 30
0.0
 10
250.7781466386944
 20
-105.3909830465689
 30
0.0
 10
249.9905978107662
 20
-104.6938679751286
 30
0.0
 10
249.9905978107662
 20
-103.8353501802044
 30
0.0
  0
HATCH
  5
4D
330
46
100
AcDbEntity
  8
Laser
 62
   179
420
  2301728
100
AcDbHatch
 10
0.0
 20
0.0
 30
0.0
210
0.0
220
0.0
230
1.0
  2
SOLID
 70
     1
 71
     0
 91
        1
 92
        1
 93
        1
 72
     4
 94
        3
 73
     0
 74
     1
 95
       17
 96
       13
 40
0.0
 40
0.0
 40
0.0
 40
0.0
 40
1.0
 40
1.0
 40
1.0
 40
2.0
 40
2.0
 40
2.0
 40
3.0
 40
3.0
 40
3.0
 40
4.0
 40
4.0
 40
4.0
 40
4.0
 10
249.9905978107662
 20
-103.8353501802044
 10
249.9905978107662
 20
-102.9757988566345
 10
250.7781466386944
 20
-102.2798895686141
 10
251.7500080750833
 20
-102.2798895686141
 10
252.7225585305694
 20
-102.2798895686141
 10
253.510451868046
 20
-102.9757988566345
 10
253.510451868046
 20
-103.8353501802044
 10
253.510451868046
 20
-104.6938679751286
 10
252.7225585305694
 20
-105.3909830465689
 10
251.7500080750833
 20
-105.3909830465689
 10
250.7781466386944
 20
-105.3909830465689
 10
249.9905978107662
 20
-104.6938679751286
 10
249.9905978107662
 20
-103.8353501802044
 97
        0
 75
     2
 76
     1
 98
        0
  0
SPLINE
  5
4E
330
46
100
AcDbEntity
  8
Laser
 62
   179
420
  2301728
370
    60
100
AcDbSpline
210
0.0
220
0.0
230
1.0
 70
     8
 71
     3
 72
     8
 73
     4
 74
     0
 42
0.0000000001
 43
0.0000000001
 40
0.0
 40
0.0
 40
0.0
 40
0.0
 40
1.0
 40
1.0
 40
1.0
 40
1.0
 10
236.4896131136207
 20
-87.60516083964386
 30
0.0
 10
221.9513101658663
 20
-96.74138181175216
 30
0.0
 10
227.9512884629775
 20
-108.8977457410047
 30
0.0
 10
238.0519639161815
 20
-112.8051730403751
 30
0.0
  0
ENDBLK
  5
49
330
46
100
AcDbEntity
  8
0
100
AcDbBlockEnd
  0
ENDSEC
  0
SECTION
  2
ENTITIES
  0
IMAGE
  5
3F
330
1F
100
AcDbEntity
  8
Image 1
 92
        8
310
0800000000000000
100
AcDbRasterImage
 90
        0
 10
36.37125015258789
 20
-169.8053283691406
 30
0.0
 11
0.21166667231807
 21
0.0
 31
0.0
 12
0.0
 22
0.2116666793823242
 32
0.0
 13
1080.0
 23
600.0
340
3D
 70
     3
280
     0
281
    50
282
    50
283
     0
360
40
 71
     1
 91
        2
 14
-0.5
 24
-0.5
 14
1079.5
 24
599.5
  0
IMAGE
  5
43
330
1F
100
AcDbEntity
  8
Image 2
 92
        8
310
0800000000000000
100
AcDbRasterImage
 90
        0
 10
38.9278564453125
 20
-182.1322174072266
 30
0.0
 11
0.21166667231807
 21
0.0
 31
0.0
 12
0.0
 22
0.2116666793823242
 32
0.0
 13
1080.0
 23
600.0
340
42
 70
     3
280
     0
281
    50
282
    50
283
     0
360
44
 71
     1
 91
        2
 14
-0.5
 24
-0.5
 14
1079.5
 24
599.5
  0
INSERT
  5
47
330
1F
100
AcDbEntity
  8
Laser
100
AcDbBlockReference
  2
block 2
 10
0.0
 20
0.0
 30
0.0
  0
SPLINE
  5
4F
330
1F
100
AcDbEntity
  8
Laser
370
     0
100
AcDbSpline
210
0.0
220
0.0
230
1.0
 70
    11
 71
     3
 72
    17
 73
    13
 74
     0
 42
0.0000000001
 43
0.0000000001
 40
0.0
 40
0.0
 40
0.0
 40
0.0
 40
1.0
 40
1.0
 40
1.0
 40
2.0
 40
2.0
 40
2.0
 40
3.0
 40
3.0
 40
3.0
 40
4.0
 40
4.0
 40
4.0
 40
4.0
 10
261.8444823564139
 20
-127.3527777459396
 30
0.0
 10
261.8444823564139
 20
-127.5705077806074
 30
0.0
 10
261.6680934675691
 20
-127.7472411790007
 30
0.0
 10
261.4500189233528
 20
-127.7472411790007
 30
0.0
 10
261.2326333982335
 20
-127.7472411790007
 30
0.0
 10
261.0555554902917
 20
-127.5705077806074
 30
0.0
 10
261.0555554902917
 20
-127.3527777459396
 30
0.0
 10
261.0555554902917
 20
-127.1350477112718
 30
0.0
 10
261.2326333982335
 20
-126.9583143128785
 30
0.0
 10
261.4500189233528
 20
-126.9583143128785
 30
0.0
 10
261.6680934675691
 20
-126.9583143128785
 30
0.0
 10
261.8444823564139
 20
-127.1350477112718
 30
0.0
 10
261.8444823564139
 20
-127.3527777459396
 30
0.0
  0
HATCH
  5
50
330
1F
100
AcDbEntity
  8
Laser
 62
   179
420
  2301728
100
AcDbHatch
 10
0.0
 20
0.0
 30
0.0
210
0.0
220
0.0
230
1.0
  2
SOLID
 70
     1
 71
     0
 91
        1
 92
        1
 93
        1
 72
     4
 94
        3
 73
     0
 74
     1
 95
       17
 96
       13
 40
0.0
 40
0.0
 40
0.0
 40
0.0
 40
1.0
 40
1.0
 40
1.0
 40
2.0
 40
2.0
 40
2.0
 40
3.0
 40
3.0
 40
3.0
 40
4.0
 40
4.0
 40
4.0
 40
4.0
 10
261.8444823564139
 20
-127.3527777459396
 10
261.8444823564139
 20
-127.5705077806074
 10
261.6680934675691
 20
-127.7472411790007
 10
261.4500189233528
 20
-127.7472411790007
 10
261.2326333982335
 20
-127.7472411790007
 10
261.0555554902917
 20
-127.5705077806074
 10
261.0555554902917
 20
-127.3527777459396
 10
261.0555554902917
 20
-127.1350477112718
 10
261.2326333982335
 20
-126.9583143128785
 10
261.4500189233528
 20
-126.9583143128785
 10
261.6680934675691
 20
-126.9583143128785
 10
261.8444823564139
 20
-127.1350477112718
 10
261.8444823564139
 20
-127.3527777459396
 97
        0
 75
     2
 76
     1
 98
        0
  0
SPLINE
  5
52
330
1F
100
AcDbEntity
  8
Shopbot
 62
    32
420
 15751720
370
    60
100
AcDbSpline
210
0.0
220
0.0
230
1.0
 70
    11
 71
     3
 72
    44
 73
    40
 74
     0
 42
0.0000000001
 43
0.0000000001
 40
0.0
 40
0.0
 40
0.0
 40
0.0
 40
1.0
 40
1.0
 40
1.0
 40
2.0
 40
2.0
 40
2.0
 40
3.0
 40
3.0
 40
3.0
 40
4.0
 40
4.0
 40
4.0
 40
5.0
 40
5.0
 40
5.0
 40
6.0
 40
6.0
 40
6.0
 40
7.0
 40
7.0
 40
7.0
 40
8.0
 40
8.0
 40
8.0
 40
9.0
 40
9.0
 40
9.0
 40
10.0
 40
10.0
 40
10.0
 40
11.0
 40
11.0
 40
11.0
 40
12.0
 40
12.0
 40
12.0
 40
13.0
 40
13.0
 40
13.0
 40
13.0
 10
7.305497231246543
 20
-134.293956129621
 30
0.0
 10
2.677528211136174
 20
-129.6665038738334
 30
0.0
 10
10.74835340443097
 20
-128.1899359488553
 30
0.0
 10
19.83186441561495
 20
-128.1899359488553
 30
0.0
 10
29.50121391406567
 20
-128.1899359488553
 30
0.0
 10
50.08548718365918
 20
-125.3329182629376
 30
0.0
 10
59.38845077725358
 20
-116.395996064651
 30
0.0
 10
68.6917588803965
 20
-107.4590738663644
 30
0.0
 10
65.12677407225998
 20
-96.39773353709849
 30
0.0
 10
68.05700003723922
 20
-81.64910750996967
 30
0.0
 10
70.98722600221848
 20
-66.90134275671217
 30
0.0
 10
83.00079072360745
 20
-57.52465411973342
 30
0.0
 10
96.57687850233148
 20
-57.52465411973342
 30
0.0
 10
117.4050645322807
 20
-57.52465411973342
 30
0.0
 10
123.4326035932738
 20
-72.07587617555743
 30
0.0
 10
134.7867770387859
 20
-72.07587617555743
 30
0.0
 10
140.7442084066542
 20
-72.07587617555743
 30
0.0
 10
142.5649413706088
 20
-71.98079154016453
 30
0.0
 10
152.0386094454973
 20
-71.98079154016453
 30
0.0
 10
167.4709146716739
 20
-71.98079154016453
 30
0.0
 10
171.4744601350828
 20
-86.63037107209242
 30
0.0
 10
174.4045138452878
 20
-95.61621362626956
 30
0.0
 10
177.3349120650413
 20
-104.602228435221
 30
0.0
 10
178.4108153850848
 20
-116.3229600403637
 30
0.0
 10
185.149077644685
 20
-121.3042236024864
 30
0.0
 10
191.8880289233822
 20
-126.2851426550607
 30
0.0
 10
197.3571180062163
 20
-125.6171386404707
 30
0.0
 10
202.9254258390256
 20
-125.6023247298841
 30
0.0
 10
224.2591796314352
 20
-125.5413465397952
 30
0.0
 10
234.6347737043621
 20
-121.1185329558315
 30
0.0
 10
256.6454887596233
 20
-122.7163682418904
 30
0.0
 10
261.7397514536623
 20
-123.0863714970062
 30
0.0
 10
271.8807345240437
 20
-124.2339328031429
 30
0.0
 10
272.9552598058931
 20
-127.2614827155805
 30
0.0
 10
274.0015353047635
 20
-130.206350336372
 30
0.0
 10
273.4454968934442
 20
-134.293956129621
 30
0.0
 10
269.4405733918413
 20
-134.293956129621
 30
0.0
 10
265.4356498902383
 20
-134.293956129621
 30
0.0
 10
11.07787678759511
 20
-134.293956129621
 30
0.0
 10
7.305497231246543
 20
-134.293956129621
 30
0.0
  0
SPLINE
  5
53
330
1F
100
AcDbEntity
  8
Shopbot
 62
   179
420
  2301728
370
    60
100
AcDbSpline
210
0.0
220
0.0
230
1.0
 70
    11
 71
     3
 72
    95
 73
    91
 74
     0
 42
0.0000000001
 43
0.0000000001
 40
0.0
 40
0.0
 40
0.0
 40
0.0
 40
1.0
 40
1.0
 40
1.0
 40
2.0
 40
2.0
 40
2.0
 40
3.0
 40
3.0
 40
3.0
 40
4.0
 40
4.0
 40
4.0
 40
5.0
 40
5.0
 40
5.0
 40
6.0
 40
6.0
 40
6.0
 40
7.0
 40
7.0
 40
7.0
 40
8.0
 40
8.0
 40
8.0
 40
9.0
 40
9.0
 40
9.0
 40
10.0
 40
10.0
 40
10.0
 40
11.0
 40
11.0
 40
11.0
 40
12.0
 40
12.0
 40
12.0
 40
13.0
 40
13.0
 40
13.0
 40
14.0
 40
14.0
 40
14.0
 40
15.0
 40
15.0
 40
15.0
 40
16.0
 40
16.0
 40
16.0
 40
17.0
 40
17.0
 40
17.0
 40
18.0
 40
18.0
 40
18.0
 40
19.0
 40
19.0
 40
19.0
 40
20.0
 40
20.0
 40
20.0
 40
21.0
 40
21.0
 40
21.0
 40
22.0
 40
22.0
 40
22.0
 40
23.0
 40
23.0
 40
23.0
 40
24.0
 40
24.0
 40
24.0
 40
25.0
 40
25.0
 40
25.0
 40
26.0
 40
26.0
 40
26.0
 40
27.0
 40
27.0
 40
27.0
 40
28.0
 40
28.0
 40
28.0
 40
29.0
 40
29.0
 40
29.0
 40
30.0
 40
30.0
 40
30.0
 40
30.0
 10
262.2096624778504
 20
-77.04473739393326
 30
0.0
 10
263.8037081588755
 20
-76.1379882622155
 30
0.0
 10
265.1503959840596
 20
-74.7818264244469
 30
0.0
 10
266.19667148293
 20
-72.76747909422133
 30
0.0
 10
267.692187433077
 20
-69.88875730674657
 30
0.0
 10
268.9293212218302
 20
-67.73126625910885
 30
0.0
 10
270.5323241511169
 20
-65.65025633124368
 30
0.0
 10
270.5323241511169
 20
-65.65025633124368
 30
0.0
 10
270.5340466988596
 20
-65.65266789808337
 30
0.0
 10
270.5340466988596
 20
-65.65266789808337
 30
0.0
 10
271.5799776881814
 20
-64.29409449347509
 30
0.0
 10
272.7785264074998
 20
-62.96859400552522
 30
0.0
 10
274.3088378220478
 20
-61.49547117603238
 30
0.0
 10
278.7998642966195
 20
-57.17359888978646
 30
0.0
 10
282.9057290959403
 20
-56.02552081932696
 30
0.0
 10
285.6056504277306
 20
-56.02552081932696
 30
0.0
 10
286.3046603016878
 20
-56.02552081932696
 30
0.0
 10
287.4274169203306
 20
-56.27735729929872
 30
0.0
 10
287.27342115214
 20
-56.8749091112153
 30
0.0
 10
287.1524983006077
 20
-57.34309758766076
 30
0.0
 10
286.2643526845103
 20
-57.78251951680437
 30
0.0
 10
286.2643526845103
 20
-57.78251951680437
 30
0.0
 10
283.54341627026
 20
-59.27045625688378
 30
0.0
 10
281.2179768177164
 20
-60.92892522348305
 30
0.0
 10
279.3131835239217
 20
-62.76033798344186
 30
0.0
 10
271.6337211777513
 20
-70.13714869123308
 30
0.0
 10
270.3273409697446
 20
-78.65738659057871
 30
0.0
 10
269.7885280358515
 20
-87.59430878886532
 30
0.0
 10
269.5477158614326
 20
-91.59802650704842
 30
0.0
 10
269.2986354578489
 20
-95.73903128031871
 30
0.0
 10
268.4104898417515
 20
-100.207492379462
 30
0.0
 10
266.0206271036337
 20
-112.2350097375663
 30
0.0
 10
256.523876888994
 20
-120.3172037459624
 30
0.0
 10
244.7788573606803
 20
-120.3172037459624
 30
0.0
 10
234.0181016125024
 20
-120.3172037459624
 30
0.0
 10
232.019601721509
 20
-115.885432913737
 30
0.0
 10
224.5213513978627
 20
-111.9755940475269
 30
0.0
 10
218.3973496632826
 20
-108.7819905327003
 30
0.0
 10
212.1317545042587
 20
-106.8437798126988
 30
0.0
 10
206.0876789849364
 20
-106.8437798126988
 30
0.0
 10
203.4421901618131
 20
-106.8437798126988
 30
0.0
 10
200.7526041164785
 20
-106.8620388187706
 30
0.0
 10
197.7522704583745
 20
-106.8837429203277
 30
0.0
 10
195.7964897513981
 20
-106.8971787927202
 30
0.0
 10
188.9848469579621
 20
-107.198969157228
 30
0.0
 10
185.3154757566225
 20
-105.6293836541482
 30
0.0
 10
178.3929008885615
 20
-102.6626396770253
 30
0.0
 10
176.0033826599922
 20
-97.77301565481022
 30
0.0
 10
174.8585774302437
 20
-85.90603974631863
 30
0.0
 10
174.4131265840009
 20
-81.28289385988761
 30
0.0
 10
175.0049939883668
 20
-75.87598875056226
 30
0.0
 10
175.9561848518443
 20
-70.946229365944
 30
0.0
 10
177.4224174903666
 20
-63.33842500586679
 30
0.0
 10
179.1587456149325
 20
-57.77097844692879
 30
0.0
 10
180.4348089826691
 20
-56.13886446079167
 30
0.0
 10
181.4276855015181
 20
-54.86831324583154
 30
0.0
 10
183.4695935956257
 20
-54.90379772932961
 30
0.0
 10
186.5309054438187
 20
-54.87175834131678
 30
0.0
 10
190.8527777300646
 20
-54.8271443547828
 30
0.0
 10
194.0026285322285
 20
-54.86831324583154
 30
0.0
 10
195.2721462185431
 20
-55.82983939576476
 30
0.0
 10
198.1029811787729
 20
-57.97475584488132
 30
0.0
 10
195.3903129936872
 20
-62.04840900141498
 30
0.0
 10
196.2009439613664
 20
-65.25320907656865
 30
0.0
 10
197.2007106711859
 20
-69.20421683382742
 30
0.0
 10
200.0411918987744
 20
-61.87219236734445
 30
0.0
 10
211.7741535928898
 20
-61.87219236734445
 30
0.0
 10
226.0585530033812
 20
-61.87219236734445
 30
0.0
 10
227.2412542834675
 20
-68.87004257175819
 30
0.0
 10
229.1067734887303
 20
-66.72064749851081
 30
0.0
 10
230.971603674896
 20
-64.57211369913475
 30
0.0
 10
227.5075601644773
 20
-56.39311250760311
 30
0.0
 10
230.9116590134527
 20
-55.24141708688409
 30
0.0
 10
232.1835882666069
 20
-54.81095240600212
 30
0.0
 10
234.3347058875969
 20
-54.85108776840529
 30
0.0
 10
237.1438367462696
 20
-54.85108776840529
 30
0.0
 10
240.1986029130406
 20
-54.85108776840529
 30
0.0
 10
245.9023029984203
 20
-54.73223197416416
 30
0.0
 10
246.9399657585775
 20
-55.78195256851979
 30
0.0
 10
249.3911511963328
 20
-58.26311033699672
 30
0.0
 10
247.1232448383928
 20
-62.75689288795661
 30
0.0
 10
246.9368651726408
 20
-71.74187416826246
 30
0.0
 10
246.8965575554634
 20
-73.6681993088399
 30
0.0
 10
247.8325899988058
 20
-75.37352157403856
 30
0.0
 10
249.1451713786859
 20
-76.66922198604104
 30
0.0
 10
250.4329480710723
 20
-77.9396009462269
 30
0.0
 10
251.4967935569175
 20
-78.7764146395941
 30
0.0
 10
253.0918727665882
 20
-78.7764146395941
 30
0.0
 10
256.5955348750873
 20
-78.7764146395941
 30
0.0
 10
259.7064560982678
 20
-78.46738957456718
 30
0.0
 10
262.2096624778504
 20
-77.04473739393326
 30
0.0
  0
SPLINE
  5
54
330
1F
100
AcDbEntity
  8
Shopbot
 62
    32
420
 15751720
370
   120
100
AcDbSpline
210
0.0
220
0.0
230
1.0
 70
    11
 71
     3
 72
    59
 73
    55
 74
     0
 42
0.0000000001
 43
0.0000000001
 40
0.0
 40
0.0
 40
0.0
 40
0.0
 40
1.0
 40
1.0
 40
1.0
 40
2.0
 40
2.0
 40
2.0
 40
3.0
 40
3.0
 40
3.0
 40
4.0
 40
4.0
 40
4.0
 40
5.0
 40
5.0
 40
5.0
 40
6.0
 40
6.0
 40
6.0
 40
7.0
 40
7.0
 40
7.0
 40
8.0
 40
8.0
 40
8.0
 40
9.0
 40
9.0
 40
9.0
 40
10.0
 40
10.0
 40
10.0
 40
11.0
 40
11.0
 40
11.0
 40
12.0
 40
12.0
 40
12.0
 40
13.0
 40
13.0
 40
13.0
 40
14.0
 40
14.0
 40
14.0
 40
15.0
 40
15.0
 40
15.0
 40
16.0
 40
16.0
 40
16.0
 40
17.0
 40
17.0
 40
17.0
 40
18.0
 40
18.0
 40
18.0
 40
18.0
 10
183.1798610653161
 20
-129.3106255102071
 30
0.0
 10
184.0080620199702
 20
-129.3106255102071
 30
0.0
 10
184.6798556395939
 20
-128.6388318905834
 30
0.0
 10
184.6798556395939
 20
-127.8106309359293
 30
0.0
 10
184.6798556395939
 20
-127.2769856452641
 30
0.0
 10
184.4008029052887
 20
-126.8081081497216
 30
0.0
 10
183.9808457656367
 20
-126.5424912878088
 30
0.0
 10
183.4151610869587
 20
-126.1807562618576
 30
0.0
 10
182.763693530698
 20
-125.7377169824545
 30
0.0
 10
182.1866400369186
 20
-125.3112141613805
 30
0.0
 10
175.7474120654381
 20
-120.5507812198623
 30
0.0
 10
173.5394503689415
 20
-111.8350341517287
 30
0.0
 10
171.5922824006783
 20
-104.1443752452313
 30
0.0
 10
170.9628634555232
 20
-101.658394343075
 30
0.0
 10
170.367550955672
 20
-99.30970049600592
 30
0.0
 10
169.6675075530692
 20
-97.16133895140412
 30
0.0
 10
169.6675075530692
 20
-97.16133895140412
 30
0.0
 10
169.2630533431009
 20
-95.91473115006646
 30
0.0
 10
169.2630533431009
 20
-95.91473115006646
 30
0.0
 10
165.8021104186189
 20
-85.17722979641403
 30
0.0
 10
162.8169351806499
 20
-75.88666854656653
 30
0.0
 10
152.5195447752382
 20
-75.88666854656653
 30
0.0
 10
147.2528550521625
 20
-75.88666854656653
 30
0.0
 10
147.3567246810428
 20
-75.91646862251395
 30
0.0
 10
143.6024318759918
 20
-75.94213458387905
 30
0.0
 10
140.602959491759
 20
-75.96383868543613
 30
0.0
 10
137.9133734464244
 20
-75.98226994628222
 30
0.0
 10
135.2675401137526
 20
-75.98226994628222
 30
0.0
 10
129.2234645944303
 20
-75.98226994628222
 30
0.0
 10
122.9580416901806
 20
-74.0433702071836
 30
0.0
 10
116.8342122103748
 20
-70.85011120190553
 30
0.0
 10
109.336306396277
 20
-66.94010008092123
 30
0.0
 10
107.3372897409608
 20
-62.50832924869584
 30
0.0
 10
96.57687850233148
 20
-62.50832924869584
 30
0.0
 10
84.83203122879199
 20
-62.50832924869584
 30
0.0
 10
75.33510875937803
 20
-70.59069551186622
 30
0.0
 10
72.94507376648596
 20
-82.62079669158439
 30
0.0
 10
72.05727265993707
 20
-87.08891328117916
 30
0.0
 10
71.80784774680498
 20
-91.23009030922373
 30
0.0
 10
71.56686331761176
 20
-95.23380802740682
 30
0.0
 10
71.02856714804147
 20
-104.1707302256934
 30
0.0
 10
70.52041556396712
 20
-112.6122476932011
 30
0.0
 10
62.84095321779671
 20
-119.9902641844122
 30
0.0
 10
60.29296059690593
 20
-122.4380045266822
 30
0.0
 10
56.96327581041196
 20
-124.6060031155499
 30
0.0
 10
52.96472573545674
 20
-126.4381048946058
 30
0.0
 10
52.43848740008482
 20
-126.6713378589572
 30
0.0
 10
52.07124022135719
 20
-127.1980929586519
 30
0.0
 10
52.07141247613146
 20
-127.8106309359293
 30
0.0
 10
52.07141247613146
 20
-128.6388318905834
 30
0.0
 10
52.74320609575517
 20
-129.3106255102071
 30
0.0
 10
53.57140705040923
 20
-129.3106255102071
 30
0.0
 10
53.57140705040923
 20
-129.3106255102071
 30
0.0
 10
183.1798610653161
 20
-129.3106255102071
 30
0.0
 10
183.1798610653161
 20
-129.3106255102071
 30
0.0
  0
ENDSEC
  0
SECTION
  2
OBJECTS
  0
DICTIONARY
  5
C
330
0
100
AcDbDictionary
281
     1
  3
ACAD_GROUP
350
D
  3
ACAD_IMAGE_DICT
350
3C
  3
ACAD_IMAGE_VARS
350
3E
  3
ACAD_LAYOUT
350
1A
  3
ACAD_MLINESTYLE
350
17
  3
ACAD_PLOTSETTINGS
350
19
  3
ACAD_PLOTSTYLENAME
350
E
  3
ACAD_TABLESTYLE
350
55
  3
ACAD_VISUALSTYLE
350
2A
  0
IMAGEDEF_REACTOR
  5
40
330
3F
100
AcDbRasterImageDefReactor
 90
        2
330
3F
  0
IMAGEDEF_REACTOR
  5
44
330
43
100
AcDbRasterImageDefReactor
 90
        2
330
43
  0
DICTIONARY
  5
D
102
{ACAD_REACTORS
330
C
102
}
330
C
100
AcDbDictionary
281
     1
  0
DICTIONARY
  5
3C
102
{ACAD_REACTORS
330
C
102
}
330
C
100
AcDbDictionary
281
     1
  3
/Users/Ismael/Documents/De Waag Society/Projects/Le Petit Prince/BoaElephant_1.png
350
3D
  3
/Users/Ismael/Documents/De Waag Society/Projects/Le Petit Prince/BoaElephant_2.png
350
42
  0
RASTERVARIABLES
  5
3E
102
{ACAD_REACTORS
330
C
102
}
330
C
100
AcDbRasterVariables
 90
        0
 70
     0
 71
     1
 72
     0
  0
DICTIONARY
  5
1A
102
{ACAD_REACTORS
330
C
102
}
330
C
100
AcDbDictionary
281
     1
  3
Layout1
350
1E
  3
Layout2
350
26
  3
Model
350
22
  0
DICTIONARY
  5
17
102
{ACAD_REACTORS
330
C
102
}
330
C
100
AcDbDictionary
281
     1
  3
Standard
350
18
  0
DICTIONARY
  5
19
102
{ACAD_REACTORS
330
C
102
}
330
C
100
AcDbDictionary
281
     1
  0
ACDBDICTIONARYWDFLT
  5
E
102
{ACAD_REACTORS
330
C
102
}
330
C
100
AcDbDictionary
281
     1
  3
Normal
350
F
100
AcDbDictionaryWithDefault
340
F
  0
DICTIONARY
  5
55
102
{ACAD_REACTORS
330
C
102
}
330
C
100
AcDbDictionary
281
     1
  0
DICTIONARY
  5
2A
102
{ACAD_REACTORS
330
C
102
}
330
C
100
AcDbDictionary
281
     1
  3
2dWireframe
350
2F
  3
3D Hidden
350
31
  3
3dWireframe
350
30
  3
Basic
350
32
  3
Brighten
350
36
  3
ColorChange
350
3A
  3
Conceptual
350
34
  3
Dim
350
35
  3
Facepattern
350
39
  3
Flat
350
2B
  3
FlatWithEdges
350
2C
  3
Gouraud
350
2D
  3
GouraudWithEdges
350
2E
  3
Linepattern
350
38
  3
Realistic
350
33
  3
Thicken
350
37
  0
IMAGEDEF
  5
3D
102
{ACAD_REACTORS
330
3C
330
40
102
}
330
3C
100
AcDbRasterImageDef
 90
        0
  1
/Users/Ismael/Documents/De Waag Society/Projects/Le Petit Prince/BoaElephant_1.png
 10
1080.0
 20
600.0
 11
0.3527777777777777
 21
0.3527777777777777
280
     1
281
     5
  0
IMAGEDEF
  5
42
102
{ACAD_REACTORS
330
3C
330
44
102
}
330
3C
100
AcDbRasterImageDef
 90
        0
  1
/Users/Ismael/Documents/De Waag Society/Projects/Le Petit Prince/BoaElephant_2.png
 10
1080.0
 20
600.0
 11
0.3527777777777777
 21
0.3527777777777777
280
     1
281
     5
  0
LAYOUT
  5
1E
102
{ACAD_REACTORS
330
1A
102
}
330
1A
100
AcDbPlotSettings
  1

  2
none_device
  4

  6

 40
0.0
 41
0.0
 42
0.0
 43
0.0
 44
0.0
 45
0.0
 46
0.0
 47
0.0
 48
0.0
 49
0.0
140
0.0
141
0.0
142
1.0
143
1.0
 70
   688
 72
     0
 73
     0
 74
     5
  7

 75
    16
 76
     0
 77
     2
 78
   300
147
1.0
148
0.0
149
0.0
100
AcDbLayout
  1
Layout1
 70
     1
 71
     1
 10
0.0
 20
0.0
 11
12.0
 21
9.0
 12
0.0
 22
0.0
 32
0.0
 14
1.000000000000000E+20
 24
1.000000000000000E+20
 34
1.000000000000000E+20
 15
-1.000000000000000E+20
 25
-1.000000000000000E+20
 35
-1.000000000000000E+20
146
0.0
 13
0.0
 23
0.0
 33
0.0
 16
1.0
 26
0.0
 36
0.0
 17
0.0
 27
1.0
 37
0.0
 76
     0
330
1B
  0
LAYOUT
  5
26
102
{ACAD_REACTORS
330
1A
102
}
330
1A
100
AcDbPlotSettings
  1

  2
none_device
  4

  6

 40
0.0
 41
0.0
 42
0.0
 43
0.0
 44
0.0
 45
0.0
 46
0.0
 47
0.0
 48
0.0
 49
0.0
140
0.0
141
0.0
142
1.0
143
1.0
 70
   688
 72
     0
 73
     0
 74
     5
  7

 75
    16
 76
     0
 77
     2
 78
   300
147
1.0
148
0.0
149
0.0
100
AcDbLayout
  1
Layout2
 70
     1
 71
     2
 10
0.0
 20
0.0
 11
0.0
 21
0.0
 12
0.0
 22
0.0
 32
0.0
 14
0.0
 24
0.0
 34
0.0
 15
0.0
 25
0.0
 35
0.0
146
0.0
 13
0.0
 23
0.0
 33
0.0
 16
1.0
 26
0.0
 36
0.0
 17
0.0
 27
1.0
 37
0.0
 76
     0
330
23
  0
LAYOUT
  5
22
102
{ACAD_REACTORS
330
1A
102
}
330
1A
100
AcDbPlotSettings
  1

  2
none_device
  4

  6

 40
0.0
 41
0.0
 42
0.0
 43
0.0
 44
0.0
 45
0.0
 46
0.0
 47
0.0
 48
0.0
 49
0.0
140
0.0
141
0.0
142
1.0
143
1.0
 70
  1712
 72
     0
 73
     0
 74
     0
  7

 75
     0
 76
     0
 77
     2
 78
   300
147
1.0
148
0.0
149
0.0
100
AcDbLayout
  1
Model
 70
     1
 71
     0
 10
0.0
 20
0.0
 11
12.0
 21
9.0
 12
0.0
 22
0.0
 32
0.0
 14
1.000000000000000E+20
 24
1.000000000000000E+20
 34
1.000000000000000E+20
 15
-1.000000000000000E+20
 25
-1.000000000000000E+20
 35
-1.000000000000000E+20
146
0.0
 13
0.0
 23
0.0
 33
0.0
 16
1.0
 26
0.0
 36
0.0
 17
0.0
 27
1.0
 37
0.0
 76
     0
330
1F
331
29
  0
MLINESTYLE
  5
18
102
{ACAD_REACTORS
330
17
102
}
330
17
100
AcDbMlineStyle
  2
Standard
 70
     0
  3

 62
   256
 51
90.0
 52
90.0
 71
     2
 49
0.5
 62
   256
  6
BYLAYER
 49
-0.5
 62
   256
  6
BYLAYER
  0
ACDBPLACEHOLDER
  5
F
102
{ACAD_REACTORS
330
E
102
}
330
E
  0
VISUALSTYLE
  5
2F
102
{ACAD_REACTORS
330
2A
102
}
330
2A
100
AcDbVisualStyle
  2
2dWireframe
 70
     4
 71
     0
 72
     2
 73
     0
 90
        0
 40
-0.6
 41
-30.0
 62
     5
 63
     7
421
 16777215
 74
     1
 91
        4
 64
     7
 65
   257
 75
     1
175
     1
 42
1.0
 92
        0
 66
   257
 43
1.0
 76
     1
 77
     6
 78
     2
 67
     7
 79
     5
170
     0
171
     0
290
     0
174
     0
 93
        1
 44
0.0
173
     0
291
     0
 45
0.0
1001
ACAD
1000
AcDbSavedByObjectVersion
1070
     0
  0
VISUALSTYLE
  5
31
102
{ACAD_REACTORS
330
2A
102
}
330
2A
100
AcDbVisualStyle
  2
3D Hidden
 70
     6
 71
     1
 72
     2
 73
     2
 90
        0
 40
-0.6
 41
-30.0
 62
     5
 63
     7
421
 16777215
 74
     2
 91
        2
 64
     7
 65
   257
 75
     2
175
     1
 42
40.0
 92
        0
 66
   257
 43
1.0
 76
     1
 77
     6
 78
     2
 67
     7
 79
     3
170
     0
171
     0
290
     0
174
     0
 93
        1
 44
0.0
173
     0
291
     0
 45
0.0
1001
ACAD
1000
AcDbSavedByObjectVersion
1070
     0
  0
VISUALSTYLE
  5
30
102
{ACAD_REACTORS
330
2A
102
}
330
2A
100
AcDbVisualStyle
  2
3dWireframe
 70
     5
 71
     0
 72
     2
 73
     0
 90
        0
 40
-0.6
 41
-30.0
 62
     5
 63
     7
421
 16777215
 74
     1
 91
        4
 64
     7
 65
   257
 75
     1
175
     1
 42
1.0
 92
        0
 66
   257
 43
1.0
 76
     1
 77
     6
 78
     2
 67
     7
 79
     5
170
     0
171
     0
290
     0
174
     0
 93
        1
 44
0.0
173
     0
291
     0
 45
0.0
1001
ACAD
1000
AcDbSavedByObjectVersion
1070
     0
  0
VISUALSTYLE
  5
32
102
{ACAD_REACTORS
330
2A
102
}
330
2A
100
AcDbVisualStyle
  2
Basic
 70
     7
 71
     1
 72
     0
 73
     1
 90
        0
 40
-0.6
 41
-30.0
 62
     5
 63
     7
421
 16777215
 74
     0
 91
        4
 64
     7
 65
   257
 75
     1
175
     1
 42
1.0
 92
        8
 66
     7
 43
1.0
 76
     1
 77
     6
 78
     2
 67
     7
 79
     5
170
     0
171
     0
290
     0
174
     0
 93
        1
 44
0.0
173
     0
291
     1
 45
0.0
1001
ACAD
1000
AcDbSavedByObjectVersion
1070
     0
  0
VISUALSTYLE
  5
36
102
{ACAD_REACTORS
330
2A
102
}
330
2A
100
AcDbVisualStyle
  2
Brighten
 70
    12
 71
     2
 72
     2
 73
     0
 90
        0
 40
-0.6
 41
-30.0
 62
     5
 63
     7
421
 16777215
 74
     1
 91
        4
 64
     7
 65
   257
 75
     1
175
     1
 42
1.0
 92
        8
 66
     7
 43
1.0
 76
     1
 77
     6
 78
     2
 67
     7
 79
     5
170
     0
171
     0
290
     0
174
     0
 93
        1
 44
50.0
173
     0
291
     1
 45
0.0
1001
ACAD
1000
AcDbSavedByObjectVersion
1070
     0
  0
VISUALSTYLE
  5
3A
102
{ACAD_REACTORS
330
2A
102
}
330
2A
100
AcDbVisualStyle
  2
ColorChange
 70
    16
 71
     2
 72
     2
 73
     3
 90
        0
 40
-0.6
 41
-30.0
 62
     5
 63
     8
421
  8421504
 74
     1
 91
        4
 64
     7
 65
   257
 75
     1
175
     1
 42
1.0
 92
        8
 66
     8
424
  8421504
 43
1.0
 76
     1
 77
     6
 78
     2
 67
     7
 79
     5
170
     0
171
     0
290
     0
174
     0
 93
        1
 44
0.0
173
     0
291
     1
 45
0.0
1001
ACAD
1000
AcDbSavedByObjectVersion
1070
     0
  0
VISUALSTYLE
  5
34
102
{ACAD_REACTORS
330
2A
102
}
330
2A
100
AcDbVisualStyle
  2
Conceptual
 70
     9
 71
     3
 72
     2
 73
     0
 90
        0
 40
-0.6
 41
-30.0
 62
     5
 63
     7
421
 16777215
 74
     2
 91
        2
 64
     7
 65
   257
 75
     1
175
     1
 42
40.0
 92
        8
 66
     7
 43
1.0
 76
     1
 77
     6
 78
     2
 67
     7
 79
     3
170
     0
171
     0
290
     0
174
     0
 93
        1
 44
0.0
173
     0
291
     0
 45
0.0
1001
ACAD
1000
AcDbSavedByObjectVersion
1070
     0
  0
VISUALSTYLE
  5
35
102
{ACAD_REACTORS
330
2A
102
}
330
2A
100
AcDbVisualStyle
  2
Dim
 70
    11
 71
     2
 72
     2
 73
     0
 90
        0
 40
-0.6
 41
-30.0
 62
     5
 63
     7
421
 16777215
 74
     1
 91
        4
 64
     7
 65
   257
 75
     1
175
     1
 42
1.0
 92
        8
 66
     7
 43
1.0
 76
     1
 77
     6
 78
     2
 67
     7
 79
     5
170
     0
171
     0
290
     0
174
     0
 93
        1
 44
-50.0
173
     0
291
     1
 45
0.0
1001
ACAD
1000
AcDbSavedByObjectVersion
1070
     0
  0
VISUALSTYLE
  5
39
102
{ACAD_REACTORS
330
2A
102
}
330
2A
100
AcDbVisualStyle
  2
Facepattern
 70
    15
 71
     2
 72
     2
 73
     0
 90
        0
 40
-0.6
 41
-30.0
 62
     5
 63
     7
421
 16777215
 74
     1
 91
        4
 64
     7
 65
   257
 75
     1
175
     1
 42
1.0
 92
        8
 66
     7
 43
1.0
 76
     1
 77
     6
 78
     2
 67
     7
 79
     5
170
     0
171
     0
290
     0
174
     0
 93
        1
 44
0.0
173
     0
291
     1
 45
0.0
1001
ACAD
1000
AcDbSavedByObjectVersion
1070
     0
  0
VISUALSTYLE
  5
2B
102
{ACAD_REACTORS
330
2A
102
}
330
2A
100
AcDbVisualStyle
  2
Flat
 70
     0
 71
     2
 72
     1
 73
     1
 90
        2
 40
-0.6
 41
30.0
 62
     5
 63
     7
421
 16777215
 74
     0
 91
        4
 64
     7
 65
   257
 75
     1
175
     1
 42
1.0
 92
        8
 66
     7
 43
1.0
 76
     1
 77
     6
 78
     2
 67
     7
 79
     5
170
     0
171
     0
290
     0
174
     0
 93
       13
 44
0.0
173
     0
291
     1
 45
0.0
1001
ACAD
1000
AcDbSavedByObjectVersion
1070
     0
  0
VISUALSTYLE
  5
2C
102
{ACAD_REACTORS
330
2A
102
}
330
2A
100
AcDbVisualStyle
  2
FlatWithEdges
 70
     1
 71
     2
 72
     1
 73
     1
 90
        2
 40
-0.6
 41
30.0
 62
     5
 63
     7
421
 16777215
 74
     1
 91
        4
 64
     7
 65
   257
 75
     1
175
     1
 42
1.0
 92
        0
 66
   257
 43
1.0
 76
     1
 77
     6
 78
     2
 67
     7
 79
     5
170
     0
171
     0
290
     0
174
     0
 93
       13
 44
0.0
173
     0
291
     1
 45
0.0
1001
ACAD
1000
AcDbSavedByObjectVersion
1070
     0
  0
VISUALSTYLE
  5
2D
102
{ACAD_REACTORS
330
2A
102
}
330
2A
100
AcDbVisualStyle
  2
Gouraud
 70
     2
 71
     2
 72
     2
 73
     1
 90
        2
 40
-0.6
 41
30.0
 62
     5
 63
     7
421
 16777215
 74
     0
 91
        4
 64
     7
 65
   257
 75
     1
175
     1
 42
1.0
 92
        0
 66
     7
 43
1.0
 76
     1
 77
     6
 78
     2
 67
     7
 79
     5
170
     0
171
     0
290
     0
174
     0
 93
       13
 44
0.0
173
     0
291
     1
 45
0.0
1001
ACAD
1000
AcDbSavedByObjectVersion
1070
     0
  0
VISUALSTYLE
  5
2E
102
{ACAD_REACTORS
330
2A
102
}
330
2A
100
AcDbVisualStyle
  2
GouraudWithEdges
 70
     3
 71
     2
 72
     2
 73
     1
 90
        2
 40
-0.6
 41
30.0
 62
     5
 63
     7
421
 16777215
 74
     1
 91
        4
 64
     7
 65
   257
 75
     1
175
     1
 42
1.0
 92
        0
 66
   257
 43
1.0
 76
     1
 77
     6
 78
     2
 67
     7
 79
     5
170
     0
171
     0
290
     0
174
     0
 93
       13
 44
0.0
173
     0
291
     1
 45
0.0
1001
ACAD
1000
AcDbSavedByObjectVersion
1070
     0
  0
VISUALSTYLE
  5
38
102
{ACAD_REACTORS
330
2A
102
}
330
2A
100
AcDbVisualStyle
  2
Linepattern
 70
    14
 71
     2
 72
     2
 73
     0
 90
        0
 40
-0.6
 41
-30.0
 62
     5
 63
     7
421
 16777215
 74
     1
 91
        4
 64
     7
 65
   257
 75
     7
175
     7
 42
1.0
 92
        8
 66
     7
 43
1.0
 76
     1
 77
     6
 78
     2
 67
     7
 79
     5
170
     0
171
     0
290
     0
174
     0
 93
        1
 44
0.0
173
     0
291
     1
 45
0.0
1001
ACAD
1000
AcDbSavedByObjectVersion
1070
     0
  0
VISUALSTYLE
  5
33
102
{ACAD_REACTORS
330
2A
102
}
330
2A
100
AcDbVisualStyle
  2
Realistic
 70
     8
 71
     2
 72
     2
 73
     0
 90
        0
 40
-0.6
 41
-30.0
 62
     5
 63
     7
421
 16777215
 74
     1
 91
        0
 64
     7
 65
   257
 75
     1
175
     1
 42
1.0
 92
        8
 66
     8
424
  7895160
 43
1.0
 76
     1
 77
     6
 78
     2
 67
     7
 79
     5
170
     0
171
     0
290
     0
174
     0
 93
       13
 44
0.0
173
     0
291
     0
 45
0.0
1001
ACAD
1000
AcDbSavedByObjectVersion
1070
     0
  0
VISUALSTYLE
  5
37
102
{ACAD_REACTORS
330
2A
102
}
330
2A
100
AcDbVisualStyle
  2
Thicken
 70
    13
 71
     2
 72
     2
 73
     0
 90
        0
 40
-0.6
 41
-30.0
 62
     5
 63
     7
421
 16777215
 74
     1
 91
        4
 64
     7
 65
   257
 75
     1
175
     1
 42
1.0
 92
       12
 66
     7
 43
1.0
 76
     1
 77
     6
 78
     2
 67
     7
 79
     5
170
     0
171
     0
290
     0
174
     0
 93
        1
 44
0.0
173
     0
291
     1
 45
0.0
1001
ACAD
1000
AcDbSavedByObjectVersion
1070
     0
  0
ENDSEC
  0
EOF
