  0
SECTION
  2
HEADER
  9
$ACADVER
  1
AC1015
  9
$ACADMAINTVER
 70
     6
  9
$DWGCODEPAGE
  3
ANSI_1252
  9
$INSBASE
 10
0.0
 20
0.0
 30
0.0
  9
$EXTMIN
 10
-18.71
 20
-9.15
 30
0.0
  9
$EXTMAX
 10
87.29
 20
19.15
 30
0.0
  9
$LIMMIN
 10
0.0
 20
0.0
  9
$LIMMAX
 10
420.0
 20
297.0
  9
$ORTHOMODE
 70
     0
  9
$REGENMODE
 70
     1
  9
$FILLMODE
 70
     1
  9
$QTEXTMODE
 70
     0
  9
$MIRRTEXT
 70
     1
  9
$LTSCALE
 40
1.0
  9
$ATTMODE
 70
     1
  9
$TEXTSIZE
 40
3.5
  9
$TRACEWID
 40
1.0
  9
$TEXTSTYLE
  7
Standard
  9
$CLAYER
  8
0
  9
$CELTYPE
  6
ByLayer
  9
$CECOLOR
 62
   256
  9
$CELTSCALE
 40
1.0
  9
$DISPSILH
 70
     0
  9
$DIMSCALE
 40
1.0
  9
$DIMASZ
 40
3.302
  9
$DIMEXO
 40
1.0
  9
$DIMDLI
 40
3.75
  9
$DIMRND
 40
0.0
  9
$DIMDLE
 40
0.0
  9
$DIMEXE
 40
1.0
  9
$DIMTP
 40
0.0
  9
$DIMTM
 40
0.0
  9
$DIMTXT
 40
3.5
  9
$DIMCEN
 40
2.5
  9
$DIMTSZ
 40
0.0
  9
$DIMTOL
 70
     0
  9
$DIMLIM
 70
     0
  9
$DIMTIH
 70
     1
  9
$DIMTOH
 70
     1
  9
$DIMSE1
 70
     0
  9
$DIMSE2
 70
     0
  9
$DIMTAD
 70
     1
  9
$DIMZIN
 70
     0
  9
$DIMBLK
  1

  9
$DIMASO
 70
     1
  9
$DIMSHO
 70
     1
  9
$DIMPOST
  1

  9
$DIMAPOST
  1

  9
$DIMALT
 70
     0
  9
$DIMALTD
 70
     3
  9
$DIMALTF
 40
0.0393700787
  9
$DIMLFAC
 40
1.0
  9
$DIMTOFL
 70
     1
  9
$DIMTVP
 40
0.0
  9
$DIMTIX
 70
     0
  9
$DIMSOXD
 70
     0
  9
$DIMSAH
 70
     0
  9
$DIMBLK1
  1

  9
$DIMBLK2
  1

  9
$DIMSTYLE
  2
ISO-25
  9
$DIMCLRD
 70
     0
  9
$DIMCLRE
 70
     0
  9
$DIMCLRT
 70
     0
  9
$DIMTFAC
 40
1.0
  9
$DIMGAP
 40
1.524
  9
$DIMJUST
 70
     0
  9
$DIMSD1
 70
     0
  9
$DIMSD2
 70
     0
  9
$DIMTOLJ
 70
     0
  9
$DIMTZIN
 70
     0
  9
$DIMALTZ
 70
     0
  9
$DIMALTTZ
 70
     0
  9
$DIMUPT
 70
     0
  9
$DIMDEC
 70
     2
  9
$DIMTDEC
 70
     2
  9
$DIMALTU
 70
     2
  9
$DIMALTTD
 70
     3
  9
$DIMTXSTY
  7
Standard
  9
$DIMAUNIT
 70
     0
  9
$DIMADEC
 70
     2
  9
$DIMALTRND
 40
0.0
  9
$DIMAZIN
 70
     0
  9
$DIMDSEP
 70
    44
  9
$DIMATFIT
 70
     3
  9
$DIMFRAC
 70
     0
  9
$DIMLDRBLK
  1

  9
$DIMLUNIT
 70
     2
  9
$DIMLWD
 70
    -2
  9
$DIMLWE
 70
    -2
  9
$DIMTMOVE
 70
     0
  9
$LUNITS
 70
     2
  9
$LUPREC
 70
     2
  9
$SKETCHINC
 40
1.0
  9
$FILLETRAD
 40
10.0
  9
$AUNITS
 70
     0
  9
$AUPREC
 70
     2
  9
$MENU
  1
.
  9
$ELEVATION
 40
0.0
  9
$PELEVATION
 40
0.0
  9
$THICKNESS
 40
0.0
  9
$LIMCHECK
 70
     0
  9
$CHAMFERA
 40
0.0
  9
$CHAMFERB
 40
0.0
  9
$CHAMFERC
 40
0.0
  9
$CHAMFERD
 40
0.0
  9
$SKPOLY
 70
     0
  9
$TDCREATE
 40
2457337.666154213
  9
$TDUCREATE
 40
2457337.624487546
  9
$TDUPDATE
 40
2457337.66618037
  9
$TDUUPDATE
 40
2457337.624513704
  9
$TDINDWG
 40
0.0000000116
  9
$TDUSRTIMER
 40
0.0000000116
  9
$USRTIMER
 70
     1
  9
$ANGBASE
 50
0.0
  9
$ANGDIR
 70
     0
  9
$PDMODE
 70
     0
  9
$PDSIZE
 40
-1.0
  9
$PLINEWID
 40
0.0
  9
$SPLFRAME
 70
     0
  9
$SPLINETYPE
 70
     6
  9
$SPLINESEGS
 70
     8
  9
$HANDSEED
  5
1AA
  9
$SURFTAB1
 70
     6
  9
$SURFTAB2
 70
     6
  9
$SURFTYPE
 70
     6
  9
$SURFU
 70
     6
  9
$SURFV
 70
     6
  9
$UCSBASE
  2

  9
$UCSNAME
  2

  9
$UCSORG
 10
0.0
 20
0.0
 30
0.0
  9
$UCSXDIR
 10
1.0
 20
0.0
 30
0.0
  9
$UCSYDIR
 10
0.0
 20
1.0
 30
0.0
  9
$UCSORTHOREF
  2

  9
$UCSORTHOVIEW
 70
     0
  9
$UCSORGTOP
 10
0.0
 20
0.0
 30
0.0
  9
$UCSORGBOTTOM
 10
0.0
 20
0.0
 30
0.0
  9
$UCSORGLEFT
 10
0.0
 20
0.0
 30
0.0
  9
$UCSORGRIGHT
 10
0.0
 20
0.0
 30
0.0
  9
$UCSORGFRONT
 10
0.0
 20
0.0
 30
0.0
  9
$UCSORGBACK
 10
0.0
 20
0.0
 30
0.0
  9
$PUCSBASE
  2

  9
$PUCSNAME
  2

  9
$PUCSORG
 10
0.0
 20
0.0
 30
0.0
  9
$PUCSXDIR
 10
1.0
 20
0.0
 30
0.0
  9
$PUCSYDIR
 10
0.0
 20
1.0
 30
0.0
  9
$PUCSORTHOREF
  2

  9
$PUCSORTHOVIEW
 70
     0
  9
$PUCSORGTOP
 10
0.0
 20
0.0
 30
0.0
  9
$PUCSORGBOTTOM
 10
0.0
 20
0.0
 30
0.0
  9
$PUCSORGLEFT
 10
0.0
 20
0.0
 30
0.0
  9
$PUCSORGRIGHT
 10
0.0
 20
0.0
 30
0.0
  9
$PUCSORGFRONT
 10
0.0
 20
0.0
 30
0.0
  9
$PUCSORGBACK
 10
0.0
 20
0.0
 30
0.0
  9
$USERI1
 70
     0
  9
$USERI2
 70
     0
  9
$USERI3
 70
     0
  9
$USERI4
 70
     0
  9
$USERI5
 70
     0
  9
$USERR1
 40
0.0
  9
$USERR2
 40
0.0
  9
$USERR3
 40
0.0
  9
$USERR4
 40
0.0
  9
$USERR5
 40
0.0
  9
$WORLDVIEW
 70
     1
  9
$SHADEDGE
 70
     3
  9
$SHADEDIF
 70
    70
  9
$TILEMODE
 70
     1
  9
$MAXACTVP
 70
    64
  9
$PINSBASE
 10
0.0
 20
0.0
 30
0.0
  9
$PLIMCHECK
 70
     0
  9
$PEXTMIN
 10
1.0000000000E+20
 20
1.0000000000E+20
 30
1.0000000000E+20
  9
$PEXTMAX
 10
-1.0000000000E+20
 20
-1.0000000000E+20
 30
-1.0000000000E+20
  9
$PLIMMIN
 10
0.0
 20
0.0
  9
$PLIMMAX
 10
420.0
 20
297.0
  9
$UNITMODE
 70
     0
  9
$VISRETAIN
 70
     1
  9
$PLINEGEN
 70
     0
  9
$PSLTSCALE
 70
     1
  9
$TREEDEPTH
 70
  3020
  9
$CMLSTYLE
  2
Standard
  9
$CMLJUST
 70
     0
  9
$CMLSCALE
 40
20.0
  9
$PROXYGRAPHICS
 70
     1
  9
$MEASUREMENT
 70
     1
  9
$CELWEIGHT
370
    -1
  9
$ENDCAPS
280
     0
  9
$JOINSTYLE
280
     0
  9
$LWDISPLAY
290
     1
  9
$INSUNITS
 70
     4
  9
$HYPERLINKBASE
  1

  9
$STYLESHEET
  1

  9
$XEDIT
290
     1
  9
$CEPSNTYPE
380
     0
  9
$PSTYLEMODE
290
     1
  9
$FINGERPRINTGUID
  2
{4862C1B3-035A-4874-A8D4-CB457C2286AE}
  9
$VERSIONGUID
  2
{FAEB1C32-E019-11D5-929B-00C0DF256EC4}
  9
$EXTNAMES
290
     1
  9
$PSVPSCALE
 40
0.0
  9
$OLESTARTUP
290
     0
  0
ENDSEC
  0
SECTION
  2
CLASSES
  0
CLASS
  1
ACDBDICTIONARYWDFLT
  2
AcDbDictionaryWithDefault
  3
ObjectDBX Classes
 90
        0
280
     0
281
     0
  0
CLASS
  1
VISUALSTYLE
  2
AcDbVisualStyle
  3
ObjectDBX Classes
 90
     4095
280
     0
281
     0
  0
CLASS
  1
MATERIAL
  2
AcDbMaterial
  3
ObjectDBX Classes
 90
     1153
280
     0
281
     0
  0
CLASS
  1
SCALE
  2
AcDbScale
  3
ObjectDBX Classes
 90
     1153
280
     0
281
     0
  0
CLASS
  1
SUN
  2
AcDbSun
  3
SCENEOE
 90
     1153
280
     0
281
     0
  0
CLASS
  1
ACDBPLACEHOLDER
  2
AcDbPlaceHolder
  3
ObjectDBX Classes
 90
        0
280
     0
281
     0
  0
CLASS
  1
LAYOUT
  2
AcDbLayout
  3
ObjectDBX Classes
 90
        0
280
     0
281
     0
  0
ENDSEC
  0
SECTION
  2
TABLES
  0
TABLE
  2
VPORT
  5
8
330
0
100
AcDbSymbolTable
 70
     1
  0
VPORT
  5
29
330
8
100
AcDbSymbolTableRecord
100
AcDbViewportTableRecord
  2
*Active
 70
     0
 10
0.0
 20
0.0
 11
1.0
 21
1.0
 12
34.29
 22
5.0
 13
0.0
 23
0.0
 14
10.0
 24
10.0
 15
10.0
 25
10.0
 16
0.0
 26
0.0
 36
1.0
 17
0.0
 27
0.0
 37
0.0
 40
28.866
 41
3.7455830389
 42
50.0
 43
0.0
 44
0.0
 50
0.0
 51
0.0
 71
     0
 72
   100
 73
     1
 74
     3
 75
     0
 76
     0
 77
     0
 78
     0
281
     0
 65
     1
110
0.0
120
0.0
130
0.0
111
1.0
121
0.0
131
0.0
112
0.0
122
1.0
132
0.0
 79
     0
146
0.0
  0
ENDTAB
  0
TABLE
  2
LTYPE
  5
5
330
0
100
AcDbSymbolTable
 70
     6
  0
LTYPE
  5
14
330
5
100
AcDbSymbolTableRecord
100
AcDbLinetypeTableRecord
  2
ByBlock
 70
     0
  3

 72
    65
 73
     0
 40
0.0
  0
LTYPE
  5
15
330
5
100
AcDbSymbolTableRecord
100
AcDbLinetypeTableRecord
  2
ByLayer
 70
     0
  3

 72
    65
 73
     0
 40
0.0
  0
LTYPE
  5
16
330
5
100
AcDbSymbolTableRecord
100
AcDbLinetypeTableRecord
  2
Continuous
 70
     0
  3
Solid line
 72
    65
 73
     0
 40
0.0
  0
LTYPE
  5
6A
330
5
100
AcDbSymbolTableRecord
100
AcDbLinetypeTableRecord
  2
HIDDEN
 70
     0
  3
Hidden __ __ __ __ __ __ __ __ __ __ __ __ __ __
 72
    65
 73
     2
 40
1.905
 49
1.27
 74
     0
 49
-0.635
 74
     0
  0
LTYPE
  5
6B
330
5
100
AcDbSymbolTableRecord
100
AcDbLinetypeTableRecord
  2
PHANTOM
 70
     0
  3
Phantom ______  __  __  ______  __  __  ______
 72
    65
 73
     6
 40
12.7
 49
6.35
 74
     0
 49
-1.27
 74
     0
 49
1.27
 74
     0
 49
-1.27
 74
     0
 49
1.27
 74
     0
 49
-1.27
 74
     0
  0
LTYPE
  5
6C
330
5
100
AcDbSymbolTableRecord
100
AcDbLinetypeTableRecord
  2
CENTER
 70
     0
  3
Center ____ _ ____ _ ____ _ ____ _ ____ _ ____
 72
    65
 73
     4
 40
10.16
 49
6.35
 74
     0
 49
-1.27
 74
     0
 49
1.27
 74
     0
 49
-1.27
 74
     0
  0
LTYPE
  5
6D
330
5
100
AcDbSymbolTableRecord
100
AcDbLinetypeTableRecord
  2
CENTERX2
 70
     0
  3
Center (2x) ________  __  ________  __  _____
 72
    65
 73
     4
 40
20.32
 49
12.7
 74
     0
 49
-2.54
 74
     0
 49
2.54
 74
     0
 49
-2.54
 74
     0
  0
LTYPE
  5
6E
330
5
100
AcDbSymbolTableRecord
100
AcDbLinetypeTableRecord
  2
DOT2
 70
     0
  3
Dot (.5x) ........................................
 72
    65
 73
     2
 40
0.635
 49
0.0
 74
     0
 49
-0.635
 74
     0
  0
ENDTAB
  0
TABLE
  2
LAYER
  5
2
330
0
100
AcDbSymbolTable
 70
     1
  0
LAYER
  5
10
330
2
100
AcDbSymbolTableRecord
100
AcDbLayerTableRecord
  2
0
 70
     0
 62
     7
  6
Continuous
370
    -3
390
F
  0
ENDTAB
  0
TABLE
  2
STYLE
  5
3
330
0
100
AcDbSymbolTable
 70
     1
  0
STYLE
  5
11
330
3
100
AcDbSymbolTableRecord
100
AcDbTextStyleTableRecord
  2
Standard
 70
     0
 40
0.0
 41
1.0
 50
0.0
 71
     0
 42
3.5
  3
txt
  4

  0
ENDTAB
  0
TABLE
  2
VIEW
  5
6
330
0
100
AcDbSymbolTable
 70
     0
  0
ENDTAB
  0
TABLE
  2
UCS
  5
7
330
0
100
AcDbSymbolTable
 70
     0
  0
ENDTAB
  0
TABLE
  2
APPID
  5
9
330
0
100
AcDbSymbolTable
 70
     1
  0
APPID
  5
12
330
9
100
AcDbSymbolTableRecord
100
AcDbRegAppTableRecord
  2
ACAD
 70
     0
  0
ENDTAB
  0
TABLE
  2
DIMSTYLE
  5
A
330
0
100
AcDbSymbolTable
 70
     1
100
AcDbDimStyleTable
  0
DIMSTYLE
105
27
330
A
100
AcDbSymbolTableRecord
100
AcDbDimStyleTableRecord
  2
ISO-25
 70
     0
 41
2.5
 42
0.625
 43
3.75
 44
1.25
 73
     0
 74
     0
 77
     1
 78
     8
140
2.5
141
2.5
143
0.0393700787
147
0.625
171
     3
172
     1
178
     0
271
     2
272
     2
274
     3
278
    44
283
     0
284
     8
340
11
  0
ENDTAB
  0
TABLE
  2
BLOCK_RECORD
  5
1
330
0
100
AcDbSymbolTable
 70
     1
  0
BLOCK_RECORD
  5
1F
330
1
100
AcDbSymbolTableRecord
100
AcDbBlockTableRecord
  2
*Model_Space
340
22
  0
BLOCK_RECORD
  5
1B
330
1
100
AcDbSymbolTableRecord
100
AcDbBlockTableRecord
  2
*Paper_Space
340
1E
  0
BLOCK_RECORD
  5
23
330
1
100
AcDbSymbolTableRecord
100
AcDbBlockTableRecord
  2
*Paper_Space0
340
26
  0
ENDTAB
  0
ENDSEC
  0
SECTION
  2
BLOCKS
  0
BLOCK
  5
20
330
1F
100
AcDbEntity
  8
0
100
AcDbBlockBegin
  2
*Model_Space
 70
     0
 10
0.0
 20
0.0
 30
0.0
  3
*Model_Space
  1
*Model_Space
  0
ENDBLK
  5
21
330
1F
100
AcDbEntity
  8
0
100
AcDbBlockEnd
  0
BLOCK
  5
1C
330
1B
100
AcDbEntity
 67
     1
  8
0
100
AcDbBlockBegin
  2
*Paper_Space
 70
     0
 10
0.0
 20
0.0
 30
0.0
  3
*Paper_Space
  1
*Paper_Space
  0
ENDBLK
  5
1D
330
1B
100
AcDbEntity
 67
     1
  8
0
100
AcDbBlockEnd
  0
BLOCK
  5
24
330
23
100
AcDbEntity
  8
0
100
AcDbBlockBegin
  2
*Paper_Space0
 70
     0
 10
0.0
 20
0.0
 30
0.0
  3
*Paper_Space0
  1
*Paper_Space0
  0
ENDBLK
  5
25
330
23
100
AcDbEntity
  8
0
100
AcDbBlockEnd
  0
ENDSEC
  0
SECTION
  2
ENTITIES
  0
SPLINE
  5
6F
330
1F
100
AcDbEntity
  8
0
  6
Continuous
 62
     7
370
    15
100
AcDbSpline
210
0.0
220
0.0
230
1.0
 70
     8
 71
     3
 72
    23
 73
    19
 74
     0
 42
0.000000001
 43
0.00000001
 40
0.0
 40
0.0
 40
0.0
 40
0.0
 40
0.0559726706980517
 40
0.1088020120743734
 40
0.1602690124069336
 40
0.2103984508481397
 40
0.2599977547489531
 40
0.3107861462012518
 40
0.362140667784828
 40
0.4161415167337101
 40
0.4726868503361518
 40
0.533061634882351
 40
0.5976954380831161
 40
0.6669147426203016
 40
0.7420457038217827
 40
0.8217619770791004
 40
0.9080758073926878
 40
1.0
 40
1.0
 40
1.0
 40
1.0
 10
69.58932528409089
 20
4.425757575757822
 30
0.0
 10
69.54562293465818
 20
4.424977937306823
 30
0.0
 10
69.46067248488768
 20
4.423462443564942
 30
0.0
 10
69.33731144984792
 20
4.400779094790854
 30
0.0
 10
69.22136591018945
 20
4.368025335028098
 30
0.0
 10
69.11162429882232
 20
4.32368208105789
 30
0.0
 10
69.01154502666176
 20
4.261611522396401
 30
0.0
 10
68.91820685937839
 20
4.188454208280369
 30
0.0
 10
68.83326163776486
 20
4.100829966665613
 30
0.0
 10
68.75464984973588
 20
4.001739405076349
 30
0.0
 10
68.68531097291921
 20
3.887578442792351
 30
0.0
 10
68.62477361362284
 20
3.759265887735469
 30
0.0
 10
68.57675366586332
 20
3.615446146764786
 30
0.0
 10
68.5331921039206
 20
3.458263721552961
 30
0.0
 10
68.50390889885135
 20
3.285842397912891
 30
0.0
 10
68.47852732726683
 20
3.099479775740563
 30
0.0
 10
68.46594178127492
 20
2.898562988464877
 30
0.0
 10
68.46422711979633
 20
2.759596493837345
 30
0.0
 10
68.46334280303029
 20
2.687926136363882
 30
0.0
  0
SPLINE
  5
70
330
1F
100
AcDbEntity
  8
0
  6
Continuous
 62
     7
370
    15
100
AcDbSpline
210
0.0
220
0.0
230
1.0
 70
     8
 71
     3
 72
    23
 73
    19
 74
     0
 42
0.000000001
 43
0.00000001
 40
0.0
 40
0.0
 40
0.0
 40
0.0
 40
0.0837685101708694
 40
0.1637208592843725
 40
0.2381914309299542
 40
0.3094086415365205
 40
0.376404157742187
 40
0.4408592761720206
 40
0.5013818552670712
 40
0.5606795105896015
 40
0.6174994502108597
 40
0.6719804412577132
 40
0.7249238572335819
 40
0.7777781820981742
 40
0.8302960010102051
 40
0.8845913100993404
 40
0.9409830721510289
 40
1.0
 40
1.0
 40
1.0
 40
1.0
 10
70.73184422348481
 20
2.796164772727519
 30
0.0
 10
70.73095974229476
 20
2.858820539149763
 30
0.0
 10
70.72923107336938
 20
2.981277723798824
 30
0.0
 10
70.71639885929062
 20
3.159141618390611
 30
0.0
 10
70.69171081525418
 20
3.32620759558585
 30
0.0
 10
70.65948186321323
 20
3.482125073069702
 30
0.0
 10
70.61682123267117
 20
3.627733273163173
 30
0.0
 10
70.56684946744483
 20
3.76252345611986
 30
0.0
 10
70.50583876725759
 20
3.886446339105128
 30
0.0
 10
70.43526367985295
 20
3.998287210190667
 30
0.0
 10
70.35815001498962
 20
4.100445366453494
 30
0.0
 10
70.2692974343086
 20
4.185732141613109
 30
0.0
 10
70.17594496010146
 20
4.26139960692183
 30
0.0
 10
70.07310852065379
 20
4.320890787378892
 30
0.0
 10
69.96336696106052
 20
4.368875062793995
 30
0.0
 10
69.84526500025929
 20
4.400756987206075
 30
0.0
 10
69.7199747599881
 20
4.423397975141675
 30
0.0
 10
69.63353054930371
 20
4.424959204617664
 30
0.0
 10
69.58932528409089
 20
4.425757575757822
 30
0.0
  0
SPLINE
  5
71
330
1F
100
AcDbEntity
  8
0
  6
Continuous
 62
     7
370
    15
100
AcDbSpline
210
0.0
220
0.0
230
1.0
 70
     8
 71
     3
 72
    23
 73
    19
 74
     0
 42
0.000000001
 43
0.00000001
 40
0.0
 40
0.0
 40
0.0
 40
0.0
 40
0.0857241292984449
 40
0.1662940878084652
 40
0.2420434269102753
 40
0.3137369350414724
 40
0.3813335386462055
 40
0.4448865682952902
 40
0.5053712712536899
 40
0.5637093285858694
 40
0.6194419080473795
 40
0.6734133121574193
 40
0.7255038930088356
 40
0.7774091205498683
 40
0.8305096909142818
 40
0.8847710210061991
 40
0.9410200060235957
 40
1.0
 40
1.0
 40
1.0
 40
1.0
 10
68.46334280303027
 20
2.687926136363882
 30
0.0
 10
68.46421345495712
 20
2.623768698900089
 30
0.0
 10
68.46590241078735
 20
2.499311295523887
 30
0.0
 10
68.47875649455055
 20
2.318425054160616
 30
0.0
 10
68.50387876630519
 20
2.149571060203946
 30
0.0
 10
68.53370496900116
 20
1.991238511209807
 30
0.0
 10
68.5768571375072
 20
1.845530319788649
 30
0.0
 10
68.62521888781066
 20
1.71028149639578
 30
0.0
 10
68.68644552556908
 20
1.58802185944304
 30
0.0
 10
68.75453608482866
 20
1.476204816093037
 30
0.0
 10
68.83382878331693
 20
1.378241717249507
 30
0.0
 10
68.91877340941492
 20
1.291488176428595
 30
0.0
 10
69.01374599001376
 20
1.22042244755071
 30
0.0
 10
69.11543071196957
 20
1.160920568401704
 30
0.0
 10
69.22549932762261
 20
1.114203500470412
 30
0.0
 10
69.34371600628492
 20
1.081279430922025
 30
0.0
 10
69.4693736939984
 20
1.061233048091033
 30
0.0
 10
69.55567508638796
 20
1.059315057500894
 30
0.0
 10
69.59984848484847
 20
1.058333333333579
 30
0.0
  0
SPLINE
  5
72
330
1F
100
AcDbEntity
  8
0
  6
Continuous
 62
     7
370
    15
100
AcDbSpline
210
0.0
220
0.0
230
1.0
 70
     8
 71
     3
 72
    23
 73
    19
 74
     0
 42
0.000000001
 43
0.00000001
 40
0.0
 40
0.0
 40
0.0
 40
0.0
 40
0.055163354167776
 40
0.1083603490081524
 40
0.1590559325610965
 40
0.2090337817995049
 40
0.2583875292154081
 40
0.3086275591341278
 40
0.3598267869177088
 40
0.412663697520565
 40
0.4688337585655085
 40
0.5290259724358037
 40
0.5930745033318083
 40
0.662703401250304
 40
0.7383543444051102
 40
0.8191005053021454
 40
0.9064319712896707
 40
1.0
 40
1.0
 40
1.0
 40
1.0
 10
69.59984848484847
 20
1.058333333333579
 30
0.0
 10
69.643012641609
 20
1.05935977787181
 30
0.0
 10
69.72780232058665
 20
1.061376078187086
 30
0.0
 10
69.85108533493091
 20
1.080953270097524
 30
0.0
 10
69.96685323453677
 20
1.114740540425034
 30
0.0
 10
70.07540397639998
 20
1.159816375955522
 30
0.0
 10
70.17791663673717
 20
1.216997444786138
 30
0.0
 10
70.27083855421138
 20
1.290240347919634
 30
0.0
 10
70.35707726870787
 20
1.374925609543038
 30
0.0
 10
70.43614282417934
 20
1.472441600560451
 30
0.0
 10
70.50766770874094
 20
1.584231839598182
 30
0.0
 10
70.56645266402559
 20
1.712849043925633
 30
0.0
 10
70.61816772893371
 20
1.855528406091207
 30
0.0
 10
70.65972632596143
 20
2.0140992279913
 30
0.0
 10
70.69205457831421
 20
2.187987100347146
 30
0.0
 10
70.7164285647147
 20
2.377149844950678
 30
0.0
 10
70.72933675788714
 20
2.581508443159896
 30
0.0
 10
70.73098940973445
 20
2.722986826723441
 30
0.0
 10
70.73184422348481
 20
2.796164772727519
 30
0.0
  0
SPLINE
  5
79
330
1F
100
AcDbEntity
  8
0
  6
Continuous
 62
     7
370
    15
100
AcDbSpline
210
0.0
220
0.0
230
1.0
 70
     8
 71
     3
 72
    15
 73
    11
 74
     0
 42
0.000000001
 43
0.00000001
 40
0.0
 40
0.0
 40
0.0
 40
0.0
 40
0.13811038334608
 40
0.266875057046346
 40
0.3893415825315548
 40
0.5107420811325303
 40
0.6305257522016084
 40
0.7486373775327443
 40
0.8700378761337217
 40
1.0
 40
1.0
 40
1.0
 40
1.0
 10
36.16763967803028
 20
3.439583333333578
 30
0.0
 10
36.16276190533057
 20
3.509494613098951
 30
0.0
 10
36.15333643103995
 20
3.64458638768924
 30
0.0
 10
36.10465131572884
 20
3.837458979129643
 30
0.0
 10
36.0192102697152
 20
4.007275784066292
 30
0.0
 10
35.90824922417874
 20
4.155662726228562
 30
0.0
 10
35.77098482700926
 20
4.277765131275313
 30
0.0
 10
35.60934765590711
 20
4.364637511308619
 30
0.0
 10
35.42777710003527
 20
4.417598219819749
 30
0.0
 10
35.30009629859904
 20
4.422976724954697
 30
0.0
 10
35.23408143939393
 20
4.425757575757821
 30
0.0
  0
SPLINE
  5
E5
330
1F
100
AcDbEntity
  8
0
  6
Continuous
 62
     7
370
    15
100
AcDbSpline
210
0.0
220
0.0
230
1.0
 70
     8
 71
     3
 72
    15
 73
    11
 74
     0
 42
0.000000001
 43
0.00000001
 40
0.0
 40
0.0
 40
0.0
 40
0.0
 40
0.1263039691695818
 40
0.2426437684687918
 40
0.3542616709119235
 40
0.4687167967413606
 40
0.5880083061613915
 40
0.7133250819732255
 40
0.8505625157664659
 40
1.0
 40
1.0
 40
1.0
 40
1.0
 10
28.72322679924241
 20
1.745348011363881
 30
0.0
 10
28.72910684518772
 20
1.68519140203358
 30
0.0
 10
28.74040305793795
 20
1.569623961974662
 30
0.0
 10
28.79955124928989
 20
1.409383613673497
 30
0.0
 10
28.88884007125188
 20
1.271002667908753
 30
0.0
 10
29.01024041497817
 20
1.157528525754197
 30
0.0
 10
29.15774486981273
 20
1.068049641074492
 30
0.0
 10
29.33045931857538
 20
1.007802707353701
 30
0.0
 10
29.52361756019531
 20
0.9672541406056381
 30
0.0
 10
29.66056368227703
 20
0.9638800520798052
 30
0.0
 10
29.73195075757575
 20
0.9621212121214574
 30
0.0
  0
SPLINE
  5
E7
330
1F
100
AcDbEntity
  8
0
  6
Continuous
 62
     7
370
    15
100
AcDbSpline
210
0.0
220
0.0
230
1.0
 70
     8
 71
     3
 72
    15
 73
    11
 74
     0
 42
0.000000001
 43
0.00000001
 40
0.0
 40
0.0
 40
0.0
 40
0.0
 40
0.131142065305818
 40
0.251183152974294
 40
0.3645183698012511
 40
0.4755262285763242
 40
0.5885362888888097
 40
0.7097744790566977
 40
0.8452652584592918
 40
1.0
 40
1.0
 40
1.0
 40
1.0
 10
19.11253787878787
 20
3.65606060606085
 30
0.0
 10
19.1104275481328
 20
3.711882810352241
 30
0.0
 10
19.10638552312334
 20
3.818801953704064
 30
0.0
 10
19.07019759765939
 20
3.970776130975268
 30
0.0
 10
19.00756296776758
 20
4.104231159636671
 30
0.0
 10
18.92061341761207
 20
4.219712449258698
 30
0.0
 10
18.80638004120282
 20
4.314465762143273
 30
0.0
 10
18.66206868277478
 20
4.380593033169498
 30
0.0
 10
18.49013101165158
 20
4.41895073391031
 30
0.0
 10
18.36660593072399
 20
4.423390499407894
 30
0.0
 10
18.3007481060606
 20
4.425757575757821
 30
0.0
  0
SPLINE
  5
EA
330
1F
100
AcDbEntity
  8
0
  6
Continuous
 62
     7
370
    15
100
AcDbSpline
210
0.0
220
0.0
230
1.0
 70
     8
 71
     3
 72
    11
 73
     7
 74
     0
 42
0.000000001
 43
0.00000001
 40
0.0
 40
0.0
 40
0.0
 40
0.0
 40
0.2253345268459099
 40
0.4632297309574772
 40
0.7236058953675255
 40
1.0
 40
1.0
 40
1.0
 40
1.0
 10
19.32149857954545
 20
0.0000000000002446
 30
0.0
 10
19.30460994903817
 20
0.0352386603370359
 30
0.0
 10
19.26989127598067
 20
0.1076802669367927
 30
0.0
 10
19.23255637137541
 20
0.2275696625920467
 30
0.0
 10
19.19661140927341
 20
0.3569343400509359
 30
0.0
 10
19.18180031003115
 20
0.4487935463030578
 30
0.0
 10
19.17417376893939
 20
0.4960937500002446
 30
0.0
  0
SPLINE
  5
EB
330
1F
100
AcDbEntity
  8
0
  6
Continuous
 62
     7
370
    15
100
AcDbSpline
210
0.0
220
0.0
230
1.0
 70
     8
 71
     3
 72
    15
 73
    11
 74
     0
 42
0.000000001
 43
0.00000001
 40
0.0
 40
0.0
 40
0.0
 40
0.0
 40
0.1189708375096032
 40
0.2299977451200714
 40
0.3393238049095564
 40
0.4510211788932256
 40
0.5683938558283124
 40
0.6951804594504656
 40
0.8375762282471857
 40
1.0
 40
1.0
 40
1.0
 40
1.0
 10
30.52870738636362
 20
3.813908617424487
 30
0.0
 10
30.52692205367333
 20
3.863343070867755
 30
0.0
 10
30.52347059866424
 20
3.958911136632418
 30
0.0
 10
30.48159815173358
 20
4.094510482583215
 30
0.0
 10
30.41810604038353
 20
4.217319978035553
 30
0.0
 10
30.32771901979599
 20
4.325876631328191
 30
0.0
 10
30.20996386762523
 20
4.416967841891149
 30
0.0
 10
30.060988845085
 20
4.479353825324468
 30
0.0
 10
29.88512617900733
 20
4.516672300505406
 30
0.0
 10
29.75871809716556
 20
4.52012820862418
 30
0.0
 10
29.69136126893939
 20
4.521969696969942
 30
0.0
  0
SPLINE
  5
ED
330
1F
100
AcDbEntity
  8
0
  6
Continuous
 62
     7
370
    15
100
AcDbSpline
210
0.0
220
0.0
230
1.0
 70
     8
 71
     3
 72
    23
 73
    19
 74
     0
 42
0.000000001
 43
0.00000001
 40
0.0
 40
0.0
 40
0.0
 40
0.0
 40
0.0870325233148758
 40
0.1689957332708653
 40
0.2469529231635324
 40
0.3200621050239768
 40
0.3892696835555668
 40
0.4546362579135198
 40
0.5164651284717654
 40
0.5750160597712326
 40
0.6312680027711552
 40
0.6853287201946426
 40
0.7377753197555145
 40
0.7892112071959181
 40
0.8405741398740875
 40
0.892437259254571
 40
0.9451526627704812
 40
1.0
 40
1.0
 40
1.0
 40
1.0
 10
29.46436079545454
 20
2.215885416666912
 30
0.0
 10
29.38497805324115
 20
2.233074876443493
 30
0.0
 10
29.23083631152847
 20
2.26645257536374
 30
0.0
 10
29.00903056550631
 20
2.329282169007066
 30
0.0
 10
28.80204591990207
 20
2.395998521644507
 30
0.0
 10
28.60996540403244
 20
2.469484150206097
 30
0.0
 10
28.43388739637203
 20
2.550749375813452
 30
0.0
 10
28.27263135259014
 20
2.637968498509724
 30
0.0
 10
28.12566780264424
 20
2.730318921399081
 30
0.0
 10
27.99611332733011
 20
2.832489137642854
 30
0.0
 10
27.87901722941456
 20
2.93826366777739
 30
0.0
 10
27.77959980699194
 20
3.053548826860322
 30
0.0
 10
27.69483641439552
 20
3.174321551452755
 30
0.0
 10
27.62423830801675
 20
3.301291969743091
 30
0.0
 10
27.5725679212483
 20
3.43637929650748
 30
0.0
 10
27.53242682056774
 20
3.576454444915947
 30
0.0
 10
27.50975000433767
 20
3.723974018584172
 30
0.0
 10
27.50696317355604
 20
3.82435779658224
 30
0.0
 10
27.5055421401515
 20
3.875544507576002
 30
0.0
  0
SPLINE
  5
EE
330
1F
100
AcDbEntity
  8
0
  6
Continuous
 62
     7
370
    15
100
AcDbSpline
210
0.0
220
0.0
230
1.0
 70
     8
 71
     3
 72
    23
 73
    19
 74
     0
 42
0.000000001
 43
0.00000001
 40
0.0
 40
0.0
 40
0.0
 40
0.0
 40
0.0577767402687278
 40
0.1133399220655204
 40
0.1684249721732371
 40
0.2227362570387925
 40
0.2778895609326006
 40
0.3347205069518891
 40
0.3930460773141143
 40
0.4541746172283853
 40
0.5170270815646905
 40
0.5800644531833786
 40
0.6442770173599078
 40
0.710230936669121
 40
0.778326561766586
 40
0.8492816201504402
 40
0.9228623336075796
 40
1.0
 40
1.0
 40
1.0
 40
1.0
 10
27.5055421401515
 20
3.875544507576002
 30
0.0
 10
27.50706846067198
 20
3.935300090235388
 30
0.0
 10
27.51006262489851
 20
4.052521883124598
 30
0.0
 10
27.53990750025843
 20
4.224586174498705
 30
0.0
 10
27.58765982622069
 20
4.388609832923524
 30
0.0
 10
27.65515078209155
 20
4.545080378255286
 30
0.0
 10
27.73922704977259
 20
4.695413076043561
 30
0.0
 10
27.84529364364798
 20
4.83650754020734
 30
0.0
 10
27.97036575552275
 20
4.969267806996639
 30
0.0
 10
28.11052360129322
 20
5.095619757186738
 30
0.0
 10
28.26782859819011
 20
5.208489063041698
 30
0.0
 10
28.43713448787249
 20
5.308681978749243
 30
0.0
 10
28.61853994674404
 20
5.392777062502016
 30
0.0
 10
28.81151610806749
 20
5.46256903420498
 30
0.0
 10
29.01729376148505
 20
5.514009501145655
 30
0.0
 10
29.23357232428544
 20
5.553709492820611
 30
0.0
 10
29.46188269872595
 20
5.576117297221224
 30
0.0
 10
29.61765186674927
 20
5.57888600544299
 30
0.0
 10
29.69737452651514
 20
5.580303030303274
 30
0.0
  0
SPLINE
  5
EF
330
1F
100
AcDbEntity
  8
0
  6
Continuous
 62
     7
370
    15
100
AcDbSpline
210
0.0
220
0.0
230
1.0
 70
     8
 71
     3
 72
    15
 73
    11
 74
     0
 42
0.000000001
 43
0.00000001
 40
0.0
 40
0.0
 40
0.0
 40
0.0
 40
0.1605471957262259
 40
0.3041449730225452
 40
0.4362657224339661
 40
0.5581212483489498
 40
0.6724201760668992
 40
0.7804966434975618
 40
0.8875528710792444
 40
1.0
 40
1.0
 40
1.0
 40
1.0
 10
29.69136126893939
 20
4.521969696969942
 30
0.0
 10
29.63310210337258
 20
4.520024080854316
 30
0.0
 10
29.52273435599785
 20
4.516338252781626
 30
0.0
 10
29.36644604227205
 20
4.486926637292017
 30
0.0
 10
29.23095202897861
 20
4.434751685573671
 30
0.0
 10
29.11825004839465
 20
4.361557571816891
 30
0.0
 10
29.02747403156904
 20
4.274251448970583
 30
0.0
 10
28.96342205963287
 20
4.172416259038966
 30
0.0
 10
28.92108856305352
 20
4.059649342798579
 30
0.0
 10
28.91749298405038
 20
3.979660419386668
 30
0.0
 10
28.91565104166666
 20
3.938683712121458
 30
0.0
  0
SPLINE
  5
F0
330
1F
100
AcDbEntity
  8
0
  6
Continuous
 62
     7
370
    15
100
AcDbSpline
210
0.0
220
0.0
230
1.0
 70
     8
 71
     3
 72
    19
 73
    15
 74
     0
 42
0.000000001
 43
0.00000001
 40
0.0
 40
0.0
 40
0.0
 40
0.0
 40
0.0810448715724403
 40
0.160118146695508
 40
0.2393827426200134
 40
0.319904595342433
 40
0.4008867353445759
 40
0.4813838334387907
 40
0.5629055987108831
 40
0.6472935347531074
 40
0.7333511991284094
 40
0.8196920912939125
 40
0.908350545620248
 40
0.9999999999999999
 40
0.9999999999999999
 40
0.9999999999999999
 40
0.9999999999999999
 10
37.54166903409089
 20
1.89718276515176
 30
0.0
 10
37.53729468123426
 20
1.806181677475194
 30
0.0
 10
37.52865239136683
 20
1.626393305634501
 30
0.0
 10
37.46949471857776
 20
1.362874420928617
 30
0.0
 10
37.37389948641447
 20
1.111571802784497
 30
0.0
 10
37.24315964971559
 20
0.8739653174373099
 30
0.0
 10
37.07913869913713
 20
0.6563372364169466
 30
0.0
 10
36.88648753306611
 20
0.4620663954726474
 30
0.0
 10
36.66598322011475
 20
0.2936922231685175
 30
0.0
 10
36.41967357740951
 20
0.1530461663081769
 30
0.0
 10
36.15259561081135
 20
0.0427337340043249
 30
0.0
 10
35.87021653910474
 20
-0.0375049830422186
 30
0.0
 10
35.57404810654012
 20
-0.0867684462653763
 30
0.0
 10
35.37157404867816
 20
-0.093029608900513
 30
0.0
 10
35.26865767045454
 20
-0.0962121212118756
 30
0.0
  0
SPLINE
  5
F1
330
1F
100
AcDbEntity
  8
0
  6
Continuous
 62
     7
370
    15
100
AcDbSpline
210
0.0
220
0.0
230
1.0
 70
     8
 71
     3
 72
    23
 73
    19
 74
     0
 42
0.000000001
 43
0.00000001
 40
0.0
 40
0.0
 40
0.0
 40
0.0
 40
0.0707801761896173
 40
0.1392279294748672
 40
0.2054086476934399
 40
0.2696379412883871
 40
0.3324004253399954
 40
0.3951907708093945
 40
0.457638957381544
 40
0.5206263017428211
 40
0.5828570488651635
 40
0.6430010931191479
 40
0.7018516712501215
 40
0.7598138501068573
 40
0.8180770029240622
 40
0.8772708368186574
 40
0.9372863032136382
 40
1.0
 40
1.0
 40
1.0
 40
1.0
 10
17.7896212121212
 20
-0.0962121212118765
 30
0.0
 10
17.72393250490019
 20
-0.0946301651961841
 30
0.0
 10
17.59471973391527
 20
-0.0915183834453845
 30
0.0
 10
17.40484001500582
 20
-0.0711108886046682
 30
0.0
 10
17.22401618023173
 20
-0.0328599268834004
 30
0.0
 10
17.05198534773336
 20
0.0182065570522591
 30
0.0
 10
16.88773376370624
 20
0.0827019436520585
 30
0.0
 10
16.7332810153499
 20
0.1645473456959087
 30
0.0
 10
16.58638396216972
 20
0.2594746939211948
 30
0.0
 10
16.44999375634155
 20
0.3684494081414918
 30
0.0
 10
16.32830987739637
 20
0.4903019203834919
 30
0.0
 10
16.21770022506024
 20
0.6175293838801459
 30
0.0
 10
16.12861589368921
 20
0.7559136792541663
 30
0.0
 10
16.05106876943484
 20
0.8990982733040193
 30
0.0
 10
15.99518209399107
 20
1.052474820684112
 30
0.0
 10
15.95210091283767
 20
1.211693340993017
 30
0.0
 10
15.92822364341479
 20
1.379331166092514
 30
0.0
 10
15.92443877478854
 20
1.493222713968827
 30
0.0
 10
15.92250473484848
 20
1.551420454545699
 30
0.0
  0
SPLINE
  5
F2
330
1F
100
AcDbEntity
  8
0
  6
Continuous
 62
     7
370
    15
100
AcDbSpline
210
0.0
220
0.0
230
1.0
 70
     8
 71
     3
 72
    15
 73
    11
 74
     0
 42
0.000000001
 43
0.00000001
 40
0.0
 40
0.0
 40
0.0
 40
0.0
 40
0.1392033763931492
 40
0.2675883114402989
 40
0.3898450051367818
 40
0.5107880961161037
 40
0.6304225114287791
 40
0.7485232448146069
 40
0.870020159887244
 40
1.0
 40
1.0
 40
1.0
 40
1.0
 10
35.24310132575756
 20
1.058333333333578
 30
0.0
 10
35.30795796271786
 20
1.061261253932187
 30
0.0
 10
35.43263078617645
 20
1.066889546501759
 30
0.0
 10
35.61080649780633
 20
1.108732463662962
 30
0.0
 10
35.76823933285866
 20
1.182908370152141
 30
0.0
 10
35.90696253352523
 20
1.281595958060123
 30
0.0
 10
36.01810144225109
 20
1.407972343541628
 30
0.0
 10
36.10390269736889
 20
1.553038564698975
 30
0.0
 10
36.15339957878024
 20
1.719804685629347
 30
0.0
 10
36.16278742001056
 20
1.836741879609302
 30
0.0
 10
36.16763967803028
 20
1.89718276515176
 30
0.0
  0
SPLINE
  5
F3
330
1F
100
AcDbEntity
  8
0
  6
Continuous
 62
     7
370
    15
100
AcDbSpline
210
0.0
220
0.0
230
1.0
 70
     8
 71
     3
 72
    15
 73
    11
 74
     0
 42
0.000000001
 43
0.00000001
 40
0.0
 40
0.0
 40
0.0
 40
0.0
 40
0.1503398955026847
 40
0.2815027398872419
 40
0.3966579937558102
 40
0.5004004100746561
 40
0.6043647024471976
 40
0.7184164454002997
 40
0.8485662440980027
 40
0.9999999999999999
 40
0.9999999999999999
 40
0.9999999999999999
 40
0.9999999999999999
 10
64.674990530303
 20
3.532788825757822
 30
0.0
 10
64.67336099160916
 20
3.605678953447937
 30
0.0
 10
64.67030977486102
 20
3.742161492476523
 30
0.0
 10
64.63074726545636
 20
3.931067618105736
 30
0.0
 10
64.56940451670526
 20
4.090209987480942
 30
0.0
 10
64.47730135926102
 20
4.218991538924806
 30
0.0
 10
64.35246788410004
 20
4.315584231933634
 30
0.0
 10
64.19561656452954
 20
4.381056576819796
 30
0.0
 10
64.00681536810617
 20
4.419151818631127
 30
0.0
 10
63.87041183419402
 20
4.423447426514336
 30
0.0
 10
63.7970549242424
 20
4.425757575757822
 30
0.0
  0
SPLINE
  5
F4
330
1F
100
AcDbEntity
  8
0
  6
Continuous
 62
     7
370
    15
100
AcDbSpline
210
0.0
220
0.0
230
1.0
 70
     8
 71
     3
 72
    15
 73
    11
 74
     0
 42
0.000000001
 43
0.00000001
 40
0.0
 40
0.0
 40
0.0
 40
0.0
 40
0.1586955098670765
 40
0.3020464048087997
 40
0.4325489888345544
 40
0.5543972303861248
 40
0.6675313358953738
 40
0.774770168376391
 40
0.8832205819541123
 40
1.0
 40
1.0
 40
1.0
 40
1.0
 10
18.3007481060606
 20
4.42575757575782
 30
0.0
 10
18.24245456765719
 20
4.42453138551319
 30
0.0
 10
18.13150402020264
 20
4.422197568032706
 30
0.0
 10
17.97518990977401
 20
4.391145946231102
 30
0.0
 10
17.83733552049586
 20
4.344007576836414
 30
0.0
 10
17.72031602755004
 20
4.276579675708687
 30
0.0
 10
17.62668403727588
 20
4.191476087724503
 30
0.0
 10
17.55763980943609
 20
4.091137490372065
 30
0.0
 10
17.5173026906218
 20
3.974147258449813
 30
0.0
 10
17.51249662952371
 20
3.891392410546951
 30
0.0
 10
17.51000473484848
 20
3.848484848485093
 30
0.0
  0
SPLINE
  5
F5
330
1F
100
AcDbEntity
  8
0
  6
Continuous
 62
     7
370
    15
100
AcDbSpline
210
0.0
220
0.0
230
1.0
 70
     8
 71
     3
 72
    15
 73
    11
 74
     0
 42
0.000000001
 43
0.00000001
 40
0.0
 40
0.0
 40
0.0
 40
0.0
 40
0.1391260983733316
 40
0.2704310556527529
 40
0.3955242669118462
 40
0.5151125565486504
 40
0.6333846309188517
 40
0.752063839279217
 40
0.8735248211675941
 40
1.0
 40
1.0
 40
1.0
 40
1.0
 10
40.70764914772726
 20
4.425757575757822
 30
0.0
 10
40.65592805969298
 20
4.424553239280465
 30
0.0
 10
40.55539344684781
 20
4.422212269550554
 30
0.0
 10
40.41013329257289
 20
4.397217271856728
 30
0.0
 10
40.27561378675763
 20
4.358713690160865
 30
0.0
 10
40.15171816448548
 20
4.30424576574114
 30
0.0
 10
40.03983953170204
 20
4.232560503536098
 30
0.0
 10
39.93777685357639
 20
4.146439810256261
 30
0.0
 10
39.84831610960252
 20
4.042906140274534
 30
0.0
 10
39.7991639891952
 20
3.964930289637054
 30
0.0
 10
39.77409090909089
 20
3.925153882576002
 30
0.0
  0
SPLINE
  5
F6
330
1F
100
AcDbEntity
  8
0
  6
Continuous
 62
     7
370
    15
100
AcDbSpline
210
0.0
220
0.0
230
1.0
 70
     8
 71
     3
 72
    15
 73
    11
 74
     0
 42
0.000000001
 43
0.00000001
 40
0.0
 40
0.0
 40
0.0
 40
0.0
 40
0.134010475144227
 40
0.2602441956979931
 40
0.3812301829031784
 40
0.5009150078230165
 40
0.6203828427908292
 40
0.7415904838988677
 40
0.8668065470114321
 40
1.0
 40
1.0
 40
1.0
 40
1.0
 10
63.7970549242424
 20
4.425757575757822
 30
0.0
 10
63.74686925502689
 20
4.423826484363364
 30
0.0
 10
63.64941023843511
 20
4.420076364634074
 30
0.0
 10
63.50788924717525
 20
4.396757505368549
 30
0.0
 10
63.37723093379554
 20
4.352958335618337
 30
0.0
 10
63.25408998700491
 20
4.296873759903655
 30
0.0
 10
63.14197915500348
 20
4.220455105521538
 30
0.0
 10
63.04108008647744
 20
4.127291360435452
 30
0.0
 10
62.9472777657757
 20
4.019719041025502
 30
0.0
 10
62.89596062318243
 20
3.937477704062351
 30
0.0
 10
62.86950994318179
 20
3.895087594697215
 30
0.0
  0
SPLINE
  5
F7
330
1F
100
AcDbEntity
  8
0
  6
Continuous
 62
     7
370
    15
100
AcDbSpline
210
0.0
220
0.0
230
1.0
 70
     8
 71
     3
 72
    23
 73
    19
 74
     0
 42
0.000000001
 43
0.00000001
 40
0.0
 40
0.0
 40
0.0
 40
0.0
 40
0.0604516129728893
 40
0.1180435284593407
 40
0.1729894056835171
 40
0.2267460747285835
 40
0.279650064112543
 40
0.3325765772611998
 40
0.386177823118576
 40
0.4418859533953161
 40
0.4998523408689581
 40
0.559986149396218
 40
0.6234418161475364
 40
0.689968502040907
 40
0.7608494513256274
 40
0.8356988440295757
 40
0.9156040110186938
 40
0.9999999999999999
 40
0.9999999999999999
 40
0.9999999999999999
 40
0.9999999999999999
 10
15.92250473484848
 20
1.551420454545699
 30
0.0
 10
15.92451560354429
 20
1.62219587618059
 30
0.0
 10
15.92844221566347
 20
1.760398648399866
 30
0.0
 10
15.95928938976109
 20
1.960925165363393
 30
0.0
 10
16.00774836861876
 20
2.149945613976369
 30
0.0
 10
16.08165799434161
 20
2.324573305537267
 30
0.0
 10
16.17122367458473
 20
2.488945471022233
 30
0.0
 10
16.28391495946497
 20
2.638446434625067
 30
0.0
 10
16.41628777743925
 20
2.775130459057938
 30
0.0
 10
16.56885154525804
 20
2.898578401289868
 30
0.0
 10
16.74098491334045
 20
3.007546689524799
 30
0.0
 10
16.93016773225237
 20
3.104999935829672
 30
0.0
 10
17.13811934615671
 20
3.185068835944127
 30
0.0
 10
17.36378660862529
 20
3.251753859218844
 30
0.0
 10
17.60738578619789
 20
3.301468567239371
 30
0.0
 10
17.86881856882031
 20
3.339477677344216
 30
0.0
 10
18.14804381164083
 20
3.361455760837244
 30
0.0
 10
18.34029833484224
 20
3.365398823490265
 30
0.0
 10
18.43905303030302
 20
3.367424242424486
 30
0.0
  0
SPLINE
  5
F8
330
1F
100
AcDbEntity
  8
0
  6
Continuous
 62
     7
370
    15
100
AcDbSpline
210
0.0
220
0.0
230
1.0
 70
     8
 71
     3
 72
    23
 73
    19
 74
     0
 42
0.000000001
 43
0.00000001
 40
0.0
 40
0.0
 40
0.0
 40
0.0
 40
0.0575840093740641
 40
0.1115874834456137
 40
0.1631899942909279
 40
0.2135109573533598
 40
0.2628489191274652
 40
0.3127482174774567
 40
0.3627292510146594
 40
0.4145731567151196
 40
0.4695984801525464
 40
0.5282115578811141
 40
0.5919844517871592
 40
0.6612303563982989
 40
0.7366632744452232
 40
0.8182407641374225
 40
0.905731932684266
 40
1.0
 40
1.0
 40
1.0
 40
1.0
 10
35.23408143939393
 20
4.425757575757821
 30
0.0
 10
35.19240292991768
 20
4.424745386514854
 30
0.0
 10
35.11163745289077
 20
4.422783945281061
 30
0.0
 10
34.99495301096118
 20
4.403568427620002
 30
0.0
 10
34.8852396504936
 20
4.376280318730276
 30
0.0
 10
34.78445158256968
 20
4.332934619702706
 30
0.0
 10
34.68947104687368
 20
4.280634725712862
 30
0.0
 10
34.6041804549463
 20
4.213864544448622
 30
0.0
 10
34.52639721664579
 20
4.136148779706785
 30
0.0
 10
34.45669332450776
 20
4.046312748571134
 30
0.0
 10
34.39478232362199
 20
3.94355439397541
 30
0.0
 10
34.34248492222179
 20
3.826162124196776
 30
0.0
 10
34.29703226202246
 20
3.695028005271015
 30
0.0
 10
34.26254035488346
 20
3.548158411519972
 30
0.0
 10
34.23110690947915
 20
3.38747639302975
 30
0.0
 10
34.21344399822094
 20
3.211388962619076
 30
0.0
 10
34.2008635139431
 20
3.021345671127477
 30
0.0
 10
34.19917404986772
 20
2.889896332882034
 30
0.0
 10
34.19829782196968
 20
2.821721117424487
 30
0.0
  0
SPLINE
  5
F9
330
1F
100
AcDbEntity
  8
0
  6
Continuous
 62
     7
370
    15
100
AcDbSpline
210
0.0
220
0.0
230
1.0
 70
     8
 71
     3
 72
    15
 73
    11
 74
     0
 42
0.000000001
 43
0.00000001
 40
0.0
 40
0.0
 40
0.0
 40
0.0
 40
0.1332620869442595
 40
0.2604942190002817
 40
0.3840810311469896
 40
0.5051151963263184
 40
0.625486117353286
 40
0.7470378737756689
 40
0.8711553958812255
 40
1.0
 40
1.0
 40
1.0
 40
1.0
 10
24.53950284090907
 20
-0.0962121212118765
 30
0.0
 10
24.46671345533487
 20
-0.094320186097935
 30
0.0
 10
24.32442831946878
 20
-0.0906219237398528
 30
0.0
 10
24.11682207304236
 20
-0.0578594344864316
 30
0.0
 10
23.91995350959498
 20
-0.0063827364411859
 30
0.0
 10
23.73569190637619
 20
0.0706018499150723
 30
0.0
 10
23.56068702677054
 20
0.1646261535073494
 30
0.0
 10
23.40005787007464
 20
0.2842074354805699
 30
0.0
 10
23.24700243355207
 20
0.4206337155403823
 30
0.0
 10
23.15912207908875
 20
0.5274012998554749
 30
0.0
 10
23.11436079545453
 20
0.58178267045479
 30
0.0
  0
SPLINE
  5
FA
330
1F
100
AcDbEntity
  8
0
  6
Continuous
 62
     7
370
    15
100
AcDbSpline
210
0.0
220
0.0
230
1.0
 70
     8
 71
     3
 72
    23
 73
    19
 74
     0
 42
0.000000001
 43
0.00000001
 40
0.0
 40
0.0
 40
0.0
 40
0.0
 40
0.0692177180946146
 40
0.1339635706379305
 40
0.1952646974713736
 40
0.2535983629199082
 40
0.3093475903618459
 40
0.3635358487806667
 40
0.4172467469197545
 40
0.4710449562486458
 40
0.5260903388478405
 40
0.583229673229063
 40
0.642755945245093
 40
0.7058983325829606
 40
0.7730098389070326
 40
0.8440669126415239
 40
0.9194881917413651
 40
1.0
 40
1.0
 40
1.0
 40
1.0
 10
64.40589725378786
 20
5.580303030303275
 30
0.0
 10
64.47662272615052
 20
5.579069922961222
 30
0.0
 10
64.61350439566476
 20
5.57668337415452
 30
0.0
 10
64.8118809269703
 20
5.552363370533936
 30
0.0
 10
64.99597455574708
 20
5.511653116253805
 30
0.0
 10
65.1669857130933
 20
5.456993936002977
 30
0.0
 10
65.32300499256209
 20
5.383863266596755
 30
0.0
 10
65.46586245811879
 20
5.296402205640427
 30
0.0
 10
65.59484470418361
 20
5.192294815565703
 30
0.0
 10
65.70777431467057
 20
5.070008756193503
 30
0.0
 10
65.80968399827505
 20
4.934089803482315
 30
0.0
 10
65.89657573356085
 20
4.78123155691702
 30
0.0
 10
65.97026409323233
 20
4.612726949259775
 30
0.0
 10
66.0319784399213
 20
4.428697599367632
 30
0.0
 10
66.07959137727758
 20
4.228385805434796
 30
0.0
 10
66.11321228630777
 20
4.01269934174059
 30
0.0
 10
66.13663127576874
 20
3.78183260559136
 30
0.0
 10
66.14032053178964
 20
3.622547783201835
 30
0.0
 10
66.14222537878784
 20
3.540305397727519
 30
0.0
  0
SPLINE
  5
FB
330
1F
100
AcDbEntity
  8
0
  6
Continuous
 62
     7
370
    15
100
AcDbSpline
210
0.0
220
0.0
230
1.0
 70
     8
 71
     3
 72
    23
 73
    19
 74
     0
 42
0.000000001
 43
0.00000001
 40
0.0
 40
0.0
 40
0.0
 40
0.0
 40
0.0807188264897101
 40
0.1567542979964013
 40
0.2292459670396983
 40
0.2980708943768041
 40
0.3632440657990777
 40
0.4262156872438699
 40
0.4865597549804928
 40
0.5457137907149936
 40
0.6029494175415956
 40
0.6584488377038434
 40
0.7127022430984674
 40
0.7671207073650647
 40
0.8224128944296243
 40
0.8791954417511062
 40
0.9381794244643018
 40
1.0
 40
1.0
 40
1.0
 40
1.0
 10
26.67571259469695
 20
2.69093276515176
 30
0.0
 10
26.67390663908495
 20
2.584153087764418
 30
0.0
 10
26.67039951049448
 20
2.37678915425544
 30
0.0
 10
26.64540417043183
 20
2.074262822122873
 30
0.0
 10
26.60003224369528
 20
1.790099834249833
 30
0.0
 10
26.53899275783869
 20
1.523644747217554
 30
0.0
 10
26.46119746595726
 20
1.274591315881902
 30
0.0
 10
26.36344120193562
 20
1.044789248207238
 30
0.0
 10
26.24857623683194
 20
0.8320538057698035
 30
0.0
 10
26.11664155587471
 20
0.6385900546071197
 30
0.0
 10
25.9698008241153
 20
0.4642573566374991
 30
0.0
 10
25.80604075327424
 20
0.3151862420114103
 30
0.0
 10
25.63023246674052
 20
0.1869128680140964
 30
0.0
 10
25.43947122729318
 20
0.0822837869252808
 30
0.0
 10
25.23341339349412
 20
0.0028777103716973
 30
0.0
 10
25.01403070981442
 20
-0.0540735958731451
 30
0.0
 10
24.78117090265101
 20
-0.0894068383070021
 30
0.0
 10
24.62131008373417
 20
-0.0939084596230022
 30
0.0
 10
24.53950284090907
 20
-0.0962121212118765
 30
0.0
  0
SPLINE
  5
FC
330
1F
100
AcDbEntity
  8
0
  6
Continuous
 62
     7
370
    15
100
AcDbSpline
210
0.0
220
0.0
230
1.0
 70
     8
 71
     3
 72
    15
 73
    11
 74
     0
 42
0.000000001
 43
0.00000001
 40
0.0
 40
0.0
 40
0.0
 40
0.0
 40
0.1265296914762129
 40
0.2466116612401722
 40
0.3626129226831403
 40
0.4817011914460188
 40
0.6028154370455898
 40
0.7267697658306308
 40
0.856871517121517
 40
0.9999999999999999
 40
0.9999999999999999
 40
0.9999999999999999
 40
0.9999999999999999
 10
58.67225615530301
 20
6.930279356060851
 30
0.0
 10
58.67457446992248
 20
6.983691590400609
 30
0.0
 10
58.67909296208754
 20
7.087794269284905
 30
0.0
 10
58.72246172768858
 20
7.235919407276378
 30
0.0
 10
58.79360251826724
 20
7.368594611202468
 30
0.0
 10
58.89013530193656
 20
7.484826708852307
 30
0.0
 10
59.01137965793463
 20
7.580998554756847
 30
0.0
 10
59.15556145402687
 20
7.648442936871183
 30
0.0
 10
59.31885034063898
 20
7.690373688396715
 30
0.0
 10
59.43416361178723
 20
7.694702237057411
 30
0.0
 10
59.49456912878786
 20
7.696969696969942
 30
0.0
  0
SPLINE
  5
FD
330
1F
100
AcDbEntity
  8
0
  6
Continuous
 62
     7
370
    15
100
AcDbSpline
210
0.0
220
0.0
230
1.0
 70
     8
 71
     3
 72
    15
 73
    11
 74
     0
 42
0.000000001
 43
0.00000001
 40
0.0
 40
0.0
 40
0.0
 40
0.0
 40
0.1466689049741632
 40
0.2816079729996582
 40
0.4070423438483909
 40
0.5257329315889677
 40
0.6405179924889319
 40
0.7557574771556639
 40
0.8744105831638914
 40
1.0
 40
1.0
 40
1.0
 40
1.0
 10
30.84891335227272
 20
3.053231534091154
 30
0.0
 10
30.9406340050152
 20
3.016872520739126
 30
0.0
 10
31.11673995675437
 20
2.947062303964578
 30
0.0
 10
31.35497108462181
 20
2.810572180905191
 30
0.0
 10
31.55785402442179
 20
2.655239502802877
 30
0.0
 10
31.72495157328308
 20
2.479545084823782
 30
0.0
 10
31.85300700318156
 20
2.281787726664844
 30
0.0
 10
31.94619244175933
 20
2.06566292418243
 30
0.0
 10
32.00134098683777
 20
1.828755002061757
 30
0.0
 10
32.007703682818
 20
1.66446254828981
 30
0.0
 10
32.01097537878787
 20
1.579983428030548
 30
0.0
  0
SPLINE
  5
FE
330
1F
100
AcDbEntity
  8
0
  6
Continuous
 62
     7
370
    15
100
AcDbSpline
210
0.0
220
0.0
230
1.0
 70
     8
 71
     3
 72
    15
 73
    11
 74
     0
 42
0.000000001
 43
0.00000001
 40
0.0
 40
0.0
 40
0.0
 40
0.0
 40
0.1507559850051467
 40
0.2826115794695347
 40
0.3985830005276806
 40
0.5046630874551181
 40
0.6093688948072129
 40
0.722678100059195
 40
0.8512161659328026
 40
1.0
 40
1.0
 40
1.0
 40
1.0
 10
41.58558475378786
 20
3.496709280303275
 30
0.0
 10
41.58392862129585
 20
3.571086095279856
 30
0.0
 10
41.58082398688045
 20
3.710515048337524
 30
0.0
 10
41.54146303559926
 20
3.903987916742091
 30
0.0
 10
41.4791593338893
 20
4.067817504101266
 30
0.0
 10
41.3888069241212
 20
4.203302888038897
 30
0.0
 10
41.26404306711039
 20
4.306628540578176
 30
0.0
 10
41.10665431487388
 20
4.376386510469674
 30
0.0
 10
40.91799017354444
 20
4.42051058562575
 30
0.0
 10
40.78109416802383
 20
4.423925478119004
 30
0.0
 10
40.70764914772725
 20
4.425757575757821
 30
0.0
  0
SPLINE
  5
FF
330
1F
100
AcDbEntity
  8
0
  6
Continuous
 62
     7
370
    15
100
AcDbSpline
210
0.0
220
0.0
230
1.0
 70
     8
 71
     3
 72
    15
 73
    11
 74
     0
 42
0.000000001
 43
0.00000001
 40
0.0
 40
0.0
 40
0.0
 40
0.0
 40
0.1565176881125203
 40
0.3033926025605278
 40
0.4406776338005784
 40
0.5688954622370648
 40
0.6885071430193865
 40
0.799387204951397
 40
0.9038947812937839
 40
1.0
 40
1.0
 40
1.0
 40
1.0
 10
20.58428267045454
 20
1.265790719697214
 30
0.0
 10
20.5851199945781
 20
1.202623432113118
 30
0.0
 10
20.58674305678978
 20
1.08018048008682
 30
0.0
 10
20.6000046153615
 20
0.9027919365411077
 30
0.0
 10
20.61527134663602
 20
0.7370685648024995
 30
0.0
 10
20.63901498975458
 20
0.5833470839694725
 30
0.0
 10
20.67120506478131
 20
0.4421525307383729
 30
0.0
 10
20.70660824128695
 20
0.3116518548529389
 30
0.0
 10
20.74921942154282
 20
0.1931096109538703
 30
0.0
 10
20.78508267120537
 20
0.1204818500223134
 30
0.0
 10
20.80226325757575
 20
0.0856889204547901
 30
0.0
  0
SPLINE
  5
100
330
1F
100
AcDbEntity
  8
0
  6
Continuous
 62
     7
370
    15
100
AcDbSpline
210
0.0
220
0.0
230
1.0
 70
     8
 71
     3
 72
    15
 73
    11
 74
     0
 42
0.000000001
 43
0.00000001
 40
0.0
 40
0.0
 40
0.0
 40
0.0
 40
0.0888912173474042
 40
0.1739461884207109
 40
0.2642339848162473
 40
0.3646975046156793
 40
0.4848380602677576
 40
0.6296067285862879
 40
0.8016930743768597
 40
1.0
 40
1.0
 40
1.0
 40
1.0
 10
30.58433001893938
 20
1.528870738636608
 30
0.0
 10
30.58139870221171
 20
1.571013113248707
 30
0.0
 10
30.57566257453736
 20
1.653479139179293
 30
0.0
 10
30.52191227285206
 20
1.769140081041187
 30
0.0
 10
30.43377042592457
 20
1.866724967278776
 30
0.0
 10
30.3124186013588
 20
1.951082217566883
 30
0.0
 10
30.15498002267512
 20
2.022583599215613
 30
0.0
 10
29.96116977720981
 20
2.093508771539744
 30
0.0
 10
29.72642813856164
 20
2.157846348318013
 30
0.0
 10
29.55574421573217
 20
2.19564707444324
 30
0.0
 10
29.46436079545454
 20
2.215885416666912
 30
0.0
  0
SPLINE
  5
101
330
1F
100
AcDbEntity
  8
0
  6
Continuous
 62
     7
370
    15
100
AcDbSpline
210
0.0
220
0.0
230
1.0
 70
     8
 71
     3
 72
    23
 73
    19
 74
     0
 42
0.000000001
 43
0.00000001
 40
0.0
 40
0.0
 40
0.0
 40
0.0
 40
0.0949189872405921
 40
0.1824244306832289
 40
0.2640588180705638
 40
0.3394662159378578
 40
0.4081802501266631
 40
0.4721137958914433
 40
0.5302766728091348
 40
0.584527479956043
 40
0.6354326264138426
 40
0.6850297609527539
 40
0.7341286117970217
 40
0.7836875946883327
 40
0.8339994153575819
 40
0.8865365349840688
 40
0.9414845316012032
 40
1.0
 40
1.0
 40
1.0
 40
1.0
 10
34.19829782196968
 20
2.66687973484873
 30
0.0
 10
34.19918328180625
 20
2.597705690299258
 30
0.0
 10
34.2008850436062
 20
2.464760364376127
 30
0.0
 10
34.21325859743948
 20
2.272668580196581
 30
0.0
 10
34.23174327813869
 20
2.095331310557262
 30
0.0
 10
34.2603167950513
 20
1.93318824299795
 30
0.0
 10
34.29601724481923
 20
1.785717099718047
 30
0.0
 10
34.34045731679362
 20
1.653697273038419
 30
0.0
 10
34.39373922603426
 20
1.536607514183967
 30
0.0
 10
34.45292989076354
 20
1.432911442718337
 30
0.0
 10
34.52408568128657
 20
1.345001528270667
 30
0.0
 10
34.60060829218209
 20
1.26702660295095
 30
0.0
 10
34.68730532293836
 20
1.201831186159346
 30
0.0
 10
34.78260232975384
 20
1.149254169744695
 30
0.0
 10
34.88608779926201
 20
1.10797566972188
 30
0.0
 10
34.99794926203909
 20
1.080438976943776
 30
0.0
 10
35.11767908318127
 20
1.06133964043337
 30
0.0
 10
35.20042667295994
 20
1.05935622296664
 30
0.0
 10
35.24310132575756
 20
1.058333333333578
 30
0.0
  0
SPLINE
  5
102
330
1F
100
AcDbEntity
  8
0
  6
Continuous
 62
     7
370
    15
100
AcDbSpline
210
0.0
220
0.0
230
1.0
 70
     8
 71
     3
 72
    15
 73
    11
 74
     0
 42
0.000000001
 43
0.00000001
 40
0.0
 40
0.0
 40
0.0
 40
0.0
 40
0.1259024226826782
 40
0.2483204940949338
 40
0.3693732154682602
 40
0.4901161206796863
 40
0.6128893654549659
 40
0.7372840995282545
 40
0.8663341553391977
 40
1.0
 40
1.0
 40
1.0
 40
1.0
 10
19.17417376893939
 20
0.4960937500002446
 30
0.0
 10
19.12902311045116
 20
0.4489843778796863
 30
0.0
 10
19.03997133856616
 20
0.3560693861565881
 30
0.0
 10
18.89099973639044
 20
0.2353531056229251
 30
0.0
 10
18.73283659605525
 20
0.1318069119434556
 30
0.0
 10
18.56245172852465
 20
0.0496923666077143
 30
0.0
 10
18.38389365690134
 20
-0.0180184526269262
 30
0.0
 10
18.19359112558099
 20
-0.0614082049732309
 30
0.0
 10
17.99505350208239
 20
-0.0918388643778778
 30
0.0
 10
17.85889604855213
 20
-0.0947373936902056
 30
0.0
 10
17.7896212121212
 20
-0.0962121212118765
 30
0.0
  0
SPLINE
  5
103
330
1F
100
AcDbEntity
  8
0
  6
Continuous
 62
     7
370
    15
100
AcDbSpline
210
0.0
220
0.0
230
1.0
 70
     8
 71
     3
 72
    31
 73
    27
 74
     0
 42
0.000000001
 43
0.00000001
 40
0.0
 40
0.0
 40
0.0
 40
0.0
 40
0.0466239548811766
 40
0.0923192488004494
 40
0.1368326850316797
 40
0.1806872855018436
 40
0.2236977287949622
 40
0.2659300816078866
 40
0.3075235790489837
 40
0.3490875356501036
 40
0.3900097060332552
 40
0.4301683812428483
 40
0.4700554569235842
 40
0.5090959601221479
 40
0.5480041008849412
 40
0.5870068320809185
 40
0.6263294688106963
 40
0.6658965461170642
 40
0.7057266127179588
 40
0.7461884685573194
 40
0.7864311658135573
 40
0.8273518354294807
 40
0.868939426381276
 40
0.9115193525980833
 40
0.9551183372067705
 40
1.0
 40
1.0
 40
1.0
 40
1.0
 10
66.99761126893937
 20
2.79315814393964
 30
0.0
 10
66.99831987472065
 20
2.859837414486704
 30
0.0
 10
66.99972297219685
 20
2.99186783067845
 30
0.0
 10
67.01565716958265
 20
3.186995490301072
 30
0.0
 10
67.03914320562137
 20
3.377299244862345
 30
0.0
 10
67.07357704893633
 20
3.562110114514125
 30
0.0
 10
67.11898912770917
 20
3.741132124606277
 30
0.0
 10
67.17307530955448
 20
3.914320804035218
 30
0.0
 10
67.23629572714108
 20
4.082219773017478
 30
0.0
 10
67.30977568225634
 20
4.243827141548392
 30
0.0
 10
67.39205785978581
 20
4.398842908342148
 30
0.0
 10
67.48443799182135
 20
4.545237962135865
 30
0.0
 10
67.5845016448039
 20
4.683165884056757
 30
0.0
 10
67.69343784673134
 20
4.811916944265477
 30
0.0
 10
67.81106011866397
 20
4.930996167682257
 30
0.0
 10
67.93767057268268
 20
5.041119595639708
 30
0.0
 10
68.07325412334087
 20
5.141486656684346
 30
0.0
 10
68.21591505768221
 20
5.233795749467506
 30
0.0
 10
68.36724060355964
 20
5.314485771292429
 30
0.0
 10
68.5236146051443
 20
5.387411021238186
 30
0.0
 10
68.6878772902396
 20
5.444979213015824
 30
0.0
 10
68.8559673405236
 20
5.495963136101259
 30
0.0
 10
69.03128743662579
 20
5.532044683059184
 30
0.0
 10
69.211578337777
 20
5.562278179184474
 30
0.0
 10
69.39869605630237
 20
5.575970190390518
 30
0.0
 10
69.52517105110242
 20
5.578844859253172
 30
0.0
 10
69.58932528409089
 20
5.580303030303275
 30
0.0
  0
SPLINE
  5
104
330
1F
100
AcDbEntity
  8
0
  6
Continuous
 62
     7
370
    15
100
AcDbSpline
210
0.0
220
0.0
230
1.0
 70
     8
 71
     3
 72
    39
 73
    35
 74
     0
 42
0.000000001
 43
0.00000001
 40
0.0
 40
0.0
 40
0.0
 40
0.0
 40
0.0355457650380488
 40
0.0695457416832654
 40
0.1022291751335042
 40
0.1336374587812512
 40
0.1642611140239041
 40
0.1944082142099945
 40
0.2241599138555659
 40
0.2540818554622234
 40
0.2837600763699278
 40
0.3129478676737686
 40
0.3419480413338014
 40
0.3711628333754265
 40
0.4011763546483686
 40
0.4318890035875778
 40
0.4640297804246539
 40
0.4974939510787873
 40
0.5311321130027986
 40
0.5631002349459433
 40
0.5939827383264014
 40
0.6237751811861668
 40
0.6531478432095568
 40
0.682296647090316
 40
0.7114532526263252
 40
0.7411355604581255
 40
0.7710575020647824
 40
0.8010508088068756
 40
0.8314258913083314
 40
0.8625343994550164
 40
0.8946600765341054
 40
0.9281975690993971
 40
0.9632359380047815
 40
1.0
 40
1.0
 40
1.0
 40
1.0
 10
54.97560606060606
 20
2.686422821969943
 30
0.0
 10
54.97378538109163
 20
2.584106029737137
 30
0.0
 10
54.97022319845013
 20
2.383921923561164
 30
0.0
 10
54.93650826241694
 20
2.091203234957891
 30
0.0
 10
54.88116144955686
 20
1.814123843550463
 30
0.0
 10
54.80467764089971
 20
1.552104791833352
 30
0.0
 10
54.70516802874409
 20
1.305717101704545
 30
0.0
 10
54.58307937906683
 20
1.07511907347886
 30
0.0
 10
54.43935305556553
 20
0.8596948258411492
 30
0.0
 10
54.27403348971504
 20
0.6622574322736539
 30
0.0
 10
54.09184296050242
 20
0.4822966481531814
 30
0.0
 10
53.88987873554471
 20
0.3292668845777903
 30
0.0
 10
53.6756012297443
 20
0.1966987656710781
 30
0.0
 10
53.44469340253065
 20
0.089871080752103
 30
0.0
 10
53.19961840104867
 20
0.0051279597359189
 30
0.0
 10
52.93823385044691
 20
-0.0527194830983934
 30
0.0
 10
52.6630822072911
 20
-0.0888167863777193
 30
0.0
 10
52.37738234074106
 20
-0.099947670417184
 30
0.0
 10
52.09215317230162
 20
-0.08899939829176
 30
0.0
 10
51.81656138362982
 20
-0.0524383733483767
 30
0.0
 10
51.55580106461377
 20
0.0050053011972579
 30
0.0
 10
51.30996303688902
 20
0.0885780693300475
 30
0.0
 10
51.07891625186727
 20
0.1954892214974194
 30
0.0
 10
50.86254486417653
 20
0.3264938744821115
 30
0.0
 10
50.66340477980521
 20
0.4836040472647506
 30
0.0
 10
50.47794980185288
 20
0.6599426241524712
 30
0.0
 10
50.31347018411324
 20
0.8591288807187825
 30
0.0
 10
50.16725679555672
 20
1.074531416422444
 30
0.0
 10
50.04761467353158
 20
1.309661186249879
 30
0.0
 10
49.94812378598245
 20
1.560320240457767
 30
0.0
 10
49.86947604054467
 20
1.827923523810486
 30
0.0
 10
49.81478003626479
 20
2.112828296510223
 30
0.0
 10
49.78095829226931
 20
2.414504454302521
 30
0.0
 10
49.77744198229421
 20
2.621187226856295
 30
0.0
 10
49.77564157196969
 20
2.727012310606306
 30
0.0
  0
SPLINE
  5
105
330
1F
100
AcDbEntity
  8
0
  6
Continuous
 62
     7
370
    15
100
AcDbSpline
210
0.0
220
0.0
230
1.0
 70
     8
 71
     3
 72
    23
 73
    19
 74
     0
 42
0.000000001
 43
0.00000001
 40
0.0
 40
0.0
 40
0.0
 40
0.0
 40
0.0674798575255691
 40
0.1320322807471679
 40
0.1945044263423741
 40
0.2551778830004547
 40
0.3144161739924289
 40
0.3734702669668889
 40
0.4325866056092551
 40
0.4925143600744226
 40
0.5526120898924186
 40
0.6126682375744837
 40
0.672853657556736
 40
0.7341676381611848
 40
0.7968692923718432
 40
0.8617594501298953
 40
0.9295675788907078
 40
1.0
 40
1.0
 40
1.0
 40
1.0
 10
46.49841619318182
 20
5.580303030303274
 30
0.0
 10
46.58921824015185
 20
5.578401226292558
 30
0.0
 10
46.76688312857315
 20
5.574680122984451
 30
0.0
 10
47.02688450337642
 20
5.542027134902905
 30
0.0
 10
47.27447400852097
 20
5.490675920088573
 30
0.0
 10
47.50805069598026
 20
5.414366175899964
 30
0.0
 10
47.72999081863882
 20
5.320032226804235
 30
0.0
 10
47.93748974227849
 20
5.201309242926914
 30
0.0
 10
48.13473805844644
 20
5.064685742383584
 30
0.0
 10
48.31591088975023
 20
4.904996770115186
 30
0.0
 10
48.48104810265147
 20
4.727377259450185
 30
0.0
 10
48.62959321391936
 20
4.534990282756302
 30
0.0
 10
48.75565160166497
 20
4.325355159870021
 30
0.0
 10
48.8651129687737
 20
4.102639176994045
 30
0.0
 10
48.9514138366229
 20
3.863192130726711
 30
0.0
 10
49.02103133511886
 20
3.609521678317313
 30
0.0
 10
49.07084477201249
 20
3.340403636151693
 30
0.0
 10
49.08760451496745
 20
3.155138941483639
 30
0.0
 10
49.0961434659091
 20
3.060748106060851
 30
0.0
  0
SPLINE
  5
106
330
1F
100
AcDbEntity
  8
0
  6
Continuous
 62
     7
370
    15
100
AcDbSpline
210
0.0
220
0.0
230
1.0
 70
     8
 71
     3
 72
    19
 73
    15
 74
     0
 42
0.000000001
 43
0.00000001
 40
0.0
 40
0.0
 40
0.0
 40
0.0
 40
0.0512034026841107
 40
0.1003254286747328
 40
0.1521739594930404
 40
0.209237650400261
 40
0.2770589642705207
 40
0.360555401009922
 40
0.459098743203577
 40
0.5748044406868156
 40
0.694283611333276
 40
0.8049372779043551
 40
0.9070583013551552
 40
1.0
 40
1.0
 40
1.0
 40
1.0
 10
28.91565104166666
 20
3.938683712121458
 30
0.0
 10
28.91858970591595
 20
3.900187034869102
 30
0.0
 10
28.92434758010177
 20
3.824758538998966
 30
0.0
 10
28.96928419274907
 20
3.717558125411877
 30
0.0
 10
29.04437318801768
 20
3.624266791252098
 30
0.0
 10
29.15011995102281
 20
3.542554613316605
 30
0.0
 10
29.29058619500892
 20
3.472585235014495
 30
0.0
 10
29.46671144439472
 20
3.40779277498764
 30
0.0
 10
29.68233724649119
 20
3.348716147448716
 30
0.0
 10
29.92701474437059
 20
3.295554948552545
 30
0.0
 10
30.18134163688006
 20
3.244185333886688
 30
0.0
 10
30.42366009451474
 20
3.185574695557066
 30
0.0
 10
30.64452870073773
 20
3.123395213248274
 30
0.0
 10
30.78295652896509
 20
3.0758740043257
 30
0.0
 10
30.84891335227272
 20
3.053231534091154
 30
0.0
  0
SPLINE
  5
107
330
1F
100
AcDbEntity
  8
0
  6
Continuous
 62
     7
370
    15
100
AcDbSpline
210
0.0
220
0.0
230
1.0
 70
     8
 71
     3
 72
    23
 73
    19
 74
     0
 42
0.000000001
 43
0.00000001
 40
0.0
 40
0.0
 40
0.0
 40
0.0
 40
0.0576438569884323
 40
0.1131701188428468
 40
0.1668917867135813
 40
0.2207272389317935
 40
0.2751791477175077
 40
0.3305790332769812
 40
0.3882846198669184
 40
0.4490626505817387
 40
0.5114735666267307
 40
0.5749888736208026
 40
0.6394690253270282
 40
0.7063028722168995
 40
0.7751796940995371
 40
0.8468368826327377
 40
0.921659831084191
 40
1.0
 40
1.0
 40
1.0
 40
1.0
 10
32.01097537878787
 20
1.579983428030548
 30
0.0
 10
32.00892183588822
 20
1.518722252916695
 30
0.0
 10
32.00489018869901
 20
1.398450383019466
 30
0.0
 10
31.97414748868848
 20
1.223240886754534
 30
0.0
 10
31.92429031528578
 20
1.05693132976715
 30
0.0
 10
31.85333590338799
 20
0.8994818107282195
 30
0.0
 10
31.76033187118876
 20
0.7520685989326039
 30
0.0
 10
31.64990755193914
 20
0.6119810759313196
 30
0.0
 10
31.51768918531778
 20
0.4823050386317356
 30
0.0
 10
31.36638391495353
 20
0.3633468384654833
 30
0.0
 10
31.19965810182038
 20
0.2554370386503553
 30
0.0
 10
31.02064695078281
 20
0.1607442963871865
 30
0.0
 10
30.8296712350744
 20
0.0801533379282838
 30
0.0
 10
30.62645474820593
 20
0.0166836335643667
 30
0.0
 10
30.41215703513551
 20
-0.03512687750175
 30
0.0
 10
30.18593608524795
 20
-0.0706711460087567
 30
0.0
 10
29.94782974033577
 20
-0.0917468215568375
 30
0.0
 10
29.78511177223438
 20
-0.0947010742852776
 30
0.0
 10
29.70188446969696
 20
-0.0962121212118765
 30
0.0
  0
SPLINE
  5
108
330
1F
100
AcDbEntity
  8
0
  6
Continuous
 62
     7
370
    15
100
AcDbSpline
210
0.0
220
0.0
230
1.0
 70
     8
 71
     3
 72
    15
 73
    11
 74
     0
 42
0.000000001
 43
0.00000001
 40
0.0
 40
0.0
 40
0.0
 40
0.0
 40
0.1267783793530645
 40
0.2496965147843253
 40
0.3709454219026071
 40
0.49209205240453
 40
0.6134227187412208
 40
0.7375650686540686
 40
0.8664265316473506
 40
0.9999999999999999
 40
0.9999999999999999
 40
0.9999999999999999
 40
0.9999999999999999
 10
23.19553977272725
 20
4.987997159091153
 30
0.0
 10
23.23867550244583
 20
5.035067695528274
 30
0.0
 10
23.32363353257976
 20
5.127775529130136
 30
0.0
 10
23.46646852805119
 20
5.248750316325312
 30
0.0
 10
23.61912953913458
 20
5.351786463535844
 30
0.0
 10
23.78195478283937
 20
5.436247358159125
 30
0.0
 10
23.95493866307388
 20
5.501837518127383
 30
0.0
 10
24.13843838911206
 20
5.545626716466701
 30
0.0
 10
24.33104620169502
 20
5.575905538594585
 30
0.0
 10
24.46321302083823
 20
5.578819758180693
 30
0.0
 10
24.53048295454543
 20
5.580303030303273
 30
0.0
  0
SPLINE
  5
109
330
1F
100
AcDbEntity
  8
0
  6
Continuous
 62
     7
370
    15
100
AcDbSpline
210
0.0
220
0.0
230
1.0
 70
     8
 71
     3
 72
    23
 73
    19
 74
     0
 42
0.000000001
 43
0.00000001
 40
0.0
 40
0.0
 40
0.0
 40
0.0
 40
0.0782270431217299
 40
0.1530410385075122
 40
0.2243897517721877
 40
0.2930660980220013
 40
0.3586165279212327
 40
0.4224126268633041
 40
0.4845651356041235
 40
0.5463116120730208
 40
0.6063334618188946
 40
0.6632937946639907
 40
0.7191861628605407
 40
0.7741068189416538
 40
0.8286676947076126
 40
0.8840231881633012
 40
0.9411505191966313
 40
1.0
 40
1.0
 40
1.0
 40
1.0
 10
29.69737452651514
 20
5.580303030303275
 30
0.0
 10
29.78210595994082
 20
5.578879089336776
 30
0.0
 10
29.94787199235389
 20
5.576093333981724
 30
0.0
 10
30.19016629828959
 20
5.55380017228812
 30
0.0
 10
30.41968040139177
 20
5.514395539079363
 30
0.0
 10
30.63611321968383
 20
5.461112472016945
 30
0.0
 10
30.8392131479005
 20
5.391352825366678
 30
0.0
 10
31.0291714194639
 20
5.307427543494527
 30
0.0
 10
31.20669769618402
 20
5.207662485192453
 30
0.0
 10
31.36954709360196
 20
5.092370202950883
 30
0.0
 10
31.51630272091012
 20
4.965663103505545
 30
0.0
 10
31.64460167021
 20
4.828762712455671
 30
0.0
 10
31.75317811436008
 20
4.682609637699636
 30
0.0
 10
31.84316068827308
 20
4.527134591763533
 30
0.0
 10
31.91036129686303
 20
4.36127496741051
 30
0.0
 10
31.96124929283471
 20
4.187277240867703
 30
0.0
 10
31.98920809233615
 20
4.003221551867774
 30
0.0
 10
31.99367540882064
 20
3.877634546362913
 30
0.0
 10
31.99594223484847
 20
3.813908617424487
 30
0.0
  0
SPLINE
  5
10A
330
1F
100
AcDbEntity
  8
0
  6
Continuous
 62
     7
370
    15
100
AcDbSpline
210
0.0
220
0.0
230
1.0
 70
     8
 71
     3
 72
    19
 73
    15
 74
     0
 42
0.000000001
 43
0.00000001
 40
0.0
 40
0.0
 40
0.0
 40
0.0
 40
0.1006404532173153
 40
0.1963448545232176
 40
0.2885267453270039
 40
0.3774447178568887
 40
0.4631594776949723
 40
0.5454515359403057
 40
0.6252149375760999
 40
0.7036640290806655
 40
0.7801345205222668
 40
0.853900427008241
 40
0.926727608956561
 40
1.0
 40
1.0
 40
1.0
 40
1.0
 10
29.70188446969696
 20
-0.0962121212118765
 30
0.0
 10
29.58995708295745
 20
-0.0936419939576039
 30
0.0
 10
29.37159194484468
 20
-0.088627794938085
 30
0.0
 10
29.05374400906894
 20
-0.0403017996437561
 30
0.0
 10
28.75497518677069
 20
0.0352211494453747
 30
0.0
 10
28.47745626220824
 20
0.1420295651431164
 30
0.0
 10
28.22474410755402
 20
0.276182937174854
 30
0.0
 10
27.99661123614133
 20
0.4319194521993182
 30
0.0
 10
27.80018245174113
 20
0.6145072853842399
 30
0.0
 10
27.63237397873349
 20
0.815204968379786
 30
0.0
 10
27.49977460543911
 20
1.033297215283009
 30
0.0
 10
27.40385953970072
 20
1.262725999884539
 30
0.0
 10
27.34411344187549
 20
1.501299535845839
 30
0.0
 10
27.3364862180016
 20
1.663833423069253
 30
0.0
 10
27.33266098484848
 20
1.745348011363881
 30
0.0
  0
SPLINE
  5
10B
330
1F
100
AcDbEntity
  8
0
  6
Continuous
 62
     7
370
    15
100
AcDbSpline
210
0.0
220
0.0
230
1.0
 70
     8
 71
     3
 72
    23
 73
    19
 74
     0
 42
0.000000001
 43
0.00000001
 40
0.0
 40
0.0
 40
0.0
 40
0.0
 40
0.0670736683796165
 40
0.1307425684677181
 40
0.1919388197534347
 40
0.2508556710054287
 40
0.3086161431169713
 40
0.3657821189346284
 40
0.423265924565246
 40
0.481322952304578
 40
0.5401760401462209
 40
0.5995414650385374
 40
0.6599521560645984
 40
0.7223742962628309
 40
0.7868129185934378
 40
0.854318345126719
 40
0.925225747668066
 40
1.0
 40
1.0
 40
1.0
 40
1.0
 10
35.26865767045454
 20
-0.0962121212118756
 30
0.0
 10
35.17284364528502
 20
-0.0938896636837588
 30
0.0
 10
34.98607927040405
 20
-0.0893626403418307
 30
0.0
 10
34.71362043586228
 20
-0.0544969522691102
 30
0.0
 10
34.4573683359516
 20
0.0040127393634648
 30
0.0
 10
34.21605483982881
 20
0.0850669683939518
 30
0.0
 10
33.99102847596175
 20
0.1911932191668957
 30
0.0
 10
33.78023895319945
 20
0.3194570944187016
 30
0.0
 10
33.58578278106054
 20
0.4721291682512575
 30
0.0
 10
33.40788702981622
 20
0.6471771611284913
 30
0.0
 10
33.24864786938276
 20
0.8427845611762965
 30
0.0
 10
33.10924536547385
 20
1.057139764783997
 30
0.0
 10
32.99397552083546
 20
1.290935732149444
 30
0.0
 10
32.89695736621841
 20
1.540627642379578
 30
0.0
 10
32.8243526154675
 20
1.808985793257229
 30
0.0
 10
32.76972167627085
 20
2.093758887783954
 30
0.0
 10
32.73834574526313
 20
2.397082152001758
 30
0.0
 10
32.73452656469911
 20
2.605172371913044
 30
0.0
 10
32.73256628787878
 20
2.711979166666912
 30
0.0
  0
SPLINE
  5
10C
330
1F
100
AcDbEntity
  8
0
  6
Continuous
 62
     7
370
    15
100
AcDbSpline
210
0.0
220
0.0
230
1.0
 70
     8
 71
     3
 72
    15
 73
    11
 74
     0
 42
0.000000001
 43
0.00000001
 40
0.0
 40
0.0
 40
0.0
 40
0.0
 40
0.1731792692650186
 40
0.3258859261346425
 40
0.4601208276643189
 40
0.5803741597723557
 40
0.6908059736040227
 40
0.7925579446580807
 40
0.8945289729539615
 40
1.0
 40
1.0
 40
1.0
 40
1.0
 10
29.73195075757575
 20
0.9621212121214574
 30
0.0
 10
29.79818554506939
 20
0.9642111213755984
 30
0.0
 10
29.92282508856847
 20
0.96814387854517
 30
0.0
 10
30.09747037410661
 20
0.9949627428586924
 30
0.0
 10
30.24595330093604
 20
1.044590867583331
 30
0.0
 10
30.36891531549283
 20
1.112371686387705
 30
0.0
 10
30.46571896297682
 20
1.196763357401308
 30
0.0
 10
30.53434233403318
 20
1.296654476488726
 30
0.0
 10
30.57703655791339
 20
1.408832405051315
 30
0.0
 10
30.581871672298
 20
1.48841040942468
 30
0.0
 10
30.58433001893938
 20
1.528870738636608
 30
0.0
  0
SPLINE
  5
10D
330
1F
100
AcDbEntity
  8
0
  6
Continuous
 62
     7
370
    15
100
AcDbSpline
210
0.0
220
0.0
230
1.0
 70
     8
 71
     3
 72
    39
 73
    35
 74
     0
 42
0.000000001
 43
0.00000001
 40
0.0
 40
0.0
 40
0.0
 40
0.0
 40
0.0355457650380488
 40
0.0695457416832654
 40
0.1022291751335042
 40
0.1336374587812512
 40
0.1642611140239041
 40
0.1944082142099945
 40
0.2241599138555659
 40
0.2540818554622234
 40
0.2837600763699278
 40
0.3129478676737686
 40
0.3419480413338014
 40
0.3711628333754265
 40
0.4011763546483686
 40
0.4318890035875778
 40
0.4640297804246539
 40
0.4974939510787873
 40
0.5311321130027986
 40
0.5631002349459433
 40
0.5939827383264014
 40
0.6237751811861668
 40
0.6531478432095568
 40
0.682296647090316
 40
0.7114532526263252
 40
0.7411355604581255
 40
0.7710575020647824
 40
0.8010508088068756
 40
0.8314258913083314
 40
0.8625343994550164
 40
0.8946600765341054
 40
0.9281975690993971
 40
0.9632359380047815
 40
1.0
 40
1.0
 40
1.0
 40
1.0
 10
49.10666666666668
 20
2.686422821969942
 30
0.0
 10
49.10484598715225
 20
2.584106029737137
 30
0.0
 10
49.10128380451075
 20
2.383921923561163
 30
0.0
 10
49.06756886847756
 20
2.091203234957891
 30
0.0
 10
49.01222205561748
 20
1.814123843550463
 30
0.0
 10
48.93573824696033
 20
1.552104791833351
 30
0.0
 10
48.8362286348047
 20
1.305717101704545
 30
0.0
 10
48.71413998512745
 20
1.075119073478859
 30
0.0
 10
48.57041366162615
 20
0.8596948258411492
 30
0.0
 10
48.40509409577565
 20
0.662257432273653
 30
0.0
 10
48.22290356656304
 20
0.4822966481531814
 30
0.0
 10
48.02093934160533
 20
0.3292668845777903
 30
0.0
 10
47.80666183580492
 20
0.1966987656710772
 30
0.0
 10
47.57575400859126
 20
0.0898710807521021
 30
0.0
 10
47.33067900710929
 20
0.0051279597359181
 30
0.0
 10
47.06929445650754
 20
-0.0527194830983934
 30
0.0
 10
46.79414281335171
 20
-0.0888167863777193
 30
0.0
 10
46.50844294680168
 20
-0.099947670417184
 30
0.0
 10
46.22321377836223
 20
-0.08899939829176
 30
0.0
 10
45.94762198969043
 20
-0.0524383733483767
 30
0.0
 10
45.68686167067439
 20
0.0050053011972579
 30
0.0
 10
45.44102364294963
 20
0.0885780693300475
 30
0.0
 10
45.20997685792788
 20
0.1954892214974194
 30
0.0
 10
44.99360547023715
 20
0.3264938744821115
 30
0.0
 10
44.79446538586583
 20
0.4836040472647506
 30
0.0
 10
44.60901040791352
 20
0.6599426241524712
 30
0.0
 10
44.44453079017384
 20
0.8591288807187825
 30
0.0
 10
44.29831740161735
 20
1.074531416422444
 30
0.0
 10
44.17867527959219
 20
1.309661186249878
 30
0.0
 10
44.07918439204307
 20
1.560320240457767
 30
0.0
 10
44.00053664660528
 20
1.827923523810485
 30
0.0
 10
43.94584064232541
 20
2.112828296510222
 30
0.0
 10
43.91201889832993
 20
2.41450445430252
 30
0.0
 10
43.90850258835482
 20
2.621187226856295
 30
0.0
 10
43.90670217803031
 20
2.727012310606306
 30
0.0
  0
SPLINE
  5
10E
330
1F
100
AcDbEntity
  8
0
  6
Continuous
 62
     7
370
    15
100
AcDbSpline
210
0.0
220
0.0
230
1.0
 70
     8
 71
     3
 72
    15
 73
    11
 74
     0
 42
0.000000001
 43
0.00000001
 40
0.0
 40
0.0
 40
0.0
 40
0.0
 40
0.1277141842165211
 40
0.2507130467813333
 40
0.3723241401554162
 40
0.4925981105932006
 40
0.6136836106688988
 40
0.7380239292695131
 40
0.8662501270254196
 40
1.0
 40
1.0
 40
1.0
 40
1.0
 10
62.82892045454543
 20
4.85119554924267
 30
0.0
 10
62.87867820954442
 20
4.909620920048528
 30
0.0
 10
62.97635661882468
 20
5.024314544832072
 30
0.0
 10
63.14467766477393
 20
5.172331952865969
 30
0.0
 10
63.32331085516141
 20
5.29977832137773
 30
0.0
 10
63.51615776407859
 20
5.402402112384922
 30
0.0
 10
63.72089978812325
 20
5.482790272809534
 30
0.0
 10
63.93827729365312
 20
5.539925721843368
 30
0.0
 10
64.1683649320147
 20
5.57294651652421
 30
0.0
 10
64.32561462797095
 20
5.577816630816113
 30
0.0
 10
64.40589725378786
 20
5.580303030303275
 30
0.0
  0
SPLINE
  5
10F
330
1F
100
AcDbEntity
  8
0
  6
Continuous
 62
     7
370
    15
100
AcDbSpline
210
0.0
220
0.0
230
1.0
 70
     8
 71
     3
 72
    23
 73
    19
 74
     0
 42
0.000000001
 43
0.00000001
 40
0.0
 40
0.0
 40
0.0
 40
0.0
 40
0.0674798575255691
 40
0.1320322807471679
 40
0.1945044263423741
 40
0.2551778830004547
 40
0.3144161739924289
 40
0.373470266966889
 40
0.4325866056092552
 40
0.4925143600744227
 40
0.5526120898924187
 40
0.6126682375744839
 40
0.6728536575567362
 40
0.734167638161185
 40
0.7968692923718433
 40
0.8617594501298954
 40
0.929567578890708
 40
1.0
 40
1.0
 40
1.0
 40
1.0
 10
52.36735558712122
 20
5.580303030303275
 30
0.0
 10
52.45815763409125
 20
5.578401226292559
 30
0.0
 10
52.63582252251253
 20
5.574680122984452
 30
0.0
 10
52.89582389731582
 20
5.542027134902905
 30
0.0
 10
53.14341340246034
 20
5.490675920088571
 30
0.0
 10
53.37699008991964
 20
5.414366175899966
 30
0.0
 10
53.59893021257819
 20
5.320032226804233
 30
0.0
 10
53.80642913621788
 20
5.201309242926915
 30
0.0
 10
54.00367745238579
 20
5.064685742383582
 30
0.0
 10
54.18485028368961
 20
4.904996770115186
 30
0.0
 10
54.34998749659086
 20
4.727377259450185
 30
0.0
 10
54.49853260785873
 20
4.534990282756301
 30
0.0
 10
54.62459099560433
 20
4.32535515987002
 30
0.0
 10
54.73405236271309
 20
4.102639176994046
 30
0.0
 10
54.82035323056227
 20
3.86319213072671
 30
0.0
 10
54.88997072905825
 20
3.609521678317312
 30
0.0
 10
54.93978416595186
 20
3.340403636151694
 30
0.0
 10
54.95654390890684
 20
3.155138941483641
 30
0.0
 10
54.96508285984848
 20
3.060748106060851
 30
0.0
  0
SPLINE
  5
110
330
1F
100
AcDbEntity
  8
0
  6
Continuous
 62
     7
370
    15
100
AcDbSpline
210
0.0
220
0.0
230
1.0
 70
     8
 71
     3
 72
    15
 73
    11
 74
     0
 42
0.000000001
 43
0.00000001
 40
0.0
 40
0.0
 40
0.0
 40
0.0
 40
0.1322313715072261
 40
0.2595489662501123
 40
0.3833147647446029
 40
0.5049575155661391
 40
0.6256406558478761
 40
0.7470861693477638
 40
0.8711228469331846
 40
1.0
 40
1.0
 40
1.0
 40
1.0
 10
39.77409090909089
 20
4.881261837121457
 30
0.0
 10
39.82296630358933
 20
4.937090676948916
 30
0.0
 10
39.9189008611194
 20
5.046673732006078
 30
0.0
 10
40.08166436022395
 20
5.187884042975955
 30
0.0
 10
40.25208158625556
 20
5.309271499700296
 30
0.0
 10
40.43177770762881
 20
5.409359679960516
 30
0.0
 10
40.62104150866776
 20
5.486750472667095
 30
0.0
 10
40.81955796739975
 20
5.540296876413686
 30
0.0
 10
41.02713537530239
 20
5.57503408114866
 30
0.0
 10
41.1690237707326
 20
5.578524446744058
 30
0.0
 10
41.24132575757574
 20
5.580303030303274
 30
0.0
  0
SPLINE
  5
111
330
1F
100
AcDbEntity
  8
0
  6
Continuous
 62
     7
370
    15
100
AcDbSpline
210
0.0
220
0.0
230
1.0
 70
     8
 71
     3
 72
    23
 73
    19
 74
     0
 42
0.000000001
 43
0.00000001
 40
0.0
 40
0.0
 40
0.0
 40
0.0
 40
0.0727299192051418
 40
0.1419190007876828
 40
0.2083303320594844
 40
0.2720845695832801
 40
0.3337161251203941
 40
0.3942932103398896
 40
0.4537960854563883
 40
0.5133243097114046
 40
0.5722443452690179
 40
0.6302775225996841
 40
0.6882337421618722
 40
0.7467566232182068
 40
0.8062964622215367
 40
0.8678749574692127
 40
0.9322170935509737
 40
1.0
 40
1.0
 40
1.0
 40
1.0
 10
32.73256628787878
 20
2.808191287879033
 30
0.0
 10
32.7344708822108
 20
2.911004489263013
 30
0.0
 10
32.7381873461841
 20
3.111625457465129
 30
0.0
 10
32.77052480001018
 20
3.404673374188988
 30
0.0
 10
32.82238029887201
 20
3.681894027806547
 30
0.0
 10
32.89606461578759
 20
3.943140753027531
 30
0.0
 10
32.99078329916271
 20
4.18878176247923
 30
0.0
 10
33.10862704779494
 20
4.417461099795188
 30
0.0
 10
33.24615423931528
 20
4.63129636719879
 30
0.0
 10
33.40377990193864
 20
4.827836526880957
 30
0.0
 10
33.57919203096498
 20
5.00582884077455
 30
0.0
 10
33.77289184849682
 20
5.16047476759441
 30
0.0
 10
33.98351784459769
 20
5.289680187227813
 30
0.0
 10
34.20812895119244
 20
5.397982923263763
 30
0.0
 10
34.44968401500429
 20
5.477747076516758
 30
0.0
 10
34.70480022439146
 20
5.53934850788397
 30
0.0
 10
34.97710599772122
 20
5.573260692930106
 30
0.0
 10
35.16383956424969
 20
5.577915180806623
 30
0.0
 10
35.25963778409089
 20
5.580303030303274
 30
0.0
  0
SPLINE
  5
112
330
1F
100
AcDbEntity
  8
0
  6
Continuous
 62
     7
370
    15
100
AcDbSpline
210
0.0
220
0.0
230
1.0
 70
     8
 71
     3
 72
    23
 73
    19
 74
     0
 42
0.000000001
 43
0.00000001
 40
0.0
 40
0.0
 40
0.0
 40
0.0
 40
0.0713113885177578
 40
0.139596290752233
 40
0.2049598302505077
 40
0.2677426904454923
 40
0.3291604949663385
 40
0.3896822515869751
 40
0.4495733591196181
 40
0.5095146158991597
 40
0.569273310051292
 40
0.6285961663134808
 40
0.6869986330261274
 40
0.7459843942663527
 40
0.8064429301922875
 40
0.8683377360921374
 40
0.93291505988099
 40
1.0
 40
1.0
 40
1.0
 40
1.0
 10
35.25963778409089
 20
5.580303030303274
 30
0.0
 10
35.34338686609028
 20
5.578594238251702
 30
0.0
 10
35.50733068269552
 20
5.575249176024974
 30
0.0
 10
35.74694828834389
 20
5.548431691113727
 30
0.0
 10
35.97296169187029
 20
5.501189070511426
 30
0.0
 10
36.18700518387886
 20
5.438838172855108
 30
0.0
 10
36.38764392413783
 20
5.355335296178874
 30
0.0
 10
36.57636250235873
 20
5.254735877383314
 30
0.0
 10
36.75181429688296
 20
5.135329893843055
 30
0.0
 10
36.91246535007979
 20
4.998143296896489
 30
0.0
 10
37.05858229670371
 20
4.846539320712645
 30
0.0
 10
37.18663787451754
 20
4.681494290683121
 30
0.0
 10
37.29390858864608
 20
4.503429877626889
 30
0.0
 10
37.38387982894767
 20
4.31448271575008
 30
0.0
 10
37.45181411001945
 20
4.112268707822943
 30
0.0
 10
37.50424468452205
 20
3.898800345996491
 30
0.0
 10
37.53351054835429
 20
3.672890395039321
 30
0.0
 10
37.53891522666109
 20
3.51833357457851
 30
0.0
 10
37.54166903409089
 20
3.439583333333578
 30
0.0
  0
SPLINE
  5
113
330
1F
100
AcDbEntity
  8
0
  6
Continuous
 62
     7
370
    15
100
AcDbSpline
210
0.0
220
0.0
230
1.0
 70
     8
 71
     3
 72
    23
 73
    19
 74
     0
 42
0.000000001
 43
0.00000001
 40
0.0
 40
0.0
 40
0.0
 40
0.0
 40
0.0610827419820616
 40
0.1197216267170325
 40
0.1758077443417318
 40
0.2307764330413129
 40
0.2848765108386917
 40
0.3393384573619488
 40
0.3947913591972476
 40
0.4519370987755236
 40
0.5106484965860989
 40
0.5711503403579281
 40
0.6342477143715344
 40
0.6998714955321935
 40
0.768746189922694
 40
0.8415002210957712
 40
0.918624092286021
 40
1.0
 40
1.0
 40
1.0
 40
1.0
 10
24.53048295454543
 20
5.580303030303273
 30
0.0
 10
24.61178415576951
 20
5.57796360997536
 30
0.0
 10
24.77113378135529
 20
5.573378367104058
 30
0.0
 10
25.00306561618412
 20
5.538392372853266
 30
0.0
 10
25.22181891272163
 20
5.480933752381289
 30
0.0
 10
25.42742224729648
 20
5.401799806196447
 30
0.0
 10
25.6189305774643
 20
5.296969729520914
 30
0.0
 10
25.79500073420611
 20
5.167301595216712
 30
0.0
 10
25.96088657599546
 20
5.018530512606596
 30
0.0
 10
26.10853102741554
 20
4.844158800517833
 30
0.0
 10
26.24345504348
 20
4.651674655729427
 30
0.0
 10
26.35873877730303
 20
4.437725934589839
 30
0.0
 10
26.45862390604993
 20
4.206180445740686
 30
0.0
 10
26.53693856483316
 20
3.954838883799447
 30
0.0
 10
26.60126482288349
 20
3.686377307118114
 30
0.0
 10
26.64288042281679
 20
3.398019620625876
 30
0.0
 10
26.67105380887202
 20
3.091374924111544
 30
0.0
 10
26.67413213887547
 20
2.880419222751946
 30
0.0
 10
26.67571259469695
 20
2.772111742424487
 30
0.0
  0
SPLINE
  5
114
330
1F
100
AcDbEntity
  8
0
  6
Continuous
 62
     7
370
    15
100
AcDbSpline
210
0.0
220
0.0
230
1.0
 70
     8
 71
     3
 72
    15
 73
    11
 74
     0
 42
0.000000001
 43
0.00000001
 40
0.0
 40
0.0
 40
0.0
 40
0.0
 40
0.1410546948683126
 40
0.2714321022691374
 40
0.3945750622388641
 40
0.5159459214617637
 40
0.6360518841964402
 40
0.7528658245697538
 40
0.8732022207986181
 40
1.0
 40
1.0
 40
1.0
 40
1.0
 10
59.49456912878786
 20
7.696969696969942
 30
0.0
 10
59.55395449320299
 20
7.694605464951317
 30
0.0
 10
59.66822998273749
 20
7.690055964010089
 30
0.0
 10
59.83023194141328
 20
7.648792050222974
 30
0.0
 10
59.97358098727259
 20
7.580595104379715
 30
0.0
 10
60.09454857583457
 20
7.484449811943106
 30
0.0
 10
60.19237075010052
 20
7.368689427041966
 30
0.0
 10
60.26544790546799
 20
7.236314499044147
 30
0.0
 10
60.30844989532655
 20
7.087750154261145
 30
0.0
 10
60.3130292476026
 20
6.983676631296491
 30
0.0
 10
60.31537878787876
 20
6.930279356060851
 30
0.0
  0
SPLINE
  5
115
330
1F
100
AcDbEntity
  8
0
  6
Continuous
 62
     7
370
    15
100
AcDbSpline
210
0.0
220
0.0
230
1.0
 70
     8
 71
     3
 72
    23
 73
    19
 74
     0
 42
0.000000001
 43
0.00000001
 40
0.0
 40
0.0
 40
0.0
 40
0.0
 40
0.0689140760332203
 40
0.1339920364151457
 40
0.195056834751926
 40
0.2538932655957323
 40
0.3101803418120669
 40
0.3648908396909478
 40
0.4190466119937449
 40
0.4731580142280985
 40
0.5287396210512305
 40
0.5858297148723077
 40
0.6453234268026496
 40
0.7080950586235711
 40
0.7746793671935597
 40
0.8450534509968646
 40
0.9200568125895919
 40
1.0
 40
1.0
 40
1.0
 40
1.0
 10
41.24132575757574
 20
5.580303030303274
 30
0.0
 10
41.31358562958743
 20
5.579283213160866
 30
0.0
 10
41.45408301356565
 20
5.577300347198667
 30
0.0
 10
41.65694601729656
 20
5.549884887321834
 30
0.0
 10
41.84729331751565
 20
5.512366898098793
 30
0.0
 10
42.02337364477214
 20
5.455268281266277
 30
0.0
 10
42.18537210674549
 20
5.380889566171308
 30
0.0
 10
42.33440757088839
 20
5.292107960008883
 30
0.0
 10
42.46858030142615
 20
5.185825611776381
 30
0.0
 10
42.59082969521566
 20
5.064648337190308
 30
0.0
 10
42.69689490599185
 20
4.92522578016072
 30
0.0
 10
42.79126207520265
 20
4.771076151531894
 30
0.0
 10
42.86896584985394
 20
4.599528855750814
 30
0.0
 10
42.9335582111589
 20
4.412255143854336
 30
0.0
 10
42.9841266341958
 20
4.208935602462955
 30
0.0
 10
43.02137887158673
 20
3.989847629675908
 30
0.0
 10
43.04562155169064
 20
3.754794117145228
 30
0.0
 10
43.05036979277717
 20
3.592480137907273
 30
0.0
 10
43.05281960227271
 20
3.50873579545479
 30
0.0
  0
SPLINE
  5
116
330
1F
100
AcDbEntity
  8
0
  6
Continuous
 62
     7
370
    15
100
AcDbSpline
210
0.0
220
0.0
230
1.0
 70
     8
 71
     3
 72
    31
 73
    27
 74
     0
 42
0.000000001
 43
0.00000001
 40
0.0
 40
0.0
 40
0.0
 40
0.0
 40
0.0466239548811766
 40
0.0923192488004494
 40
0.1368326850316795
 40
0.180687285501844
 40
0.2236977287949622
 40
0.2659300816078866
 40
0.3075235790489837
 40
0.3490875356501036
 40
0.3900097060332561
 40
0.4301683812428473
 40
0.4700554569235853
 40
0.5090959601221479
 40
0.5480041008849413
 40
0.5870068320809186
 40
0.6263294688106977
 40
0.6658965461170642
 40
0.7057266127179589
 40
0.7461884685573195
 40
0.7864311658135559
 40
0.8273518354294808
 40
0.8689394263812776
 40
0.9115193525980848
 40
0.9551183372067704
 40
1.0
 40
1.0
 40
1.0
 40
1.0
 10
49.77564157196969
 20
2.793158143939639
 30
0.0
 10
49.77635017775097
 20
2.859837414486703
 30
0.0
 10
49.77775327522718
 20
2.991867830678448
 30
0.0
 10
49.79368747261296
 20
3.186995490301071
 30
0.0
 10
49.81717350865168
 20
3.377299244862345
 30
0.0
 10
49.85160735196666
 20
3.562110114514123
 30
0.0
 10
49.89701943073948
 20
3.741132124606277
 30
0.0
 10
49.95110561258476
 20
3.914320804035214
 30
0.0
 10
50.01432603017143
 20
4.082219773017478
 30
0.0
 10
50.08780598528665
 20
4.243827141548394
 30
0.0
 10
50.17008816281614
 20
4.398842908342138
 30
0.0
 10
50.26246829485169
 20
4.545237962135877
 30
0.0
 10
50.36253194783421
 20
4.683165884056746
 30
0.0
 10
50.47146814976168
 20
4.811916944265482
 30
0.0
 10
50.58909042169432
 20
4.930996167682253
 30
0.0
 10
50.71570087571299
 20
5.041119595639711
 30
0.0
 10
50.85128442637124
 20
5.141486656684343
 30
0.0
 10
50.99394536071252
 20
5.233795749467506
 30
0.0
 10
51.14527090658997
 20
5.314485771292429
 30
0.0
 10
51.30164490817463
 20
5.387411021238183
 30
0.0
 10
51.46590759326994
 20
5.444979213015825
 30
0.0
 10
51.63399764355394
 20
5.495963136101259
 30
0.0
 10
51.8093177396561
 20
5.532044683059181
 30
0.0
 10
51.98960864080733
 20
5.562278179184473
 30
0.0
 10
52.17672635933271
 20
5.575970190390518
 30
0.0
 10
52.30320135413276
 20
5.578844859253173
 30
0.0
 10
52.36735558712121
 20
5.580303030303274
 30
0.0
  0
SPLINE
  5
117
330
1F
100
AcDbEntity
  8
0
  6
Continuous
 62
     7
370
    15
100
AcDbSpline
210
0.0
220
0.0
230
1.0
 70
     8
 71
     3
 72
    39
 73
    35
 74
     0
 42
0.000000001
 43
0.00000001
 40
0.0
 40
0.0
 40
0.0
 40
0.0
 40
0.0355457650380488
 40
0.0695457416832654
 40
0.1022291751335038
 40
0.1336374587812511
 40
0.164261114023904
 40
0.1944082142099939
 40
0.2241599138555658
 40
0.2540818554622227
 40
0.2837600763699277
 40
0.3129478676737679
 40
0.3419480413338014
 40
0.3711628333754272
 40
0.4011763546483693
 40
0.4318890035875769
 40
0.464029780424653
 40
0.4974939510787872
 40
0.5311321130027985
 40
0.5631002349459432
 40
0.593982738326402
 40
0.6237751811861675
 40
0.6531478432095568
 40
0.6822966470903159
 40
0.7114532526263251
 40
0.7411355604581255
 40
0.7710575020647823
 40
0.8010508088068761
 40
0.8314258913083311
 40
0.8625343994550164
 40
0.8946600765341055
 40
0.928197569099397
 40
0.9632359380047814
 40
1.0
 40
1.0
 40
1.0
 40
1.0
 10
72.19757575757572
 20
2.686422821969943
 30
0.0
 10
72.19575507806131
 20
2.584106029737138
 30
0.0
 10
72.1921928954198
 20
2.383921923561164
 30
0.0
 10
72.15847795938662
 20
2.091203234957894
 30
0.0
 10
72.10313114652655
 20
1.814123843550461
 30
0.0
 10
72.02664733786942
 20
1.552104791833354
 30
0.0
 10
71.92713772571372
 20
1.305717101704547
 30
0.0
 10
71.80504907603655
 20
1.075119073478856
 30
0.0
 10
71.66132275253521
 20
0.8596948258411553
 30
0.0
 10
71.49600318668472
 20
0.6622574322736486
 30
0.0
 10
71.31381265747211
 20
0.4822966481531875
 30
0.0
 10
71.11184843251438
 20
0.329266884577786
 30
0.0
 10
70.89757092671401
 20
0.196698765671079
 30
0.0
 10
70.6666630995003
 20
0.0898710807521038
 30
0.0
 10
70.42158809801833
 20
0.0051279597359215
 30
0.0
 10
70.1602035474166
 20
-0.0527194830983943
 30
0.0
 10
69.88505190426075
 20
-0.0888167863777193
 30
0.0
 10
69.59935203771074
 20
-0.0999476704171831
 30
0.0
 10
69.3141228692713
 20
-0.08899939829176
 30
0.0
 10
69.0385310805995
 20
-0.0524383733483749
 30
0.0
 10
68.77777076158343
 20
0.0050053011972579
 30
0.0
 10
68.5319327338587
 20
0.0885780693300467
 30
0.0
 10
68.30088594883694
 20
0.195489221497422
 30
0.0
 10
68.08451456114621
 20
0.3264938744821123
 30
0.0
 10
67.88537447677487
 20
0.4836040472647515
 30
0.0
 10
67.69991949882257
 20
0.6599426241524703
 30
0.0
 10
67.53543988108294
 20
0.8591288807187868
 30
0.0
 10
67.38922649252638
 20
1.074531416422437
 30
0.0
 10
67.26958437050126
 20
1.309661186249885
 30
0.0
 10
67.17009348295214
 20
1.560320240457766
 30
0.0
 10
67.0914457375143
 20
1.827923523810485
 30
0.0
 10
67.03674973323449
 20
2.112828296510225
 30
0.0
 10
67.002927989239
 20
2.414504454302521
 30
0.0
 10
66.99941167926387
 20
2.621187226856296
 30
0.0
 10
66.99761126893938
 20
2.727012310606307
 30
0.0
  0
SPLINE
  5
118
330
1F
100
AcDbEntity
  8
0
  6
Continuous
 62
     7
370
    15
100
AcDbSpline
210
0.0
220
0.0
230
1.0
 70
     8
 71
     3
 72
    23
 73
    19
 74
     0
 42
0.000000001
 43
0.00000001
 40
0.0
 40
0.0
 40
0.0
 40
0.0
 40
0.0643096004781705
 40
0.1242197375303756
 40
0.1834203640696066
 40
0.24360026230444
 40
0.3044927176876271
 40
0.3658001179422414
 40
0.4307092276602955
 40
0.5003424144233333
 40
0.5699756011863711
 40
0.6343098366397707
 40
0.6956172368943848
 40
0.7565096922775719
 40
0.8166895905124054
 40
0.8756129850707985
 40
0.9356903995218294
 40
0.9999999999999999
 40
0.9999999999999999
 40
0.9999999999999999
 40
0.9999999999999999
 10
60.31537878787876
 20
6.930279356060851
 30
0.0
 10
60.31316619790947
 20
6.875839728533745
 30
0.0
 10
60.30889238275272
 20
6.770684725355583
 30
0.0
 10
60.26461219352556
 20
6.620708884597335
 30
0.0
 10
60.19345526470563
 20
6.485837907709502
 30
0.0
 10
60.09278024670921
 20
6.370084728032514
 30
0.0
 10
59.97082949049158
 20
6.274384077214575
 30
0.0
 10
59.8272553161098
 20
6.205445903295943
 30
0.0
 10
59.66570093983169
 20
6.165659289319259
 30
0.0
 10
59.49307859949942
 20
6.15343422187278
 30
0.0
 10
59.32086752795728
 20
6.165462463642063
 30
0.0
 10
59.15997440428362
 20
6.205756007854903
 30
0.0
 10
59.01675593791894
 20
6.27433928639767
 30
0.0
 10
58.89501640082493
 20
6.370167511153529
 30
0.0
 10
58.79374942318015
 20
6.485379113296466
 30
0.0
 10
58.72530388918261
 20
6.621429145658113
 30
0.0
 10
58.67813425545791
 20
6.77033446239804
 30
0.0
 10
58.67425946771916
 20
6.875768615697158
 30
0.0
 10
58.67225615530301
 20
6.930279356060851
 30
0.0
  0
SPLINE
  5
119
330
1F
100
AcDbEntity
  8
0
  6
Continuous
 62
     7
370
    15
100
AcDbSpline
210
0.0
220
0.0
230
1.0
 70
     8
 71
     3
 72
    23
 73
    19
 74
     0
 42
0.000000001
 43
0.00000001
 40
0.0
 40
0.0
 40
0.0
 40
0.0
 40
0.0674798575255691
 40
0.1320322807471679
 40
0.1945044263423758
 40
0.2551778830004565
 40
0.314416173992429
 40
0.3734702669668906
 40
0.4325866056092554
 40
0.4925143600744229
 40
0.5526120898924177
 40
0.612668237574485
 40
0.6728536575567373
 40
0.7341676381611846
 40
0.7968692923718431
 40
0.8617594501298955
 40
0.9295675788907082
 40
1.0
 40
1.0
 40
1.0
 40
1.0
 10
69.58932528409089
 20
5.580303030303275
 30
0.0
 10
69.68012733106092
 20
5.578401226292558
 30
0.0
 10
69.85779221948218
 20
5.574680122984451
 30
0.0
 10
70.11779359428552
 20
5.542027134902908
 30
0.0
 10
70.36538309942998
 20
5.490675920088569
 30
0.0
 10
70.59895978688934
 20
5.41436617589997
 30
0.0
 10
70.82089990954785
 20
5.320032226804229
 30
0.0
 10
71.02839883318755
 20
5.201309242926919
 30
0.0
 10
71.22564714935547
 20
5.064685742383579
 30
0.0
 10
71.40681998065931
 20
4.90499677011519
 30
0.0
 10
71.5719571935605
 20
4.727377259450178
 30
0.0
 10
71.72050230482844
 20
4.534990282756309
 30
0.0
 10
71.846560692574
 20
4.325355159870025
 30
0.0
 10
71.95602205968275
 20
4.102639176994043
 30
0.0
 10
72.04232292753191
 20
3.863192130726709
 30
0.0
 10
72.11194042602794
 20
3.609521678317315
 30
0.0
 10
72.16175386292153
 20
3.340403636151694
 30
0.0
 10
72.17851360587649
 20
3.15513894148364
 30
0.0
 10
72.18705255681814
 20
3.060748106060852
 30
0.0
  0
SPLINE
  5
11A
330
1F
100
AcDbEntity
  8
0
  6
Continuous
 62
     7
370
    15
100
AcDbSpline
210
0.0
220
0.0
230
1.0
 70
     8
 71
     3
 72
    23
 73
    19
 74
     0
 42
0.000000001
 43
0.00000001
 40
0.0
 40
0.0
 40
0.0
 40
0.0
 40
0.0741528475104813
 40
0.1450255778197179
 40
0.2125723160396517
 40
0.2771430401341979
 40
0.3396173142845018
 40
0.4004567674442811
 40
0.4599089825740197
 40
0.5185744035441343
 40
0.5767503547604188
 40
0.633863318430448
 40
0.6907792476099909
 40
0.7485871433751307
 40
0.807474966928276
 40
0.8687543036509794
 40
0.9326061391552606
 40
0.9999999999999999
 40
0.9999999999999999
 40
0.9999999999999999
 40
0.9999999999999999
 10
18.37741714015151
 20
5.580303030303273
 30
0.0
 10
18.45965815006469
 20
5.579028885759806
 30
0.0
 10
18.62050227653538
 20
5.5765369578724
 30
0.0
 10
18.85525454501354
 20
5.552173027479979
 30
0.0
 10
19.07690859955961
 20
5.511799044691301
 30
0.0
 10
19.28548553379945
 20
5.455835140629993
 30
0.0
 10
19.48223411558769
 20
5.38628025618336
 30
0.0
 10
19.66442503241104
 20
5.296622716241067
 30
0.0
 10
19.83378330267448
 20
5.192710847786645
 30
0.0
 10
19.98941309377163
 20
5.073774899311293
 30
0.0
 10
20.12893221130366
 20
4.940086650737901
 30
0.0
 10
20.25232624497179
 20
4.79375093738187
 30
0.0
 10
20.35488916812489
 20
4.632587033764105
 30
0.0
 10
20.43952599935416
 20
4.459232676346215
 30
0.0
 10
20.50425802860551
 20
4.272320029888403
 30
0.0
 10
20.55020165805864
 20
4.073264644585787
 30
0.0
 10
20.57992360356393
 20
3.861402574793861
 30
0.0
 10
20.58280373870706
 20
3.715795700064117
 30
0.0
 10
20.58428267045454
 20
3.641027462121456
 30
0.0
  0
SPLINE
  5
11B
330
1F
100
AcDbEntity
  8
0
  6
Continuous
 62
     7
370
    15
100
AcDbSpline
210
0.0
220
0.0
230
1.0
 70
     8
 71
     3
 72
    31
 73
    27
 74
     0
 42
0.000000001
 43
0.00000001
 40
0.0
 40
0.0
 40
0.0
 40
0.0
 40
0.0466239548811766
 40
0.0923192488004494
 40
0.1368326850316794
 40
0.180687285501844
 40
0.2236977287949622
 40
0.2659300816078867
 40
0.3075235790489838
 40
0.3490875356501037
 40
0.3900097060332561
 40
0.4301683812428474
 40
0.4700554569235853
 40
0.509095960122148
 40
0.5480041008849413
 40
0.5870068320809186
 40
0.6263294688106977
 40
0.6658965461170642
 40
0.7057266127179589
 40
0.7461884685573195
 40
0.7864311658135559
 40
0.8273518354294808
 40
0.8689394263812777
 40
0.9115193525980849
 40
0.9551183372067705
 40
1.0
 40
1.0
 40
1.0
 40
1.0
 10
43.90670217803032
 20
2.793158143939639
 30
0.0
 10
43.9074107838116
 20
2.859837414486704
 30
0.0
 10
43.90881388128781
 20
2.991867830678449
 30
0.0
 10
43.92474807867357
 20
3.18699549030107
 30
0.0
 10
43.9482341147123
 20
3.377299244862347
 30
0.0
 10
43.98266795802727
 20
3.562110114514121
 30
0.0
 10
44.02808003680011
 20
3.741132124606278
 30
0.0
 10
44.08216621864539
 20
3.914320804035215
 30
0.0
 10
44.14538663623202
 20
4.082219773017476
 30
0.0
 10
44.21886659134727
 20
4.243827141548395
 30
0.0
 10
44.30114876887676
 20
4.398842908342139
 30
0.0
 10
44.39352890091229
 20
4.545237962135874
 30
0.0
 10
44.49359255389483
 20
4.683165884056748
 30
0.0
 10
44.60252875582228
 20
4.811916944265481
 30
0.0
 10
44.72015102775493
 20
4.930996167682253
 30
0.0
 10
44.84676148177361
 20
5.041119595639711
 30
0.0
 10
44.98234503243184
 20
5.141486656684343
 30
0.0
 10
45.12500596677313
 20
5.233795749467506
 30
0.0
 10
45.27633151265059
 20
5.314485771292429
 30
0.0
 10
45.43270551423524
 20
5.387411021238183
 30
0.0
 10
45.59696819933056
 20
5.444979213015825
 30
0.0
 10
45.76505824961455
 20
5.49596313610126
 30
0.0
 10
45.94037834571672
 20
5.532044683059182
 30
0.0
 10
46.12066924686795
 20
5.562278179184474
 30
0.0
 10
46.3077869653933
 20
5.575970190390517
 30
0.0
 10
46.43426196019338
 20
5.578844859253173
 30
0.0
 10
46.49841619318182
 20
5.580303030303274
 30
0.0
  0
SPLINE
  5
11C
330
1F
100
AcDbEntity
  8
0
  6
Continuous
 62
     7
370
    15
100
AcDbSpline
210
0.0
220
0.0
230
1.0
 70
     8
 71
     3
 72
    19
 73
    15
 74
     0
 42
0.000000001
 43
0.00000001
 40
0.0
 40
0.0
 40
0.0
 40
0.0
 40
0.071910787931322
 40
0.1429314983886213
 40
0.215307927618716
 40
0.2899704662400954
 40
0.3672279920528333
 40
0.4467594010399014
 40
0.5293953932636648
 40
0.6170484260962712
 40
0.7082102905321901
 40
0.8020432717396986
 40
0.8988905458457815
 40
1.0
 40
1.0
 40
1.0
 40
1.0
 10
16.04427320075757
 20
3.848484848485092
 30
0.0
 10
16.04751549068731
 20
3.92601506756395
 30
0.0
 10
16.0539599390267
 20
4.080115873606052
 30
0.0
 10
16.11313888762031
 20
4.30582026881731
 30
0.0
 10
16.20512074589977
 20
4.522548131340258
 30
0.0
 10
16.33424375822264
 20
4.727743895826874
 30
0.0
 10
16.4969402868679
 20
4.91766466108934
 30
0.0
 10
16.69313841887526
 20
5.086010719565304
 30
0.0
 10
16.91777881336243
 20
5.235223607606947
 30
0.0
 10
17.17196817786544
 20
5.357461095849552
 30
0.0
 10
17.44782394964191
 20
5.459415729138809
 30
0.0
 10
17.74392464385091
 20
5.527820081337437
 30
0.0
 10
18.05526171327669
 20
5.573921595264059
 30
0.0
 10
18.26850158473447
 20
5.578145570010283
 30
0.0
 10
18.37741714015151
 20
5.580303030303273
 30
0.0
  0
SPLINE
  5
120
330
1F
100
AcDbEntity
  8
0
  6
Continuous
 62
     7
370
    15
100
AcDbSpline
210
0.0
220
0.0
230
1.0
 70
     8
 71
     3
 72
    15
 73
    11
 74
     0
 42
0.000000001
 43
0.00000001
 40
0.0
 40
0.0
 40
0.0
 40
0.0
 40
0.1156339639852191
 40
0.2261573317772664
 40
0.3373025628547182
 40
0.4547110647463112
 40
0.5774965767039106
 40
0.706769025891635
 40
0.8452988115848503
 40
1.0
 40
1.0
 40
1.0
 40
1.0
 10
17.38823626893939
 20
1.632599431818427
 30
0.0
 10
17.39039742278909
 20
1.59271558141438
 30
0.0
 10
17.3946242154317
 20
1.514710600200245
 30
0.0
 10
17.43255166940791
 20
1.4034458621349
 30
0.0
 10
17.49443324571943
 20
1.303581796347759
 30
0.0
 10
17.5792542078867
 20
1.216078103011019
 30
0.0
 10
17.68586208769603
 20
1.145137076053213
 30
0.0
 10
17.81098616665684
 20
1.093994524464532
 30
0.0
 10
17.95407802938007
 20
1.063833996527598
 30
0.0
 10
18.05505237329929
 20
1.06023308335017
 30
0.0
 10
18.10832386363636
 20
1.058333333333578
 30
0.0
  0
SPLINE
  5
121
330
1F
100
AcDbEntity
  8
0
  6
Continuous
 62
     7
370
    15
100
AcDbSpline
210
0.0
220
0.0
230
1.0
 70
     8
 71
     3
 72
    15
 73
    11
 74
     0
 42
0.000000001
 43
0.00000001
 40
0.0
 40
0.0
 40
0.0
 40
0.0
 40
0.1371954370906377
 40
0.2706144674204381
 40
0.4010783171964448
 40
0.5309006217304866
 40
0.658170328861477
 40
0.7762802591172392
 40
0.8895844215959231
 40
1.0
 40
1.0
 40
1.0
 40
1.0
 10
18.10832386363636
 20
1.058333333333578
 30
0.0
 10
18.16151278560416
 20
1.060313651490297
 30
0.0
 10
18.26642656478092
 20
1.06421977806905
 30
0.0
 10
18.42067721245321
 20
1.087763250368635
 30
0.0
 10
18.56742024537429
 20
1.131123558209676
 30
0.0
 10
18.70698415454874
 20
1.187466455567956
 30
0.0
 10
18.83488554971889
 20
1.257967051395806
 30
0.0
 10
18.94585409556361
 20
1.342186323950357
 30
0.0
 10
19.04213335406471
 20
1.434649372018838
 30
0.0
 10
19.08927258514527
 20
1.50780054575375
 30
0.0
 10
19.11253787878787
 20
1.543903882576002
 30
0.0
  0
SPLINE
  5
122
330
1F
100
AcDbEntity
  8
0
  6
Continuous
 62
     7
370
    15
100
AcDbSpline
210
0.0
220
0.0
230
1.0
 70
     8
 71
     3
 72
    15
 73
    11
 74
     0
 42
0.000000001
 43
0.00000001
 40
0.0
 40
0.0
 40
0.0
 40
0.0
 40
0.1713661355994825
 40
0.3232722705687768
 40
0.4575565449736244
 40
0.5760324818837244
 40
0.6841429516513152
 40
0.7867557808851922
 40
0.8900760110852296
 40
1.0
 40
1.0
 40
1.0
 40
1.0
 10
18.56533143939393
 20
2.405303030303275
 30
0.0
 10
18.47901342784973
 20
2.403703562141131
 30
0.0
 10
18.31617950803668
 20
2.400686258269105
 30
0.0
 10
18.08763986451219
 20
2.367580375562393
 30
0.0
 10
17.89014893018114
 20
2.315222468462214
 30
0.0
 10
17.72362290567676
 20
2.240257328962537
 30
0.0
 10
17.58835768569465
 20
2.141675501469237
 30
0.0
 10
17.48811067196254
 20
2.017495036972823
 30
0.0
 10
17.41898644705403
 20
1.872004908528603
 30
0.0
 10
17.40167169186274
 20
1.765614392167226
 30
0.0
 10
17.3927462121212
 20
1.710771780303275
 30
0.0
  0
SPLINE
  5
124
330
1F
100
AcDbEntity
  8
0
  6
Continuous
 62
     7
370
    15
100
AcDbSpline
210
0.0
220
0.0
230
1.0
 70
     8
 71
     3
 72
    23
 73
    19
 74
     0
 42
0.000000001
 43
0.00000001
 40
0.0
 40
0.0
 40
0.0
 40
0.0
 40
0.0931982465173542
 40
0.1796965033131539
 40
0.2604267238174781
 40
0.3348807427651388
 40
0.4041722145351642
 40
0.4678694488143482
 40
0.527348283924393
 40
0.5823369971370894
 40
0.634679928804199
 40
0.68506264047235
 40
0.735356769133779
 40
0.7844752307341423
 40
0.8351227618359351
 40
0.8876402674118302
 40
0.9423851649742248
 40
1.0
 40
1.0
 40
1.0
 40
1.0
 10
25.21148437499998
 20
2.803681344697214
 30
0.0
 10
25.2105312830281
 20
2.87184597084887
 30
0.0
 10
25.2086936165367
 20
3.003274891744072
 30
0.0
 10
25.19713693360394
 20
3.193517075276598
 30
0.0
 10
25.175970014404
 20
3.369089268103187
 30
0.0
 10
25.14819205497377
 20
3.531032783476343
 30
0.0
 10
25.11060875332498
 20
3.678186550561533
 30
0.0
 10
25.06593189733706
 20
3.811849325875774
 30
0.0
 10
25.01215391064305
 20
3.930872165545027
 30
0.0
 10
24.94959616506625
 20
4.035825752763574
 30
0.0
 10
24.88091645156323
 20
4.128947033226286
 30
0.0
 10
24.80100341277975
 20
4.207803943470147
 30
0.0
 10
24.71457017746403
 20
4.275636513498133
 30
0.0
 10
24.6190917396954
 20
4.330342649936994
 30
0.0
 10
24.5166184980597
 20
4.374882924715269
 30
0.0
 10
24.40449297583246
 20
4.403936195553199
 30
0.0
 10
24.28506894799892
 20
4.422589538781617
 30
0.0
 10
24.20283487699167
 20
4.424683733180653
 30
0.0
 10
24.16066761363634
 20
4.42575757575782
 30
0.0
  0
SPLINE
  5
125
330
1F
100
AcDbEntity
  8
0
  6
Continuous
 62
     7
370
    15
100
AcDbSpline
210
0.0
220
0.0
230
1.0
 70
     8
 71
     3
 72
    15
 73
    11
 74
     0
 42
0.000000001
 43
0.00000001
 40
0.0
 40
0.0
 40
0.0
 40
0.0
 40
0.0898666658314041
 40
0.1899134599296218
 40
0.2993670288411724
 40
0.4184087415413358
 40
0.5486147889754662
 40
0.6886639910091678
 40
0.8385957409912818
 40
1.0
 40
1.0
 40
1.0
 40
1.0
 10
25.10474905303028
 20
1.769401041666911
 30
0.0
 10
25.11375731015314
 20
1.799343821063806
 30
0.0
 10
25.13279428300965
 20
1.862621308690217
 30
0.0
 10
25.15246542819236
 20
1.964976196686537
 30
0.0
 10
25.1706461949875
 20
2.07775522902661
 30
0.0
 10
25.18554241718101
 20
2.201639410385702
 30
0.0
 10
25.19723068737116
 20
2.336515194405234
 30
0.0
 10
25.20660500261384
 20
2.482354387026072
 30
0.0
 10
25.21057969890181
 20
2.639296184908398
 30
0.0
 10
25.21117549804333
 20
2.747556519494534
 30
0.0
 10
25.21148437499998
 20
2.803681344697214
 30
0.0
  0
SPLINE
  5
126
330
1F
100
AcDbEntity
  8
0
  6
Continuous
 62
     7
370
    15
100
AcDbSpline
210
0.0
220
0.0
230
1.0
 70
     8
 71
     3
 72
    15
 73
    11
 74
     0
 42
0.000000001
 43
0.00000001
 40
0.0
 40
0.0
 40
0.0
 40
0.0
 40
0.1407644350252834
 40
0.2707550515174285
 40
0.3945899075623365
 40
0.5141405759380822
 40
0.6301269527012914
 40
0.7490435357127396
 40
0.8702883726951828
 40
1.0
 40
1.0
 40
1.0
 40
1.0
 10
24.16066761363635
 20
4.425757575757821
 30
0.0
 10
24.10441438748155
 20
4.424212112074462
 30
0.0
 10
23.99621344068112
 20
4.421239471299608
 30
0.0
 10
23.84061932618356
 20
4.39327215104217
 30
0.0
 10
23.69768830669315
 20
4.349097317534609
 30
0.0
 10
23.56923544522722
 20
4.283697161003433
 30
0.0
 10
23.45366031404967
 20
4.201011172260934
 30
0.0
 10
23.35308420936902
 20
4.099661573161467
 30
0.0
 10
23.2652953566812
 20
3.980026977541105
 30
0.0
 10
23.22029986421236
 20
3.890334282613713
 30
0.0
 10
23.19704308712119
 20
3.843974905303275
 30
0.0
  0
SPLINE
  5
127
330
1F
100
AcDbEntity
  8
0
  6
Continuous
 62
     7
370
    15
100
AcDbSpline
210
0.0
220
0.0
230
1.0
 70
     8
 71
     3
 72
    15
 73
    11
 74
     0
 42
0.000000001
 43
0.00000001
 40
0.0
 40
0.0
 40
0.0
 40
0.0
 40
0.1284751757915708
 40
0.2520395811261898
 40
0.3698226143389829
 40
0.4867299740733221
 40
0.6051410483518057
 40
0.7293602445417714
 40
0.859336077056271
 40
1.0
 40
1.0
 40
1.0
 40
1.0
 10
23.19704308712119
 20
1.644625946969942
 30
0.0
 10
23.22024777412888
 20
1.598220769499215
 30
0.0
 10
23.26577018386715
 20
1.507184182705335
 30
0.0
 10
23.35542742254692
 20
1.387236024238105
 30
0.0
 10
23.45684565366552
 20
1.283488723197204
 30
0.0
 10
23.57490211715542
 20
1.202750261675651
 30
0.0
 10
23.70426571278188
 20
1.136412557630664
 30
0.0
 10
23.84790069064022
 20
1.090433436522964
 30
0.0
 10
24.00527425998678
 20
1.062972943393828
 30
0.0
 10
24.11444813337805
 20
1.059920058146105
 30
0.0
 10
24.17119081439392
 20
1.058333333333578
 30
0.0
  0
SPLINE
  5
128
330
1F
100
AcDbEntity
  8
0
  6
Continuous
 62
     7
370
    15
100
AcDbSpline
210
0.0
220
0.0
230
1.0
 70
     8
 71
     3
 72
    15
 73
    11
 74
     0
 42
0.000000001
 43
0.00000001
 40
0.0
 40
0.0
 40
0.0
 40
0.0
 40
0.133970496703701
 40
0.2588533005024309
 40
0.3772908866664607
 40
0.4925650928317388
 40
0.608945434487469
 40
0.7303718624728351
 40
0.859564320615214
 40
1.0
 40
1.0
 40
1.0
 40
1.0
 10
24.17119081439392
 20
1.058333333333578
 30
0.0
 10
24.22802166610948
 20
1.059903797253953
 30
0.0
 10
24.33782833174779
 20
1.062938194969208
 30
0.0
 10
24.49451377370294
 20
1.098985425472669
 30
0.0
 10
24.63625295507925
 20
1.154682744348986
 30
0.0
 10
24.76420011769044
 20
1.231698731618448
 30
0.0
 10
24.87289130685919
 20
1.335649527229109
 30
0.0
 10
24.96905405415074
 20
1.458406156330315
 30
0.0
 10
25.04771261288538
 20
1.605204599864829
 30
0.0
 10
25.08521562703391
 20
1.713168236171685
 30
0.0
 10
25.10474905303029
 20
1.769401041666911
 30
0.0
  0
SPLINE
  5
129
330
1F
100
AcDbEntity
  8
0
  6
Continuous
 62
     7
370
    15
100
AcDbSpline
210
0.0
220
0.0
230
1.0
 70
     8
 71
     3
 72
    23
 73
    19
 74
     0
 42
0.000000001
 43
0.00000001
 40
0.0
 40
0.0
 40
0.0
 40
0.0
 40
0.055163354167773
 40
0.1083603490081523
 40
0.1590559325610993
 40
0.2090337817995049
 40
0.2583875292154055
 40
0.3086275591341275
 40
0.3598267869177085
 40
0.4126636975205666
 40
0.4688337585655069
 40
0.5290259724358033
 40
0.5930745033318089
 40
0.6627034012503046
 40
0.7383543444051102
 40
0.8191005053021453
 40
0.9064319712896706
 40
1.0
 40
1.0
 40
1.0
 40
1.0
 10
46.5089393939394
 20
1.058333333333579
 30
0.0
 10
46.55210355069995
 20
1.05935977787181
 30
0.0
 10
46.63689322967759
 20
1.061376078187085
 30
0.0
 10
46.76017624402186
 20
1.080953270097525
 30
0.0
 10
46.87594414362772
 20
1.11474054042503
 30
0.0
 10
46.98449488549092
 20
1.159816375955521
 30
0.0
 10
47.08700754582811
 20
1.216997444786142
 30
0.0
 10
47.17992946330229
 20
1.29024034791963
 30
0.0
 10
47.26616817779881
 20
1.37492560954304
 30
0.0
 10
47.34523373327031
 20
1.472441600560443
 30
0.0
 10
47.41675861783186
 20
1.584231839598188
 30
0.0
 10
47.47554357311651
 20
1.712849043925629
 30
0.0
 10
47.52725863802466
 20
1.855528406091205
 30
0.0
 10
47.56881723505236
 20
2.014099227991299
 30
0.0
 10
47.6011454874051
 20
2.187987100347144
 30
0.0
 10
47.62551947380567
 20
2.377149844950678
 30
0.0
 10
47.63842766697805
 20
2.581508443159894
 30
0.0
 10
47.6400803188254
 20
2.722986826723439
 30
0.0
 10
47.64093513257576
 20
2.796164772727518
 30
0.0
  0
SPLINE
  5
12A
330
1F
100
AcDbEntity
  8
0
  6
Continuous
 62
     7
370
    15
100
AcDbSpline
210
0.0
220
0.0
230
1.0
 70
     8
 71
     3
 72
    23
 73
    19
 74
     0
 42
0.000000001
 43
0.00000001
 40
0.0
 40
0.0
 40
0.0
 40
0.0
 40
0.0559726706980517
 40
0.1088020120743762
 40
0.1602690124069307
 40
0.2103984508481423
 40
0.2599977547489531
 40
0.3107861462012541
 40
0.3621406677848303
 40
0.4161415167337105
 40
0.4726868503361537
 40
0.5330616348823516
 40
0.5976954380831166
 40
0.666914742620302
 40
0.7420457038217831
 40
0.8217619770791009
 40
0.9080758073926878
 40
1.0
 40
1.0
 40
1.0
 40
1.0
 10
46.49841619318182
 20
4.425757575757821
 30
0.0
 10
46.45471384374911
 20
4.424977937306821
 30
0.0
 10
46.36976339397862
 20
4.423462443564939
 30
0.0
 10
46.24640235893885
 20
4.400779094790856
 30
0.0
 10
46.13045681928038
 20
4.368025335028089
 30
0.0
 10
46.02071520791327
 20
4.323682081057897
 30
0.0
 10
45.9206359357527
 20
4.261611522396394
 30
0.0
 10
45.82729776846931
 20
4.188454208280371
 30
0.0
 10
45.74235254685579
 20
4.100829966665613
 30
0.0
 10
45.6637407588268
 20
4.001739405076342
 30
0.0
 10
45.59440188201017
 20
3.887578442792356
 30
0.0
 10
45.53386452271376
 20
3.759265887735464
 30
0.0
 10
45.48584457495427
 20
3.615446146764786
 30
0.0
 10
45.44228301301155
 20
3.458263721552961
 30
0.0
 10
45.41299980794228
 20
3.28584239791289
 30
0.0
 10
45.38761823635775
 20
3.099479775740563
 30
0.0
 10
45.37503269036588
 20
2.898562988464874
 30
0.0
 10
45.37331802888728
 20
2.759596493837345
 30
0.0
 10
45.37243371212123
 20
2.687926136363882
 30
0.0
  0
SPLINE
  5
12B
330
1F
100
AcDbEntity
  8
0
  6
Continuous
 62
     7
370
    15
100
AcDbSpline
210
0.0
220
0.0
230
1.0
 70
     8
 71
     3
 72
    23
 73
    19
 74
     0
 42
0.000000001
 43
0.00000001
 40
0.0
 40
0.0
 40
0.0
 40
0.0
 40
0.0857241292984449
 40
0.1662940878084649
 40
0.242043426910275
 40
0.3137369350414721
 40
0.3813335386462052
 40
0.4448865682952898
 40
0.5053712712536882
 40
0.5637093285858693
 40
0.6194419080473774
 40
0.6734133121574172
 40
0.7255038930088359
 40
0.7774091205498713
 40
0.830509690914282
 40
0.8847710210061992
 40
0.9410200060235988
 40
1.0
 40
1.0
 40
1.0
 40
1.0
 10
45.37243371212122
 20
2.687926136363881
 30
0.0
 10
45.37330436404806
 20
2.623768698900088
 30
0.0
 10
45.37499331987829
 20
2.499311295523886
 30
0.0
 10
45.38784740364152
 20
2.318425054160614
 30
0.0
 10
45.41296967539615
 20
2.149571060203946
 30
0.0
 10
45.44279587809208
 20
1.991238511209806
 30
0.0
 10
45.48594804659817
 20
1.845530319788648
 30
0.0
 10
45.5343097969016
 20
1.710281496395781
 30
0.0
 10
45.59553643466001
 20
1.588021859443035
 30
0.0
 10
45.66362699391959
 20
1.47620481609304
 30
0.0
 10
45.74291969240788
 20
1.378241717249504
 30
0.0
 10
45.82786431850587
 20
1.291488176428593
 30
0.0
 10
45.92283689910467
 20
1.220422447550708
 30
0.0
 10
46.02452162106054
 20
1.160920568401708
 30
0.0
 10
46.13459023671358
 20
1.11420350047041
 30
0.0
 10
46.25280691537584
 20
1.081279430922024
 30
0.0
 10
46.37846460308936
 20
1.061233048091033
 30
0.0
 10
46.4647659954789
 20
1.059315057500894
 30
0.0
 10
46.5089393939394
 20
1.058333333333579
 30
0.0
  0
SPLINE
  5
12C
330
1F
100
AcDbEntity
  8
0
  6
Continuous
 62
     7
370
    15
100
AcDbSpline
210
0.0
220
0.0
230
1.0
 70
     8
 71
     3
 72
    23
 73
    19
 74
     0
 42
0.000000001
 43
0.00000001
 40
0.0
 40
0.0
 40
0.0
 40
0.0
 40
0.0837685101708695
 40
0.1637208592843724
 40
0.2381914309299541
 40
0.3094086415365198
 40
0.3764041577421863
 40
0.440859276172021
 40
0.501381855267073
 40
0.5606795105896
 40
0.6174994502108602
 40
0.6719804412577135
 40
0.7249238572335847
 40
0.7777781820981716
 40
0.8302960010102082
 40
0.8845913100993436
 40
0.9409830721510258
 40
1.0
 40
1.0
 40
1.0
 40
1.0
 10
47.64093513257576
 20
2.796164772727518
 30
0.0
 10
47.64005065138572
 20
2.858820539149763
 30
0.0
 10
47.63832198246035
 20
2.981277723798824
 30
0.0
 10
47.62548976838153
 20
3.159141618390609
 30
0.0
 10
47.60080172434515
 20
3.326207595585849
 30
0.0
 10
47.56857277230416
 20
3.482125073069699
 30
0.0
 10
47.52591214176214
 20
3.627733273163175
 30
0.0
 10
47.47594037653575
 20
3.76252345611986
 30
0.0
 10
47.41492967634853
 20
3.88644633910512
 30
0.0
 10
47.3443545889439
 20
3.998287210190675
 30
0.0
 10
47.26724092408056
 20
4.100445366453489
 30
0.0
 10
47.17838834339953
 20
4.185732141613111
 30
0.0
 10
47.08503586919242
 20
4.261399606921825
 30
0.0
 10
46.98219942974475
 20
4.320890787378899
 30
0.0
 10
46.87245787015144
 20
4.368875062793988
 30
0.0
 10
46.75435590935024
 20
4.400756987206073
 30
0.0
 10
46.62906566907904
 20
4.423397975141675
 30
0.0
 10
46.54262145839466
 20
4.424959204617664
 30
0.0
 10
46.49841619318183
 20
4.425757575757822
 30
0.0
  0
SPLINE
  5
12D
330
1F
100
AcDbEntity
  8
0
  6
Continuous
 62
     7
370
    15
100
AcDbSpline
210
0.0
220
0.0
230
1.0
 70
     8
 71
     3
 72
    23
 73
    19
 74
     0
 42
0.000000001
 43
0.00000001
 40
0.0
 40
0.0
 40
0.0
 40
0.0
 40
0.055163354167773
 40
0.1083603490081523
 40
0.1590559325610993
 40
0.2090337817995049
 40
0.2583875292154055
 40
0.3086275591341275
 40
0.3598267869177085
 40
0.4126636975205666
 40
0.4688337585655069
 40
0.5290259724358033
 40
0.5930745033318089
 40
0.6627034012503047
 40
0.7383543444051102
 40
0.8191005053021454
 40
0.9064319712896706
 40
1.0
 40
1.0
 40
1.0
 40
1.0
 10
52.37787878787879
 20
1.058333333333579
 30
0.0
 10
52.42104294463934
 20
1.05935977787181
 30
0.0
 10
52.50583262361697
 20
1.061376078187086
 30
0.0
 10
52.62911563796125
 20
1.080953270097525
 30
0.0
 10
52.74488353756709
 20
1.114740540425031
 30
0.0
 10
52.85343427943032
 20
1.159816375955522
 30
0.0
 10
52.95594693976749
 20
1.216997444786142
 30
0.0
 10
53.04886885724169
 20
1.29024034791963
 30
0.0
 10
53.13510757173818
 20
1.37492560954304
 30
0.0
 10
53.21417312720968
 20
1.472441600560444
 30
0.0
 10
53.28569801177125
 20
1.584231839598188
 30
0.0
 10
53.34448296705589
 20
1.71284904392563
 30
0.0
 10
53.39619803196406
 20
1.855528406091206
 30
0.0
 10
53.43775662899175
 20
2.014099227991299
 30
0.0
 10
53.47008488134448
 20
2.187987100347145
 30
0.0
 10
53.49445886774506
 20
2.377149844950678
 30
0.0
 10
53.50736706091742
 20
2.581508443159894
 30
0.0
 10
53.5090197127648
 20
2.722986826723441
 30
0.0
 10
53.50987452651515
 20
2.796164772727518
 30
0.0
  0
SPLINE
  5
12E
330
1F
100
AcDbEntity
  8
0
  6
Continuous
 62
     7
370
    15
100
AcDbSpline
210
0.0
220
0.0
230
1.0
 70
     8
 71
     3
 72
    23
 73
    19
 74
     0
 42
0.000000001
 43
0.00000001
 40
0.0
 40
0.0
 40
0.0
 40
0.0
 40
0.0837685101708695
 40
0.1637208592843724
 40
0.2381914309299542
 40
0.3094086415365198
 40
0.3764041577421864
 40
0.4408592761720211
 40
0.5013818552670731
 40
0.5606795105896
 40
0.6174994502108601
 40
0.6719804412577135
 40
0.7249238572335847
 40
0.7777781820981716
 40
0.8302960010102082
 40
0.8845913100993436
 40
0.940983072151026
 40
1.0
 40
1.0
 40
1.0
 40
1.0
 10
53.50987452651515
 20
2.796164772727518
 30
0.0
 10
53.5089900453251
 20
2.858820539149763
 30
0.0
 10
53.50726137639973
 20
2.981277723798824
 30
0.0
 10
53.49442916232093
 20
3.159141618390609
 30
0.0
 10
53.46974111828453
 20
3.32620759558585
 30
0.0
 10
53.43751216624356
 20
3.482125073069701
 30
0.0
 10
53.39485153570153
 20
3.627733273163175
 30
0.0
 10
53.34487977047513
 20
3.76252345611986
 30
0.0
 10
53.2838690702879
 20
3.88644633910512
 30
0.0
 10
53.21329398288328
 20
3.998287210190673
 30
0.0
 10
53.13618031801994
 20
4.10044536645349
 30
0.0
 10
53.04732773733892
 20
4.18573214161311
 30
0.0
 10
52.9539752631318
 20
4.261399606921823
 30
0.0
 10
52.85113882368412
 20
4.320890787378899
 30
0.0
 10
52.74139726409083
 20
4.368875062793988
 30
0.0
 10
52.62329530328959
 20
4.400756987206071
 30
0.0
 10
52.49800506301843
 20
4.423397975141674
 30
0.0
 10
52.41156085233403
 20
4.424959204617663
 30
0.0
 10
52.36735558712122
 20
4.425757575757822
 30
0.0
  0
SPLINE
  5
12F
330
1F
100
AcDbEntity
  8
0
  6
Continuous
 62
     7
370
    15
100
AcDbSpline
210
0.0
220
0.0
230
1.0
 70
     8
 71
     3
 72
    23
 73
    19
 74
     0
 42
0.000000001
 43
0.00000001
 40
0.0
 40
0.0
 40
0.0
 40
0.0
 40
0.0559726706980517
 40
0.1088020120743762
 40
0.1602690124069307
 40
0.2103984508481423
 40
0.2599977547489531
 40
0.3107861462012541
 40
0.3621406677848303
 40
0.4161415167337105
 40
0.4726868503361535
 40
0.5330616348823516
 40
0.5976954380831166
 40
0.666914742620302
 40
0.7420457038217831
 40
0.8217619770791009
 40
0.9080758073926878
 40
1.0
 40
1.0
 40
1.0
 40
1.0
 10
52.36735558712121
 20
4.425757575757821
 30
0.0
 10
52.3236532376885
 20
4.424977937306821
 30
0.0
 10
52.238702787918
 20
4.423462443564939
 30
0.0
 10
52.11534175287823
 20
4.400779094790856
 30
0.0
 10
51.99939621321976
 20
4.368025335028089
 30
0.0
 10
51.88965460185265
 20
4.323682081057897
 30
0.0
 10
51.78957532969208
 20
4.261611522396394
 30
0.0
 10
51.6962371624087
 20
4.188454208280371
 30
0.0
 10
51.61129194079517
 20
4.100829966665613
 30
0.0
 10
51.5326801527662
 20
4.001739405076343
 30
0.0
 10
51.46334127594952
 20
3.887578442792354
 30
0.0
 10
51.40280391665318
 20
3.759265887735467
 30
0.0
 10
51.35478396889366
 20
3.615446146764786
 30
0.0
 10
51.31122240695093
 20
3.458263721552961
 30
0.0
 10
51.28193920188168
 20
3.285842397912891
 30
0.0
 10
51.25655763029713
 20
3.099479775740564
 30
0.0
 10
51.24397208430527
 20
2.898562988464875
 30
0.0
 10
51.24225742282667
 20
2.759596493837345
 30
0.0
 10
51.24137310606061
 20
2.687926136363882
 30
0.0
  0
SPLINE
  5
130
330
1F
100
AcDbEntity
  8
0
  6
Continuous
 62
     7
370
    15
100
AcDbSpline
210
0.0
220
0.0
230
1.0
 70
     8
 71
     3
 72
    23
 73
    19
 74
     0
 42
0.000000001
 43
0.00000001
 40
0.0
 40
0.0
 40
0.0
 40
0.0
 40
0.0857241292984449
 40
0.1662940878084649
 40
0.242043426910275
 40
0.3137369350414721
 40
0.3813335386462052
 40
0.4448865682952899
 40
0.5053712712536883
 40
0.5637093285858694
 40
0.6194419080473775
 40
0.6734133121574173
 40
0.7255038930088359
 40
0.7774091205498713
 40
0.830509690914282
 40
0.8847710210061992
 40
0.9410200060235988
 40
1.0
 40
1.0
 40
1.0
 40
1.0
 10
51.24137310606061
 20
2.687926136363882
 30
0.0
 10
51.24224375798745
 20
2.623768698900088
 30
0.0
 10
51.24393271381767
 20
2.499311295523886
 30
0.0
 10
51.2567867975809
 20
2.318425054160615
 30
0.0
 10
51.28190906933554
 20
2.149571060203946
 30
0.0
 10
51.31173527203144
 20
1.991238511209806
 30
0.0
 10
51.35488744053757
 20
1.845530319788649
 30
0.0
 10
51.40324919084097
 20
1.710281496395781
 30
0.0
 10
51.46447582859941
 20
1.588021859443035
 30
0.0
 10
51.53256638785896
 20
1.47620481609304
 30
0.0
 10
51.61185908634728
 20
1.378241717249505
 30
0.0
 10
51.69680371244524
 20
1.291488176428593
 30
0.0
 10
51.79177629304406
 20
1.220422447550708
 30
0.0
 10
51.89346101499991
 20
1.160920568401707
 30
0.0
 10
52.00352963065297
 20
1.11420350047041
 30
0.0
 10
52.12174630931523
 20
1.081279430922024
 30
0.0
 10
52.24740399702874
 20
1.061233048091033
 30
0.0
 10
52.33370538941828
 20
1.059315057500894
 30
0.0
 10
52.37787878787879
 20
1.058333333333579
 30
0.0
  0
LINE
  5
131
330
1F
100
AcDbEntity
  8
0
  6
Continuous
 62
     7
370
    15
100
AcDbLine
 10
72.1870525568
 20
3.0607481061
 30
0.0
 11
72.1975757576
 21
2.686422822
 31
0.0
  0
LINE
  5
132
330
1F
100
AcDbEntity
  8
0
  6
Continuous
 62
     7
370
    15
100
AcDbLine
 10
55.9512571023
 20
0.0
 30
0.0
 11
55.9512571023
 21
7.7931818182
 31
0.0
  0
LINE
  5
133
330
1F
100
AcDbEntity
  8
0
  6
Continuous
 62
     7
370
    15
100
AcDbLine
 10
57.4230018939
 20
0.0
 30
0.0
 11
55.9512571023
 21
0.0
 31
0.0
  0
LINE
  5
134
330
1F
100
AcDbEntity
  8
0
  6
Continuous
 62
     7
370
    15
100
AcDbLine
 10
57.4230018939
 20
7.7931818182
 30
0.0
 11
57.4230018939
 21
0.0
 31
0.0
  0
LINE
  5
135
330
1F
100
AcDbEntity
  8
0
  6
Continuous
 62
     7
370
    15
100
AcDbLine
 10
49.0961434659
 20
3.0607481061
 30
0.0
 11
49.1066666667
 21
2.686422822
 31
0.0
  0
LINE
  5
136
330
1F
100
AcDbEntity
  8
0
  6
Continuous
 62
     7
370
    15
100
AcDbLine
 10
34.198297822
 20
2.8217211174
 30
0.0
 11
34.198297822
 21
2.6668797348
 31
0.0
  0
LINE
  5
137
330
1F
100
AcDbEntity
  8
0
  6
Continuous
 62
     7
370
    15
100
AcDbLine
 10
37.5416690341
 20
3.4395833333
 30
0.0
 11
36.167639678
 21
3.4395833333
 31
0.0
  0
LINE
  5
138
330
1F
100
AcDbEntity
  8
0
  6
Continuous
 62
     7
370
    15
100
AcDbLine
 10
32.7325662879
 20
2.7119791667
 30
0.0
 11
32.7325662879
 21
2.8081912879
 31
0.0
  0
LINE
  5
139
330
1F
100
AcDbEntity
  8
0
  6
Continuous
 62
     7
370
    15
100
AcDbLine
 10
23.1955397727
 20
7.7931818182
 30
0.0
 11
23.1955397727
 21
4.9879971591
 31
0.0
  0
LINE
  5
13A
330
1F
100
AcDbEntity
  8
0
  6
Continuous
 62
     7
370
    15
100
AcDbLine
 10
21.7298082386
 20
7.7931818182
 30
0.0
 11
23.1955397727
 21
7.7931818182
 31
0.0
  0
LINE
  5
13B
330
1F
100
AcDbEntity
  8
0
  6
Continuous
 62
     7
370
    15
100
AcDbLine
 10
23.0482149621
 20
0.0
 30
0.0
 11
21.7298082386
 21
0.0
 31
0.0
  0
LINE
  5
13C
330
1F
100
AcDbEntity
  8
0
  6
Continuous
 62
     7
370
    15
100
AcDbLine
 10
26.6757125947
 20
2.7721117424
 30
0.0
 11
26.6757125947
 21
2.6909327652
 31
0.0
  0
LINE
  5
13D
330
1F
100
AcDbEntity
  8
0
  6
Continuous
 62
     7
370
    15
100
AcDbLine
 10
10.5601822917
 20
7.4083333333
 30
0.0
 11
15.3692850379
 21
7.4083333333
 31
0.0
  0
LINE
  5
13E
330
1F
100
AcDbEntity
  8
0
  6
Continuous
 62
     7
370
    15
100
AcDbLine
 10
10.5601822917
 20
0.0
 30
0.0
 11
10.5601822917
 21
7.4083333333
 31
0.0
  0
LINE
  5
13F
330
1F
100
AcDbEntity
  8
0
  6
Continuous
 62
     7
370
    15
100
AcDbLine
 10
12.0815364583
 20
0.0
 30
0.0
 11
10.5601822917
 21
0.0
 31
0.0
  0
LINE
  5
140
330
1F
100
AcDbEntity
  8
0
  6
Continuous
 62
     7
370
    15
100
AcDbLine
 10
12.0815364583
 20
3.0787878788
 30
0.0
 11
12.0815364583
 21
0.0
 31
0.0
  0
LINE
  5
141
330
1F
100
AcDbEntity
  8
0
  6
Continuous
 62
     7
370
    15
100
AcDbLine
 10
15.0039796402
 20
4.2333333333
 30
0.0
 11
15.0039796402
 21
3.0787878788
 31
0.0
  0
LINE
  5
142
330
1F
100
AcDbEntity
  8
0
  6
Continuous
 62
     7
370
    15
100
AcDbLine
 10
-0.047204072
 20
7.4083333333
 30
0.0
 11
0.109140625
 21
7.4083333333
 31
0.0
  0
LINE
  5
143
330
1F
100
AcDbEntity
  8
0
  6
Continuous
 62
     7
370
    15
100
AcDbLine
 10
-1.3565909091
 20
5.7201112689
 30
0.0
 11
-3.1064488636
 21
5.1954545455
 31
0.0
  0
LINE
  5
144
330
1F
100
AcDbEntity
  8
0
  6
Continuous
 62
     7
370
    15
100
AcDbLine
 10
-1.3565909091
 20
0.0
 30
0.0
 11
-1.3565909091
 21
5.7201112689
 31
0.0
  0
LINE
  5
145
330
1F
100
AcDbEntity
  8
0
  6
Continuous
 62
     7
370
    15
100
AcDbLine
 10
0.109140625
 20
7.4083333333
 30
0.0
 11
0.109140625
 21
0.0
 31
0.0
  0
LINE
  5
146
330
1F
100
AcDbEntity
  8
0
  6
Continuous
 62
     7
370
    15
100
AcDbLine
 10
81.29
 20
10.0
 30
0.0
 11
81.29
 21
0.0
 31
0.0
  0
LINE
  5
147
330
1F
100
AcDbEntity
  8
0
  6
Continuous
 62
     7
370
    15
100
AcDbLine
 10
81.29
 20
0.0
 30
0.0
 11
84.29
 21
0.0
 31
0.0
  0
LINE
  5
148
330
1F
100
AcDbEntity
  8
0
  6
Continuous
 62
     7
370
    15
100
AcDbLine
 10
-12.71
 20
0.0
 30
0.0
 11
-12.71
 21
10.0
 31
0.0
  0
LINE
  5
149
330
1F
100
AcDbEntity
  8
0
  6
Continuous
 62
     7
370
    15
100
AcDbLine
 10
-15.71
 20
0.0
 30
0.0
 11
-12.71
 21
0.0
 31
0.0
  0
LINE
  5
14A
330
1F
100
AcDbEntity
  8
0
  6
Continuous
 62
     7
370
    15
100
AcDbLine
 10
79.29
 20
-6.15
 30
0.0
 11
87.29
 21
-6.15
 31
0.0
  0
LINE
  5
14B
330
1F
100
AcDbEntity
  8
0
  6
Continuous
 62
     7
370
    15
100
AcDbLine
 10
79.29
 20
-9.15
 30
0.0
 11
79.29
 21
-6.15
 31
0.0
  0
LINE
  5
14C
330
1F
100
AcDbEntity
  8
0
  6
Continuous
 62
     7
370
    15
100
AcDbLine
 10
69.29
 20
-9.15
 30
0.0
 11
79.29
 21
-9.15
 31
0.0
  0
LINE
  5
14D
330
1F
100
AcDbEntity
  8
0
  6
Continuous
 62
     7
370
    15
100
AcDbLine
 10
69.29
 20
-6.15
 30
0.0
 11
69.29
 21
-9.15
 31
0.0
  0
LINE
  5
14E
330
1F
100
AcDbEntity
  8
0
  6
Continuous
 62
     7
370
    15
100
AcDbLine
 10
59.29
 20
-6.15
 30
0.0
 11
69.29
 21
-6.15
 31
0.0
  0
LINE
  5
14F
330
1F
100
AcDbEntity
  8
0
  6
Continuous
 62
     7
370
    15
100
AcDbLine
 10
49.29
 20
-9.15
 30
0.0
 11
59.29
 21
-9.15
 31
0.0
  0
LINE
  5
150
330
1F
100
AcDbEntity
  8
0
  6
Continuous
 62
     7
370
    15
100
AcDbLine
 10
49.29
 20
-6.15
 30
0.0
 11
49.29
 21
-9.15
 31
0.0
  0
LINE
  5
151
330
1F
100
AcDbEntity
  8
0
  6
Continuous
 62
     7
370
    15
100
AcDbLine
 10
39.29
 20
-6.15
 30
0.0
 11
49.29
 21
-6.15
 31
0.0
  0
LINE
  5
152
330
1F
100
AcDbEntity
  8
0
  6
Continuous
 62
     7
370
    15
100
AcDbLine
 10
39.29
 20
-9.15
 30
0.0
 11
39.29
 21
-6.15
 31
0.0
  0
LINE
  5
153
330
1F
100
AcDbEntity
  8
0
  6
Continuous
 62
     7
370
    15
100
AcDbLine
 10
29.29
 20
-9.15
 30
0.0
 11
39.29
 21
-9.15
 31
0.0
  0
LINE
  5
154
330
1F
100
AcDbEntity
  8
0
  6
Continuous
 62
     7
370
    15
100
AcDbLine
 10
19.29
 20
-6.15
 30
0.0
 11
29.29
 21
-6.15
 31
0.0
  0
LINE
  5
155
330
1F
100
AcDbEntity
  8
0
  6
Continuous
 62
     7
370
    15
100
AcDbLine
 10
19.29
 20
-9.15
 30
0.0
 11
19.29
 21
-6.15
 31
0.0
  0
LINE
  5
156
330
1F
100
AcDbEntity
  8
0
  6
Continuous
 62
     7
370
    15
100
AcDbLine
 10
9.29
 20
-6.15
 30
0.0
 11
9.29
 21
-9.15
 31
0.0
  0
LINE
  5
157
330
1F
100
AcDbEntity
  8
0
  6
Continuous
 62
     7
370
    15
100
AcDbLine
 10
-0.71
 20
-6.15
 30
0.0
 11
9.29
 21
-6.15
 31
0.0
  0
LINE
  5
158
330
1F
100
AcDbEntity
  8
0
  6
Continuous
 62
     7
370
    15
100
AcDbLine
 10
-0.71
 20
-9.15
 30
0.0
 11
-0.71
 21
-6.15
 31
0.0
  0
LINE
  5
159
330
1F
100
AcDbEntity
  8
0
  6
Continuous
 62
     7
370
    15
100
AcDbLine
 10
-10.71
 20
-9.15
 30
0.0
 11
-0.71
 21
-9.15
 31
0.0
  0
LINE
  5
15A
330
1F
100
AcDbEntity
  8
0
  6
Continuous
 62
     7
370
    15
100
AcDbLine
 10
-18.71
 20
-6.15
 30
0.0
 11
-10.71
 21
-6.15
 31
0.0
  0
LINE
  5
15B
330
1F
100
AcDbEntity
  8
0
  6
Continuous
 62
     7
370
    15
100
AcDbLine
 10
-18.71
 20
16.15
 30
0.0
 11
-18.71
 21
-6.15
 31
0.0
  0
LINE
  5
15C
330
1F
100
AcDbEntity
  8
0
  6
Continuous
 62
     7
370
    15
100
AcDbLine
 10
-18.71
 20
16.15
 30
0.0
 11
9.29
 21
16.15
 31
0.0
  0
LINE
  5
15D
330
1F
100
AcDbEntity
  8
0
  6
Continuous
 62
     7
370
    15
100
AcDbLine
 10
9.29
 20
16.15
 30
0.0
 11
9.29
 21
19.15
 31
0.0
  0
LINE
  5
15E
330
1F
100
AcDbEntity
  8
0
  6
Continuous
 62
     7
370
    15
100
AcDbLine
 10
19.29
 20
16.15
 30
0.0
 11
49.29
 21
16.15
 31
0.0
  0
LINE
  5
15F
330
1F
100
AcDbEntity
  8
0
  6
Continuous
 62
     7
370
    15
100
AcDbLine
 10
49.29
 20
16.15
 30
0.0
 11
49.29
 21
19.15
 31
0.0
  0
LINE
  5
160
330
1F
100
AcDbEntity
  8
0
  6
Continuous
 62
     7
370
    15
100
AcDbLine
 10
49.29
 20
19.15
 30
0.0
 11
59.29
 21
19.15
 31
0.0
  0
LINE
  5
161
330
1F
100
AcDbEntity
  8
0
  6
Continuous
 62
     7
370
    15
100
AcDbLine
 10
59.29
 20
19.15
 30
0.0
 11
59.29
 21
16.15
 31
0.0
  0
LINE
  5
162
330
1F
100
AcDbEntity
  8
0
  6
Continuous
 62
     7
370
    15
100
AcDbLine
 10
59.29
 20
16.15
 30
0.0
 11
87.29
 21
16.15
 31
0.0
  0
LINE
  5
163
330
1F
100
AcDbEntity
  8
0
  6
Continuous
 62
     7
370
    15
100
AcDbLine
 10
87.29
 20
-6.15
 30
0.0
 11
87.29
 21
16.15
 31
0.0
  0
LINE
  5
164
330
1F
100
AcDbEntity
  8
0
  6
Continuous
 62
     7
370
    15
100
AcDbLine
 10
2.1882244318
 20
5.4840909091
 30
0.0
 11
3.7606912879
 21
5.4840909091
 31
0.0
  0
LINE
  5
165
330
1F
100
AcDbEntity
  8
0
  6
Continuous
 62
     7
370
    15
100
AcDbLine
 10
3.7456581439
 20
2.7976680871
 30
0.0
 11
2.1882244318
 21
5.4840909091
 31
0.0
  0
LINE
  5
166
330
1F
100
AcDbEntity
  8
0
  6
Continuous
 62
     7
370
    15
100
AcDbLine
 10
4.6701964962
 20
1.7227982955
 30
0.0
 11
3.6960487689
 21
0.0
 31
0.0
  0
LINE
  5
167
330
1F
100
AcDbEntity
  8
0
  6
Continuous
 62
     7
370
    15
100
AcDbLine
 10
5.6488541667
 20
0.0
 30
0.0
 11
4.6701964962
 21
1.7227982955
 31
0.0
  0
LINE
  5
168
330
1F
100
AcDbEntity
  8
0
  6
Continuous
 62
     7
370
    15
100
AcDbLine
 10
7.2213210227
 20
0.0
 30
0.0
 11
5.6488541667
 21
0.0
 31
0.0
  0
LINE
  5
169
330
1F
100
AcDbEntity
  8
0
  6
Continuous
 62
     7
370
    15
100
AcDbLine
 10
5.5932315341
 20
2.7976680871
 30
0.0
 11
7.2213210227
 21
0.0
 31
0.0
  0
LINE
  5
16A
330
1F
100
AcDbEntity
  8
0
  6
Continuous
 62
     7
370
    15
100
AcDbLine
 10
5.5872182765
 20
5.4840909091
 30
0.0
 11
7.1551751894
 21
5.4840909091
 31
0.0
  0
LINE
  5
16B
330
1F
100
AcDbEntity
  8
0
  6
Continuous
 62
     7
370
    15
100
AcDbLine
 10
4.6641832386
 20
3.8469815341
 30
0.0
 11
5.5872182765
 21
5.4840909091
 31
0.0
  0
LINE
  5
16C
330
1F
100
AcDbEntity
  8
0
  6
Continuous
 62
     7
370
    15
100
AcDbLine
 10
3.7606912879
 20
5.4840909091
 30
0.0
 11
4.6641832386
 21
3.8469815341
 31
0.0
  0
LINE
  5
16D
330
1F
100
AcDbEntity
  8
0
  6
Continuous
 62
     7
370
    15
100
AcDbLine
 10
20.5842826705
 20
3.6410274621
 30
0.0
 11
20.5842826705
 21
1.2657907197
 31
0.0
  0
LINE
  5
16E
330
1F
100
AcDbEntity
  8
0
  6
Continuous
 62
     7
370
    15
100
AcDbLine
 10
19.1125378788
 20
3.3674242424
 30
0.0
 11
19.1125378788
 21
3.6560606061
 31
0.0
  0
LINE
  5
16F
330
1F
100
AcDbEntity
  8
0
  6
Continuous
 62
     7
370
    15
100
AcDbLine
 10
18.4390530303
 20
3.3674242424
 30
0.0
 11
19.1125378788
 21
3.3674242424
 31
0.0
  0
LINE
  5
170
330
1F
100
AcDbEntity
  8
0
  6
Continuous
 62
     7
370
    15
100
AcDbLine
 10
31.9959422348
 20
3.8139086174
 30
0.0
 11
30.5287073864
 21
3.8139086174
 31
0.0
  0
LINE
  5
171
330
1F
100
AcDbEntity
  8
0
  6
Continuous
 62
     7
370
    15
100
AcDbLine
 10
38.308359375
 20
7.7931818182
 30
0.0
 11
39.7740909091
 21
7.7931818182
 31
0.0
  0
LINE
  5
172
330
1F
100
AcDbEntity
  8
0
  6
Continuous
 62
     7
370
    15
100
AcDbLine
 10
38.308359375
 20
0.0
 30
0.0
 11
38.308359375
 21
7.7931818182
 31
0.0
  0
LINE
  5
173
330
1F
100
AcDbEntity
  8
0
  6
Continuous
 62
     7
370
    15
100
AcDbLine
 10
39.7740909091
 20
0.0
 30
0.0
 11
38.308359375
 21
0.0
 31
0.0
  0
LINE
  5
174
330
1F
100
AcDbEntity
  8
0
  6
Continuous
 62
     7
370
    15
100
AcDbLine
 10
39.7740909091
 20
3.9251538826
 30
0.0
 11
39.7740909091
 21
0.0
 31
0.0
  0
LINE
  5
175
330
1F
100
AcDbEntity
  8
0
  6
Continuous
 62
     7
370
    15
100
AcDbLine
 10
41.5855847538
 20
0.0
 30
0.0
 11
41.5855847538
 21
3.4967092803
 31
0.0
  0
LINE
  5
176
330
1F
100
AcDbEntity
  8
0
  6
Continuous
 62
     7
370
    15
100
AcDbLine
 10
43.0528196023
 20
0.0
 30
0.0
 11
41.5855847538
 21
0.0
 31
0.0
  0
LINE
  5
177
330
1F
100
AcDbEntity
  8
0
  6
Continuous
 62
     7
370
    15
100
AcDbLine
 10
43.0528196023
 20
3.5087357955
 30
0.0
 11
43.0528196023
 21
0.0
 31
0.0
  0
LINE
  5
178
330
1F
100
AcDbEntity
  8
0
  6
Continuous
 62
     7
370
    15
100
AcDbLine
 10
39.7740909091
 20
7.7931818182
 30
0.0
 11
39.7740909091
 21
4.8812618371
 31
0.0
  0
LINE
  5
179
330
1F
100
AcDbEntity
  8
0
  6
Continuous
 62
     7
370
    15
100
AcDbLine
 10
49.775641572
 20
2.7270123106
 30
0.0
 11
49.775641572
 21
2.7931581439
 31
0.0
  0
LINE
  5
17A
330
1F
100
AcDbEntity
  8
0
  6
Continuous
 62
     7
370
    15
100
AcDbLine
 10
58.7579450758
 20
5.4840909091
 30
0.0
 11
60.2296898674
 21
5.4840909091
 31
0.0
  0
LINE
  5
17B
330
1F
100
AcDbEntity
  8
0
  6
Continuous
 62
     7
370
    15
100
AcDbLine
 10
58.7579450758
 20
0.0
 30
0.0
 11
58.7579450758
 21
5.4840909091
 31
0.0
  0
LINE
  5
17C
330
1F
100
AcDbEntity
  8
0
  6
Continuous
 62
     7
370
    15
100
AcDbLine
 10
60.2296898674
 20
0.0
 30
0.0
 11
58.7579450758
 21
0.0
 31
0.0
  0
LINE
  5
17D
330
1F
100
AcDbEntity
  8
0
  6
Continuous
 62
     7
370
    15
100
AcDbLine
 10
60.2296898674
 20
5.4840909091
 30
0.0
 11
60.2296898674
 21
0.0
 31
0.0
  0
LINE
  5
17E
330
1F
100
AcDbEntity
  8
0
  6
Continuous
 62
     7
370
    15
100
AcDbLine
 10
61.4022750947
 20
0.0
 30
0.0
 11
61.4022750947
 21
5.4840909091
 31
0.0
  0
LINE
  5
17F
330
1F
100
AcDbEntity
  8
0
  6
Continuous
 62
     7
370
    15
100
AcDbLine
 10
62.8695099432
 20
0.0
 30
0.0
 11
61.4022750947
 21
0.0
 31
0.0
  0
LINE
  5
180
330
1F
100
AcDbEntity
  8
0
  6
Continuous
 62
     7
370
    15
100
AcDbLine
 10
62.8695099432
 20
3.8950875947
 30
0.0
 11
62.8695099432
 21
0.0
 31
0.0
  0
LINE
  5
181
330
1F
100
AcDbEntity
  8
0
  6
Continuous
 62
     7
370
    15
100
AcDbLine
 10
64.6749905303
 20
0.0
 30
0.0
 11
64.6749905303
 21
3.5327888258
 31
0.0
  0
LINE
  5
182
330
1F
100
AcDbEntity
  8
0
  6
Continuous
 62
     7
370
    15
100
AcDbLine
 10
66.1422253788
 20
3.5403053977
 30
0.0
 11
66.1422253788
 21
0.0
 31
0.0
  0
LINE
  5
183
330
1F
100
AcDbEntity
  8
0
  6
Continuous
 62
     7
370
    15
100
AcDbLine
 10
62.7823177083
 20
5.4840909091
 30
0.0
 11
62.8289204545
 21
4.8511955492
 31
0.0
  0
LINE
  5
184
330
1F
100
AcDbEntity
  8
0
  6
Continuous
 62
     7
370
    15
100
AcDbLine
 10
61.4022750947
 20
5.4840909091
 30
0.0
 11
62.7823177083
 21
5.4840909091
 31
0.0
  0
LINE
  5
185
330
1F
100
AcDbEntity
  8
0
  6
Continuous
 62
     7
370
    15
100
AcDbLine
 10
36.167639678
 20
1.8971827652
 30
0.0
 11
37.5416690341
 21
1.8971827652
 31
0.0
  0
LINE
  5
186
330
1F
100
AcDbEntity
  8
0
  6
Continuous
 62
     7
370
    15
100
AcDbLine
 10
15.0039796402
 20
3.0787878788
 30
0.0
 11
12.0815364583
 21
3.0787878788
 31
0.0
  0
LINE
  5
187
330
1F
100
AcDbEntity
  8
0
  6
Continuous
 62
     7
370
    15
100
AcDbLine
 10
0.109140625
 20
0.0
 30
0.0
 11
-1.3565909091
 21
0.0
 31
0.0
  0
LINE
  5
188
330
1F
100
AcDbEntity
  8
0
  6
Continuous
 62
     7
370
    15
100
AcDbLine
 10
21.7298082386
 20
0.0
 30
0.0
 11
21.7298082386
 21
7.7931818182
 31
0.0
  0
LINE
  5
189
330
1F
100
AcDbEntity
  8
0
  6
Continuous
 62
     7
370
    15
100
AcDbLine
 10
-3.1064488636
 20
6.35
 30
0.0
 11
-0.047204072
 21
7.4083333333
 31
0.0
  0
LINE
  5
18A
330
1F
100
AcDbEntity
  8
0
  6
Continuous
 62
     7
370
    15
100
AcDbLine
 10
23.1143607955
 20
0.5817826705
 30
0.0
 11
23.0482149621
 21
0.0
 31
0.0
  0
LINE
  5
18B
330
1F
100
AcDbEntity
  8
0
  6
Continuous
 62
     7
370
    15
100
AcDbLine
 10
12.0815364583
 20
4.2333333333
 30
0.0
 11
15.0039796402
 21
4.2333333333
 31
0.0
  0
LINE
  5
18C
330
1F
100
AcDbEntity
  8
0
  6
Continuous
 62
     7
370
    15
100
AcDbLine
 10
12.0815364583
 20
6.2537878788
 30
0.0
 11
12.0815364583
 21
4.2333333333
 31
0.0
  0
LINE
  5
18D
330
1F
100
AcDbEntity
  8
0
  6
Continuous
 62
     7
370
    15
100
AcDbLine
 10
84.29
 20
10.0
 30
0.0
 11
81.29
 21
10.0
 31
0.0
  0
LINE
  5
18E
330
1F
100
AcDbEntity
  8
0
  6
Continuous
 62
     7
370
    15
100
AcDbLine
 10
15.3692850379
 20
6.2537878788
 30
0.0
 11
12.0815364583
 21
6.2537878788
 31
0.0
  0
LINE
  5
18F
330
1F
100
AcDbEntity
  8
0
  6
Continuous
 62
     7
370
    15
100
AcDbLine
 10
15.3692850379
 20
7.4083333333
 30
0.0
 11
15.3692850379
 21
6.2537878788
 31
0.0
  0
LINE
  5
190
330
1F
100
AcDbEntity
  8
0
  6
Continuous
 62
     7
370
    15
100
AcDbLine
 10
7.1551751894
 20
5.4840909091
 30
0.0
 11
5.5932315341
 21
2.7976680871
 31
0.0
  0
LINE
  5
191
330
1F
100
AcDbEntity
  8
0
  6
Continuous
 62
     7
370
    15
100
AcDbLine
 10
59.29
 20
-9.15
 30
0.0
 11
59.29
 21
-6.15
 31
0.0
  0
LINE
  5
192
330
1F
100
AcDbEntity
  8
0
  6
Continuous
 62
     7
370
    15
100
AcDbLine
 10
9.29
 20
19.15
 30
0.0
 11
19.29
 21
19.15
 31
0.0
  0
LINE
  5
193
330
1F
100
AcDbEntity
  8
0
  6
Continuous
 62
     7
370
    15
100
AcDbLine
 10
19.29
 20
19.15
 30
0.0
 11
19.29
 21
16.15
 31
0.0
  0
LINE
  5
194
330
1F
100
AcDbEntity
  8
0
  6
Continuous
 62
     7
370
    15
100
AcDbLine
 10
66.1422253788
 20
0.0
 30
0.0
 11
64.6749905303
 21
0.0
 31
0.0
  0
LINE
  5
195
330
1F
100
AcDbEntity
  8
0
  6
Continuous
 62
     7
370
    15
100
AcDbLine
 10
20.8022632576
 20
0.0856889205
 30
0.0
 11
20.8022632576
 21
0.0
 31
0.0
  0
LINE
  5
196
330
1F
100
AcDbEntity
  8
0
  6
Continuous
 62
     7
370
    15
100
AcDbLine
 10
29.29
 20
-6.15
 30
0.0
 11
29.29
 21
-9.15
 31
0.0
  0
LINE
  5
197
330
1F
100
AcDbEntity
  8
0
  6
Continuous
 62
     7
370
    15
100
AcDbLine
 10
2.1175686553
 20
0.0
 30
0.0
 11
3.7456581439
 21
2.7976680871
 31
0.0
  0
LINE
  5
198
330
1F
100
AcDbEntity
  8
0
  6
Continuous
 62
     7
370
    15
100
AcDbLine
 10
55.9512571023
 20
7.7931818182
 30
0.0
 11
57.4230018939
 21
7.7931818182
 31
0.0
  0
LINE
  5
199
330
1F
100
AcDbEntity
  8
0
  6
Continuous
 62
     7
370
    15
100
AcDbLine
 10
-3.1064488636
 20
5.1954545455
 30
0.0
 11
-3.1064488636
 21
6.35
 31
0.0
  0
LINE
  5
19A
330
1F
100
AcDbEntity
  8
0
  6
Continuous
 62
     7
370
    15
100
AcDbLine
 10
9.29
 20
-9.15
 30
0.0
 11
19.29
 21
-9.15
 31
0.0
  0
LINE
  5
19B
330
1F
100
AcDbEntity
  8
0
  6
Continuous
 62
     7
370
    15
100
AcDbLine
 10
-12.71
 20
10.0
 30
0.0
 11
-15.71
 21
10.0
 31
0.0
  0
LINE
  5
19C
330
1F
100
AcDbEntity
  8
0
  6
Continuous
 62
     7
370
    15
100
AcDbLine
 10
-10.71
 20
-6.15
 30
0.0
 11
-10.71
 21
-9.15
 31
0.0
  0
LINE
  5
19D
330
1F
100
AcDbEntity
  8
0
  6
Continuous
 62
     7
370
    15
100
AcDbLine
 10
84.29
 20
0.0
 30
0.0
 11
84.29
 21
10.0
 31
0.0
  0
LINE
  5
19E
330
1F
100
AcDbEntity
  8
0
  6
Continuous
 62
     7
370
    15
100
AcDbLine
 10
3.6960487689
 20
0.0
 30
0.0
 11
2.1175686553
 21
0.0
 31
0.0
  0
LINE
  5
19F
330
1F
100
AcDbEntity
  8
0
  6
Continuous
 62
     7
370
    15
100
AcDbLine
 10
-15.71
 20
10.0
 30
0.0
 11
-15.71
 21
0.0
 31
0.0
  0
LINE
  5
1A0
330
1F
100
AcDbEntity
  8
0
  6
Continuous
 62
     7
370
    15
100
AcDbLine
 10
54.9650828598
 20
3.0607481061
 30
0.0
 11
54.9756060606
 21
2.686422822
 31
0.0
  0
LINE
  5
1A1
330
1F
100
AcDbEntity
  8
0
  6
Continuous
 62
     7
370
    15
100
AcDbLine
 10
66.9976112689
 20
2.7270123106
 30
0.0
 11
66.9976112689
 21
2.7931581439
 31
0.0
  0
LINE
  5
1A2
330
1F
100
AcDbEntity
  8
0
  6
Continuous
 62
     7
370
    15
100
AcDbLine
 10
17.5100047348
 20
3.8484848485
 30
0.0
 11
16.0442732008
 21
3.8484848485
 31
0.0
  0
LINE
  5
1A3
330
1F
100
AcDbEntity
  8
0
  6
Continuous
 62
     7
370
    15
100
AcDbLine
 10
20.8022632576
 20
0.0
 30
0.0
 11
19.3214985795
 21
0.0
 31
0.0
  0
LINE
  5
1A4
330
1F
100
AcDbEntity
  8
0
  6
Continuous
 62
     7
370
    15
100
AcDbLine
 10
27.3326609848
 20
1.7453480114
 30
0.0
 11
28.7232267992
 21
1.7453480114
 31
0.0
  0
LINE
  5
1A5
330
1F
100
AcDbEntity
  8
0
  6
Continuous
 62
     7
370
    15
100
AcDbLine
 10
43.906702178
 20
2.7270123106
 30
0.0
 11
43.906702178
 21
2.7931581439
 31
0.0
  0
LINE
  5
1A6
330
1F
100
AcDbEntity
  8
0
  6
Continuous
 62
     7
370
    15
100
AcDbLine
 10
17.3927462121
 20
1.7107717803
 30
0.0
 11
17.3882362689
 21
1.6325994318
 31
0.0
  0
LINE
  5
1A7
330
1F
100
AcDbEntity
  8
0
  6
Continuous
 62
     7
370
    15
100
AcDbLine
 10
19.1125378788
 20
2.4053030303
 30
0.0
 11
18.5653314394
 21
2.4053030303
 31
0.0
  0
LINE
  5
1A8
330
1F
100
AcDbEntity
  8
0
  6
Continuous
 62
     7
370
    15
100
AcDbLine
 10
19.1125378788
 20
1.5439038826
 30
0.0
 11
19.1125378788
 21
2.4053030303
 31
0.0
  0
LINE
  5
1A9
330
1F
100
AcDbEntity
  8
0
  6
Continuous
 62
     7
370
    15
100
AcDbLine
 10
23.1970430871
 20
3.8439749053
 30
0.0
 11
23.1970430871
 21
1.644625947
 31
0.0
  0
ENDSEC
  0
SECTION
  2
OBJECTS
  0
DICTIONARY
  5
C
330
0
100
AcDbDictionary
281
     1
  3
ACAD_GROUP
350
D
  3
ACAD_LAYOUT
350
1A
  3
ACAD_MLINESTYLE
350
17
  3
ACAD_PLOTSETTINGS
350
19
  3
ACAD_PLOTSTYLENAME
350
E
  3
ACAD_SCALELIST
350
47
  0
DICTIONARY
  5
D
102
{ACAD_REACTORS
330
C
102
}
330
C
100
AcDbDictionary
281
     1
  0
DICTIONARY
  5
1A
102
{ACAD_REACTORS
330
C
102
}
330
C
100
AcDbDictionary
281
     1
  3
Layout1
350
1E
  3
Layout2
350
26
  3
Model
350
22
  0
DICTIONARY
  5
17
102
{ACAD_REACTORS
330
C
102
}
330
C
100
AcDbDictionary
281
     1
  3
Standard
350
18
  0
DICTIONARY
  5
19
102
{ACAD_REACTORS
330
C
102
}
330
C
100
AcDbDictionary
281
     1
  0
ACDBDICTIONARYWDFLT
  5
E
102
{ACAD_REACTORS
330
C
102
}
330
C
100
AcDbDictionary
281
     1
  3
Normal
350
F
100
AcDbDictionaryWithDefault
340
F
  0
DICTIONARY
  5
47
102
{ACAD_REACTORS
330
C
102
}
330
C
100
AcDbDictionary
281
     1
  3
A0
350
48
  3
A1
350
49
  3
A2
350
4A
  3
A3
350
4B
  3
A4
350
4C
  3
A5
350
4D
  3
A6
350
4E
  3
A7
350
4F
  3
A8
350
50
  3
A9
350
51
  3
B0
350
52
  3
B1
350
53
  3
B2
350
54
  3
B3
350
55
  3
B4
350
56
  3
B5
350
57
  3
B6
350
58
  3
B7
350
59
  3
B8
350
5A
  3
B9
350
5B
  3
C0
350
5C
  3
C1
350
5D
  3
C2
350
5E
  3
C3
350
5F
  3
C4
350
60
  3
C5
350
61
  3
C6
350
62
  3
C7
350
63
  3
C8
350
64
  3
C9
350
65
  3
D0
350
66
  3
D1
350
67
  3
D2
350
68
  0
LAYOUT
  5
1E
102
{ACAD_REACTORS
330
1A
102
}
330
1A
100
AcDbPlotSettings
  1

  2
none_device
  4

  6

 40
0.0
 41
0.0
 42
0.0
 43
0.0
 44
0.0
 45
0.0
 46
0.0
 47
0.0
 48
0.0
 49
0.0
140
0.0
141
0.0
142
1.0
143
1.0
 70
   688
 72
     1
 73
     0
 74
     5
  7

 75
    16
147
1.0
148
0.0
149
0.0
100
AcDbLayout
  1
Layout1
 70
     1
 71
     1
 10
0.0
 20
0.0
 11
420.0
 21
297.0
 12
0.0
 22
0.0
 32
0.0
 14
1.0000000000E+20
 24
1.0000000000E+20
 34
1.0000000000E+20
 15
-1.0000000000E+20
 25
-1.0000000000E+20
 35
-1.0000000000E+20
146
0.0
 13
0.0
 23
0.0
 33
0.0
 16
1.0
 26
0.0
 36
0.0
 17
0.0
 27
1.0
 37
0.0
 76
     0
330
1B
  0
LAYOUT
  5
26
102
{ACAD_REACTORS
330
1A
102
}
330
1A
100
AcDbPlotSettings
  1

  2
none_device
  4

  6

 40
0.0
 41
0.0
 42
0.0
 43
0.0
 44
0.0
 45
0.0
 46
0.0
 47
0.0
 48
0.0
 49
0.0
140
0.0
141
0.0
142
1.0
143
1.0
 70
   688
 72
     1
 73
     0
 74
     5
  7

 75
    16
147
1.0
148
0.0
149
0.0
100
AcDbLayout
  1
Layout2
 70
     1
 71
     2
 10
0.0
 20
0.0
 11
0.0
 21
0.0
 12
0.0
 22
0.0
 32
0.0
 14
0.0
 24
0.0
 34
0.0
 15
0.0
 25
0.0
 35
0.0
146
0.0
 13
0.0
 23
0.0
 33
0.0
 16
1.0
 26
0.0
 36
0.0
 17
0.0
 27
1.0
 37
0.0
 76
     0
330
23
  0
LAYOUT
  5
22
102
{ACAD_REACTORS
330
1A
102
}
330
1A
100
AcDbPlotSettings
  1

  2
none_device
  4
ANSI_A_(11.00_x_8.50_Inches)
  6

 40
6.35
 41
19.05
 42
6.35000508
 43
19.05000254
 44
279.4
 45
215.9
 46
43.8705659506
 47
75.8525458998
 48
0.0
 49
0.0
140
0.0
141
0.0
142
0.1027358491
143
1.0
 70
  1696
 72
     0
 73
     0
 74
     0
  7

 75
     0
147
0.0179189148
148
-1300.4909072572
149
0.0
100
AcDbLayout
  1
Model
 70
     1
 71
     0
 10
0.0
 20
0.0
 11
420.0
 21
297.0
 12
0.0
 22
0.0
 32
0.0
 14
-18.71
 24
-9.15
 34
0.0
 15
87.29
 25
19.15
 35
0.0
146
0.0
 13
0.0
 23
0.0
 33
0.0
 16
1.0
 26
0.0
 36
0.0
 17
0.0
 27
1.0
 37
0.0
 76
     0
330
1F
331
29
  0
MLINESTYLE
  5
18
102
{ACAD_REACTORS
330
17
102
}
330
17
100
AcDbMlineStyle
  2
Standard
 70
     0
  3

 62
   256
 51
90.0
 52
90.0
 71
     2
 49
0.5
 62
   256
  6
BYLAYER
 49
-0.5
 62
   256
  6
BYLAYER
  0
ACDBPLACEHOLDER
  5
F
102
{ACAD_REACTORS
330
E
102
}
330
E
  0
SCALE
  5
48
102
{ACAD_REACTORS
330
47
102
}
330
47
100
AcDbScale
 70
     0
300
1:1
140
1.0
141
1.0
290
     1
  0
SCALE
  5
49
102
{ACAD_REACTORS
330
47
102
}
330
47
100
AcDbScale
 70
     0
300
1:2
140
1.0
141
2.0
290
     0
  0
SCALE
  5
4A
102
{ACAD_REACTORS
330
47
102
}
330
47
100
AcDbScale
 70
     0
300
1:4
140
1.0
141
4.0
290
     0
  0
SCALE
  5
4B
102
{ACAD_REACTORS
330
47
102
}
330
47
100
AcDbScale
 70
     0
300
1:5
140
1.0
141
5.0
290
     0
  0
SCALE
  5
4C
102
{ACAD_REACTORS
330
47
102
}
330
47
100
AcDbScale
 70
     0
300
1:8
140
1.0
141
8.0
290
     0
  0
SCALE
  5
4D
102
{ACAD_REACTORS
330
47
102
}
330
47
100
AcDbScale
 70
     0
300
1:10
140
1.0
141
10.0
290
     0
  0
SCALE
  5
4E
102
{ACAD_REACTORS
330
47
102
}
330
47
100
AcDbScale
 70
     0
300
1:16
140
1.0
141
16.0
290
     0
  0
SCALE
  5
4F
102
{ACAD_REACTORS
330
47
102
}
330
47
100
AcDbScale
 70
     0
300
1:20
140
1.0
141
20.0
290
     0
  0
SCALE
  5
50
102
{ACAD_REACTORS
330
47
102
}
330
47
100
AcDbScale
 70
     0
300
1:30
140
1.0
141
30.0
290
     0
  0
SCALE
  5
51
102
{ACAD_REACTORS
330
47
102
}
330
47
100
AcDbScale
 70
     0
300
1:40
140
1.0
141
40.0
290
     0
  0
SCALE
  5
52
102
{ACAD_REACTORS
330
47
102
}
330
47
100
AcDbScale
 70
     0
300
1:50
140
1.0
141
50.0
290
     0
  0
SCALE
  5
53
102
{ACAD_REACTORS
330
47
102
}
330
47
100
AcDbScale
 70
     0
300
1:100
140
1.0
141
100.0
290
     0
  0
SCALE
  5
54
102
{ACAD_REACTORS
330
47
102
}
330
47
100
AcDbScale
 70
     0
300
2:1
140
2.0
141
1.0
290
     0
  0
SCALE
  5
55
102
{ACAD_REACTORS
330
47
102
}
330
47
100
AcDbScale
 70
     0
300
4:1
140
4.0
141
1.0
290
     0
  0
SCALE
  5
56
102
{ACAD_REACTORS
330
47
102
}
330
47
100
AcDbScale
 70
     0
300
8:1
140
8.0
141
1.0
290
     0
  0
SCALE
  5
57
102
{ACAD_REACTORS
330
47
102
}
330
47
100
AcDbScale
 70
     0
300
10:1
140
10.0
141
1.0
290
     0
  0
SCALE
  5
58
102
{ACAD_REACTORS
330
47
102
}
330
47
100
AcDbScale
 70
     0
300
100:1
140
100.0
141
1.0
290
     0
  0
SCALE
  5
59
102
{ACAD_REACTORS
330
47
102
}
330
47
100
AcDbScale
 70
     0
300
1/128" = 1'-0"
140
0.0078125
141
12.0
290
     0
  0
SCALE
  5
5A
102
{ACAD_REACTORS
330
47
102
}
330
47
100
AcDbScale
 70
     0
300
1/64" = 1'-0"
140
0.015625
141
12.0
290
     0
  0
SCALE
  5
5B
102
{ACAD_REACTORS
330
47
102
}
330
47
100
AcDbScale
 70
     0
300
1/32" = 1'-0"
140
0.03125
141
12.0
290
     0
  0
SCALE
  5
5C
102
{ACAD_REACTORS
330
47
102
}
330
47
100
AcDbScale
 70
     0
300
1/16" = 1'-0"
140
0.0625
141
12.0
290
     0
  0
SCALE
  5
5D
102
{ACAD_REACTORS
330
47
102
}
330
47
100
AcDbScale
 70
     0
300
3/32" = 1'-0"
140
0.09375
141
12.0
290
     0
  0
SCALE
  5
5E
102
{ACAD_REACTORS
330
47
102
}
330
47
100
AcDbScale
 70
     0
300
1/8" = 1'-0"
140
0.125
141
12.0
290
     0
  0
SCALE
  5
5F
102
{ACAD_REACTORS
330
47
102
}
330
47
100
AcDbScale
 70
     0
300
3/16" = 1'-0"
140
0.1875
141
12.0
290
     0
  0
SCALE
  5
60
102
{ACAD_REACTORS
330
47
102
}
330
47
100
AcDbScale
 70
     0
300
1/4" = 1'-0"
140
0.25
141
12.0
290
     0
  0
SCALE
  5
61
102
{ACAD_REACTORS
330
47
102
}
330
47
100
AcDbScale
 70
     0
300
3/8" = 1'-0"
140
0.375
141
12.0
290
     0
  0
SCALE
  5
62
102
{ACAD_REACTORS
330
47
102
}
330
47
100
AcDbScale
 70
     0
300
1/2" = 1'-0"
140
0.5
141
12.0
290
     0
  0
SCALE
  5
63
102
{ACAD_REACTORS
330
47
102
}
330
47
100
AcDbScale
 70
     0
300
3/4" = 1'-0"
140
0.75
141
12.0
290
     0
  0
SCALE
  5
64
102
{ACAD_REACTORS
330
47
102
}
330
47
100
AcDbScale
 70
     0
300
1" = 1'-0"
140
1.0
141
12.0
290
     0
  0
SCALE
  5
65
102
{ACAD_REACTORS
330
47
102
}
330
47
100
AcDbScale
 70
     0
300
1-1/2" = 1'-0"
140
1.5
141
12.0
290
     0
  0
SCALE
  5
66
102
{ACAD_REACTORS
330
47
102
}
330
47
100
AcDbScale
 70
     0
300
3" = 1'-0"
140
3.0
141
12.0
290
     0
  0
SCALE
  5
67
102
{ACAD_REACTORS
330
47
102
}
330
47
100
AcDbScale
 70
     0
300
6" = 1'-0"
140
6.0
141
12.0
290
     0
  0
SCALE
  5
68
102
{ACAD_REACTORS
330
47
102
}
330
47
100
AcDbScale
 70
     0
300
1'-0" = 1'-0"
140
12.0
141
12.0
290
     0
  0
ENDSEC
  0
EOF
