<?xml version="1.0" encoding="utf-8"?>
<!-- Generator: Adobe Illustrator 19.2.1, SVG Export Plug-In . SVG Version: 6.00 Build 0)  -->
<svg version="1.1" xmlns="http://www.w3.org/2000/svg" xmlns:xlink="http://www.w3.org/1999/xlink" x="0px" y="0px"
	 viewBox="0 0 100 100" style="enable-background:new 0 0 100 100;" xml:space="preserve">
<style type="text/css">
	.st0{display:none;}
	.st1{display:inline;}
	.st2{fill:none;stroke:#000000;stroke-width:3;stroke-linecap:round;stroke-miterlimit:10;}
	.st3{fill:none;stroke:#000000;stroke-width:3;stroke-linecap:round;stroke-linejoin:round;stroke-miterlimit:10;}
	.st4{fill:none;stroke:#000000;stroke-width:3;stroke-linejoin:round;stroke-miterlimit:10;}
	.st5{fill:none;stroke:#000000;stroke-width:3;stroke-miterlimit:10;}
	.st6{fill:none;stroke:#000000;stroke-width:3;stroke-linejoin:bevel;stroke-miterlimit:10;}
	
		.st7{display:inline;fill:#FFFFFF;stroke:#000000;stroke-width:3;stroke-linecap:round;stroke-linejoin:round;stroke-miterlimit:10;}
	.st8{display:inline;fill:none;stroke:#000000;stroke-width:3;stroke-linecap:round;stroke-linejoin:round;stroke-miterlimit:10;}
	.st9{display:inline;fill:none;stroke:#000000;stroke-width:3;stroke-linejoin:round;stroke-miterlimit:10;}
	.st10{display:inline;fill:#FFFFFF;stroke:#000000;stroke-width:3;stroke-linejoin:round;stroke-miterlimit:10;}
	.st11{display:inline;fill:none;stroke:#000000;stroke-width:3;stroke-miterlimit:10;}
</style>
<g id="embroidery" class="st0">
	<g class="st1">
		<line class="st2" x1="18.6" y1="55.5" x2="18.6" y2="69.4"/>
		<path class="st3" d="M7.1,22.9v16.2v0.1v16.2h25.3V39.3h36.8v24.3H58.6v22.7H1c0,0-0.6,11.7,17.3,11.7s78.7,0,78.7,0V87.9v-1.6
			v-47v-6.5v-9.9H7.1z"/>
		<rect x="75.6" y="38.9" class="st4" width="15" height="12"/>
		<line class="st2" x1="11.6" y1="31.2" x2="34.9" y2="31.2"/>
		<ellipse class="st4" cx="83.2" cy="62.3" rx="6.1" ry="6.2"/>
	</g>
</g>
<g id="_x33_d">
	<g>
		<path class="st5" d="M12.9,4.9c-5.4,0-9.8,4.4-9.8,9.8v74.4c0,5.4,4.4,9.8,9.8,9.8h74.3c5.4,0,9.8-4.4,9.8-9.8V14.8
			C97,9.4,92.6,5,87.2,5L12.9,4.9z"/>
		<line class="st5" x1="3" y1="31.2" x2="44.1" y2="31.2"/>
		<line class="st5" x1="75.3" y1="31.2" x2="96.9" y2="31.2"/>
		<path class="st5" d="M67.5,54.9H52.1c-4.3,0-7.8-3.6-7.8-7.8V19.3c0-4.3,3.6-7.8,7.8-7.8h15.5c4.3,0,7.8,3.6,7.8,7.8v27.8
			C75.3,51.4,71.9,54.9,67.5,54.9z"/>
		<line class="st3" x1="59.2" y1="54.9" x2="59.2" y2="61.9"/>
		<polyline class="st3" points="36.7,75 43,68.7 60.1,68.7 60.1,84.5 53.8,90.9 53.8,90.9 36.7,90.9 36.7,75 53.8,75 60.1,68.7 		
			"/>
		<line class="st6" x1="53.8" y1="75" x2="53.8" y2="90.9"/>
	</g>
</g>
<g id="vinyl" class="st0">
	<polygon class="st7" points="75.2,98 4.9,98 11.4,55.5 68.7,55.5 	"/>
	<line class="st8" x1="7.7" y1="55.5" x2="72.4" y2="55.5"/>
	<rect x="78.6" y="47.3" class="st8" width="11.5" height="15.7"/>
	<rect x="14.8" y="35.3" class="st7" width="71" height="5"/>
	<polyline class="st8" points="58.5,69.3 38.9,67.7 20.5,55.7 	"/>
	<polygon class="st8" points="3.6,40.3 3.6,70.7 9.1,70.7 11.4,55.5 68.7,55.5 71,70.7 96.9,70.7 96.9,40.3 	"/>
</g>
<g id="small_x5F_milling" class="st0">
	<rect x="25.9" y="27.8" class="st9" width="30.5" height="20.5"/>
	<polygon class="st9" points="85.7,38 85.7,70.7 14.7,70.7 14.7,38 3.5,38 3.5,70.7 3.5,98 96.8,98 96.8,70.7 96.8,38 	"/>
	<rect x="20.5" y="65.7" class="st10" width="59.4" height="5"/>
	<rect x="78.5" y="77.7" class="st9" width="11.5" height="12.7"/>
	<line class="st8" x1="41" y1="48.2" x2="41" y2="56.5"/>
	<line class="st11" x1="14.7" y1="38" x2="25.9" y2="38"/>
	<line class="st11" x1="56.4" y1="38" x2="85.7" y2="38"/>
</g>
</svg>
